#N canvas 180 98 792 315 10;
#X obj 100 100 tgl 30 0 empty empty empty 17 7 0 10 -262144 -1 -1 0
1;
#X obj 204 -8 inlet;
#X obj 131 100 tgl 30 0 empty empty empty 17 7 0 10 -262144 -1 -1 0
1;
#X obj 162 100 tgl 30 0 empty empty empty 17 7 0 10 -262144 -1 -1 0
1;
#X obj 193 100 tgl 30 0 empty empty empty 17 7 0 10 -262144 -1 -1 0
1;
#X obj 224 100 tgl 30 0 empty empty empty 17 7 0 10 -262144 -1 -1 0
1;
#X obj 255 100 tgl 30 0 empty empty empty 17 7 0 10 -262144 -1 -1 0
1;
#X obj 286 100 tgl 30 0 empty empty empty 17 7 0 10 -262144 -1 -1 0
1;
#X obj 317 100 tgl 30 0 empty empty empty 17 7 0 10 -262144 -1 -1 0
1;
#X obj 348 100 tgl 30 0 empty empty empty 17 7 0 10 -262144 -1 -1 0
1;
#X obj 379 100 tgl 30 0 empty empty empty 17 7 0 10 -262144 -1 -1 0
1;
#X obj 410 100 tgl 30 0 empty empty empty 17 7 0 10 -262144 -1 -1 0
1;
#X obj 441 100 tgl 30 0 empty empty empty 17 7 0 10 -262144 -1 -1 0
1;
#X obj 472 100 tgl 30 0 empty empty empty 17 7 0 10 -262144 -1 -1 0
1;
#X obj 503 100 tgl 30 0 empty empty empty 17 7 0 10 -262144 -1 -1 0
1;
#X obj 534 100 tgl 30 0 empty empty empty 17 7 0 10 -262144 -1 -1 0
1;
#X obj 565 100 tgl 30 0 empty empty empty 17 7 0 10 -262144 -1 -1 0
1;
#X msg 100 137 1 \$1;
#X msg 131 154 2 \$1;
#X msg 162 137 3 \$1;
#X msg 193 154 4 \$1;
#X msg 224 137 5 \$1;
#X msg 255 154 6 \$1;
#X msg 286 137 7 \$1;
#X msg 317 154 8 \$1;
#X msg 348 137 9 \$1;
#X msg 379 154 10 \$1;
#X msg 410 137 11 \$1;
#X msg 441 154 12 \$1;
#X msg 472 137 13 \$1;
#X msg 504 154 14 \$1;
#X msg 534 137 15 \$1;
#X msg 565 154 16 \$1;
#X obj 319 224 outlet;
#X obj 204 25 route 1 2 3 4 5 6 7 8 9 10 11 12 13 14 15 16;
#X msg 100 57 set \$1;
#X msg 131 78 set \$1;
#X msg 162 57 set \$1;
#X msg 193 78 set \$1;
#X msg 224 56 set \$1;
#X msg 255 77 set \$1;
#X msg 286 56 set \$1;
#X msg 317 77 set \$1;
#X msg 348 57 set \$1;
#X msg 379 78 set \$1;
#X msg 410 57 set \$1;
#X msg 441 78 set \$1;
#X msg 472 56 set \$1;
#X msg 503 77 set \$1;
#X msg 534 56 set \$1;
#X msg 565 77 set \$1;
#X connect 0 0 17 0;
#X connect 1 0 34 0;
#X connect 2 0 18 0;
#X connect 3 0 19 0;
#X connect 4 0 20 0;
#X connect 5 0 21 0;
#X connect 6 0 22 0;
#X connect 7 0 23 0;
#X connect 8 0 24 0;
#X connect 9 0 25 0;
#X connect 10 0 26 0;
#X connect 11 0 27 0;
#X connect 12 0 28 0;
#X connect 13 0 29 0;
#X connect 14 0 30 0;
#X connect 15 0 31 0;
#X connect 16 0 32 0;
#X connect 17 0 33 0;
#X connect 18 0 33 0;
#X connect 19 0 33 0;
#X connect 20 0 33 0;
#X connect 21 0 33 0;
#X connect 22 0 33 0;
#X connect 23 0 33 0;
#X connect 24 0 33 0;
#X connect 25 0 33 0;
#X connect 26 0 33 0;
#X connect 27 0 33 0;
#X connect 28 0 33 0;
#X connect 29 0 33 0;
#X connect 30 0 33 0;
#X connect 31 0 33 0;
#X connect 32 0 33 0;
#X connect 34 0 35 0;
#X connect 34 1 36 0;
#X connect 34 2 37 0;
#X connect 34 3 38 0;
#X connect 34 4 39 0;
#X connect 34 5 40 0;
#X connect 34 6 41 0;
#X connect 34 7 42 0;
#X connect 34 8 43 0;
#X connect 34 9 44 0;
#X connect 34 10 45 0;
#X connect 34 11 46 0;
#X connect 34 12 47 0;
#X connect 34 13 48 0;
#X connect 34 14 49 0;
#X connect 34 15 50 0;
#X connect 35 0 0 0;
#X connect 36 0 2 0;
#X connect 37 0 3 0;
#X connect 38 0 4 0;
#X connect 39 0 5 0;
#X connect 40 0 6 0;
#X connect 41 0 7 0;
#X connect 42 0 8 0;
#X connect 43 0 9 0;
#X connect 44 0 10 0;
#X connect 45 0 11 0;
#X connect 46 0 12 0;
#X connect 47 0 13 0;
#X connect 48 0 14 0;
#X connect 49 0 15 0;
#X connect 50 0 16 0;
#X coords 0 -1 1 1 495 30 1 100 100;
