#N canvas 100 27 1082 651 10;
#X obj 189 119 vradio 31 1 0 8 empty empty empty 0 -8 0 10 -4032 -1
-1 0;
#X obj 18 176 vradio 15 1 0 8 empty empty empty 0 -8 0 10 -262144 -1
-1 0;
#X msg 18 302 \$1 0;
#X obj 33 176 vradio 15 1 0 8 empty empty empty 0 -8 0 10 -262144 -1
-1 0;
#X msg 33 323 \$1 1;
#X obj 48 176 vradio 15 1 0 8 empty empty empty 0 -8 0 10 -262144 -1
-1 0;
#X obj 63 176 vradio 15 1 0 8 empty empty empty 0 -8 0 10 -262144 -1
-1 0;
#X msg 48 302 \$1 2;
#X msg 63 323 \$1 3;
#X obj 78 176 vradio 15 1 0 8 empty empty empty 0 -8 0 10 -262144 -1
-1 0;
#X obj 93 176 vradio 15 1 0 8 empty empty empty 0 -8 0 10 -262144 -1
-1 0;
#X obj 108 176 vradio 15 1 0 8 empty empty empty 0 -8 0 10 -262144
-1 -1 0;
#X obj 123 176 vradio 15 1 0 8 empty empty empty 0 -8 0 10 -262144
-1 -1 0;
#X msg 78 302 \$1 4;
#X msg 93 323 \$1 5;
#X msg 108 302 \$1 6;
#X msg 123 323 \$1 7;
#X obj 13 450 hradio 25 1 0 8 empty empty empty 0 -8 0 10 -4034 -1
-1 0;
#X obj 390 56 hradio 31 1 0 16 empty empty empty 0 -8 0 10 -257985
-1 -1 0;
#X obj 56 348 prepend pattern_seq;
#X obj 13 487 prepend pattern_seq_length;
#X msg 59 49 set \$1;
#X obj 13 401 route pattern_seq_length;
#X msg 13 425 set \$1;
#X msg 18 113 set \$1;
#X msg 33 134 set \$1;
#X msg 48 155 set \$1;
#X msg 63 113 set \$1;
#X msg 78 134 set \$1;
#X msg 93 155 set \$1;
#X msg 108 113 set \$1;
#X msg 123 134 set \$1;
#X obj 30 87 route pattern_seq;
#X obj 170 64 route 1 2 3 4 5 6 7 8;
#X msg 380 404 1 \$1 \$2;
#X msg 380 425 2 \$1 \$2;
#X msg 380 449 3 \$1 \$2;
#X msg 380 474 4 \$1 \$2;
#X msg 380 497 5 \$1 \$2;
#X msg 380 522 6 \$1 \$2;
#X msg 380 546 7 \$1 \$2;
#X msg 380 571 8 \$1 \$2;
#X obj 443 422 hradio 25 1 0 5 empty empty empty 0 -8 0 10 -258113
-1 -1 0;
#X obj 443 479 prepend track_number;
#X obj 443 454 + 1;
#X obj 13 4 inlet;
#X obj 59 29 route pattern_number pattern_seq pattern_grid step_number
;
#X obj 263 617 outlet;
#X obj 443 366 loadbang;
#X msg 443 393 0;
#X obj 443 523 prepend pattern_grid;
#X obj 443 550 prepend edit;
#X obj 56 370 prepend edit;
#X obj 13 511 prepend edit;
#X obj 169 412 prepend get;
#X obj 169 388 prepend pattern_grid;
#X obj 181 538 prepend get;
#X obj 181 492 bng 15 250 50 0 empty empty empty 17 7 0 10 -262144
-1 -1;
#X obj 238 478 prepend edit;
#X obj 238 454 prepend pattern_number;
#X obj 390 97 16stepdrums;
#X obj 390 128 16stepdrums;
#X obj 390 159 16stepdrums;
#X obj 390 190 16stepdrums;
#X obj 390 221 16stepdrums;
#X obj 390 252 16stepdrums;
#X obj 390 283 16stepdrums;
#X obj 390 314 16stepdrums;
#X obj 181 514 prepend active_pattern_number;
#X obj 761 437 hradio 15 1 0 4 empty empty empty 0 -8 0 10 -260097
-1 -1 0;
#X obj 761 515 prepend get;
#X obj 761 595 prepend cc_curves;
#X obj 647 484 i;
#X obj 593 456 t b f;
#X obj 593 420 unpack;
#X obj 761 461 + 1;
#N canvas 386 53 504 526 gui_curve_read 0;
#X msg 183 147 256;
#X obj 183 213 f;
#X obj 209 213 + 1;
#X obj 183 178 until;
#X obj 183 240 t f f;
#X msg 231 177 0;
#X obj 211 321 i;
#X obj 183 348 pack 0 0 0;
#X obj 183 322 i;
#X obj 183 295 t b b f;
#X obj 183 376 outlet;
#X obj 183 267 tabread gui_curve;
#X obj 183 101 bng 15 250 50 0 empty empty empty 17 7 0 10 -262144
-1 -1;
#X obj 183 68 inlet;
#X obj 101 100 inlet;
#X obj 114 246 loadbang;
#X msg 114 267 1;
#X obj 183 123 t b b;
#X connect 0 0 3 0;
#X connect 1 0 2 0;
#X connect 1 0 4 0;
#X connect 2 0 1 1;
#X connect 3 0 1 0;
#X connect 4 0 11 0;
#X connect 4 1 6 1;
#X connect 5 0 1 1;
#X connect 6 0 7 1;
#X connect 7 0 10 0;
#X connect 8 0 7 0;
#X connect 9 0 8 0;
#X connect 9 1 6 0;
#X connect 9 2 7 2;
#X connect 11 0 9 0;
#X connect 12 0 17 0;
#X connect 13 0 12 0;
#X connect 14 0 8 1;
#X connect 15 0 16 0;
#X connect 16 0 8 1;
#X connect 17 0 0 0;
#X connect 17 1 5 0;
#X restore 857 489 pd gui_curve_read;
#X obj 956 458 bng 15 250 50 0 empty empty empty 17 7 0 10 -262144
-1 -1;
#X obj 857 541 prepend edit;
#X obj 692 494 hradio 25 1 0 2 empty empty empty 0 -8 0 10 -258113
-1 -1 0;
#X obj 692 526 + 1;
#X obj 692 438 loadbang;
#X msg 692 465 0;
#X obj 692 551 prepend cctrack_number;
#X obj 573 523 tabwrite gui_curve;
#X obj 614 586 table gui_curve 256;
#X msg 665 410 set \$1;
#X obj 631 390 - 1;
#X obj 761 489 prepend curve;
#X obj 857 515 prepend curve;
#X obj 542 364 route gui_curve gui_curve_number curve_active;
#X obj 862 429 tgl 30 0 empty empty empty 17 7 0 10 -262144 -1 -1 0
1;
#X msg 784 390 set \$1;
#X connect 0 0 55 0;
#X connect 0 0 59 0;
#X connect 1 0 2 0;
#X connect 2 0 19 0;
#X connect 3 0 4 0;
#X connect 4 0 19 0;
#X connect 5 0 7 0;
#X connect 6 0 8 0;
#X connect 7 0 19 0;
#X connect 8 0 19 0;
#X connect 9 0 13 0;
#X connect 10 0 14 0;
#X connect 11 0 15 0;
#X connect 12 0 16 0;
#X connect 13 0 19 0;
#X connect 14 0 19 0;
#X connect 15 0 19 0;
#X connect 16 0 19 0;
#X connect 17 0 20 0;
#X connect 19 0 52 0;
#X connect 20 0 53 0;
#X connect 21 0 0 0;
#X connect 22 0 23 0;
#X connect 23 0 17 0;
#X connect 24 0 1 0;
#X connect 25 0 3 0;
#X connect 26 0 5 0;
#X connect 27 0 6 0;
#X connect 28 0 9 0;
#X connect 29 0 10 0;
#X connect 30 0 11 0;
#X connect 31 0 12 0;
#X connect 32 0 24 0;
#X connect 32 0 25 0;
#X connect 32 0 26 0;
#X connect 32 0 27 0;
#X connect 32 0 28 0;
#X connect 32 0 29 0;
#X connect 32 0 30 0;
#X connect 32 0 31 0;
#X connect 33 0 60 0;
#X connect 33 1 61 0;
#X connect 33 2 62 0;
#X connect 33 3 63 0;
#X connect 33 4 64 0;
#X connect 33 5 65 0;
#X connect 33 6 66 0;
#X connect 33 7 67 0;
#X connect 34 0 50 0;
#X connect 35 0 50 0;
#X connect 36 0 50 0;
#X connect 37 0 50 0;
#X connect 38 0 50 0;
#X connect 39 0 50 0;
#X connect 40 0 50 0;
#X connect 41 0 50 0;
#X connect 42 0 44 0;
#X connect 43 0 47 0;
#X connect 44 0 43 0;
#X connect 45 0 32 0;
#X connect 45 0 22 0;
#X connect 45 0 46 0;
#X connect 45 0 90 0;
#X connect 46 0 21 0;
#X connect 46 2 33 0;
#X connect 46 3 18 0;
#X connect 48 0 49 0;
#X connect 49 0 42 0;
#X connect 50 0 51 0;
#X connect 51 0 47 0;
#X connect 52 0 47 0;
#X connect 53 0 47 0;
#X connect 54 0 47 0;
#X connect 55 0 54 0;
#X connect 56 0 47 0;
#X connect 57 0 68 0;
#X connect 58 0 47 0;
#X connect 59 0 58 0;
#X connect 60 0 34 0;
#X connect 61 0 35 0;
#X connect 62 0 36 0;
#X connect 63 0 37 0;
#X connect 64 0 38 0;
#X connect 65 0 39 0;
#X connect 66 0 40 0;
#X connect 67 0 41 0;
#X connect 68 0 56 0;
#X connect 69 0 75 0;
#X connect 70 0 71 0;
#X connect 71 0 47 0;
#X connect 72 0 84 0;
#X connect 73 0 72 0;
#X connect 73 1 84 1;
#X connect 74 0 73 0;
#X connect 74 1 72 1;
#X connect 75 0 76 0;
#X connect 75 0 88 0;
#X connect 76 0 89 0;
#X connect 77 0 76 1;
#X connect 78 0 71 0;
#X connect 79 0 80 0;
#X connect 80 0 83 0;
#X connect 81 0 82 0;
#X connect 82 0 79 0;
#X connect 83 0 47 0;
#X connect 86 0 69 0;
#X connect 87 0 86 0;
#X connect 88 0 70 0;
#X connect 89 0 78 0;
#X connect 90 0 74 0;
#X connect 90 1 87 0;
#X connect 90 2 92 0;
#X connect 92 0 91 0;
#X coords 0 0 1 1 527 247 0;
