#N canvas 164 105 803 554 10;
#X obj 345 8 inlet;
#X obj 224 464 outlet;
#X obj 249 161 i \$1;
#X obj 249 182 pack 0 0;
#X obj 249 139 t b f;
#X msg 249 204 set curve\$1-\$2;
#N canvas 26 112 1107 624 midi-packet 0;
#X msg 452 428 1 \$1;
#X obj 744 6 inlet;
#X obj 857 193 inlet;
#X obj 601 340 bng 15 250 50 0 empty empty empty 17 7 0 10 -262144
-1 -1;
#X msg 487 428 2 \$1;
#X msg 522 428 3 \$1;
#X msg 557 428 4 \$1;
#X obj 11 136 inlet;
#X obj 11 216 pack 0 0 0;
#X obj 11 163 t f b b;
#X obj 95 136 inlet;
#X obj 95 216 pack 0 0 0;
#X obj 95 163 t f b b;
#X obj 179 136 inlet;
#X obj 179 216 pack 0 0 0;
#X obj 179 163 t f b b;
#X obj 263 136 inlet;
#X obj 263 216 pack 0 0 0;
#X obj 263 163 t f b b;
#X obj 522 400 i 0;
#X obj 487 400 i 0;
#X obj 452 400 i 0;
#X obj 557 400 i 0;
#X obj 320 190 i 0;
#X obj 291 190 i 0;
#X obj 236 190 i 0;
#X obj 207 190 i 0;
#X obj 152 190 i 0;
#X obj 123 190 i 0;
#X obj 68 190 i 0;
#X obj 39 190 i 0;
#X obj 475 475 prepend cc_number;
#X obj 740 279 OSCroute /cc_number /midi_channel;
#X obj 408 46 OSCroute /cc_number /midi_channel;
#X obj 475 505 prepend /curve/midi_params;
#X obj 475 527 outlet;
#X obj 282 365 ctlout;
#X obj 345 136 inlet;
#X obj 345 216 pack 0 0 0;
#X obj 345 163 t f b b;
#X obj 429 136 inlet;
#X obj 429 216 pack 0 0 0;
#X obj 429 163 t f b b;
#X obj 513 136 inlet;
#X obj 513 216 pack 0 0 0;
#X obj 513 163 t f b b;
#X obj 597 136 inlet;
#X obj 597 216 pack 0 0 0;
#X obj 597 163 t f b b;
#X obj 654 190 i 0;
#X obj 625 190 i 0;
#X obj 570 190 i 0;
#X obj 541 190 i 0;
#X obj 486 190 i 0;
#X obj 457 190 i 0;
#X obj 402 190 i 0;
#X obj 373 190 i 0;
#X obj 333 73 route 1 2 3 4 5 6 7 8;
#X obj 508 70 route 1 2 3 4 5 6 7 8;
#X obj 665 400 i 0;
#X obj 630 400 i 0;
#X obj 595 400 i 0;
#X obj 700 400 i 0;
#X obj 601 364 t b b b b b b b b;
#X msg 595 428 5 \$1;
#X msg 630 428 6 \$1;
#X msg 665 428 7 \$1;
#X msg 700 428 8 \$1;
#X msg 760 428 1 \$1;
#X obj 909 344 bng 15 250 50 0 empty empty empty 17 7 0 10 -262144
-1 -1;
#X msg 795 428 2 \$1;
#X msg 830 428 3 \$1;
#X msg 865 428 4 \$1;
#X obj 830 400 i 0;
#X obj 795 400 i 0;
#X obj 760 400 i 0;
#X obj 865 400 i 0;
#X obj 973 400 i 0;
#X obj 938 400 i 0;
#X obj 903 400 i 0;
#X obj 1008 400 i 0;
#X obj 909 368 t b b b b b b b b;
#X msg 903 428 5 \$1;
#X msg 938 428 6 \$1;
#X msg 973 428 7 \$1;
#X msg 1008 428 8 \$1;
#X obj 783 475 prepend channel;
#X connect 0 0 31 0;
#X connect 1 0 33 0;
#X connect 2 0 32 0;
#X connect 3 0 63 0;
#X connect 4 0 31 0;
#X connect 5 0 31 0;
#X connect 6 0 31 0;
#X connect 7 0 9 0;
#X connect 8 0 36 0;
#X connect 9 0 8 0;
#X connect 9 1 30 0;
#X connect 9 2 29 0;
#X connect 10 0 12 0;
#X connect 11 0 36 0;
#X connect 12 0 11 0;
#X connect 12 1 28 0;
#X connect 12 2 27 0;
#X connect 13 0 15 0;
#X connect 14 0 36 0;
#X connect 15 0 14 0;
#X connect 15 1 26 0;
#X connect 15 2 25 0;
#X connect 16 0 18 0;
#X connect 17 0 36 0;
#X connect 18 0 17 0;
#X connect 18 1 24 0;
#X connect 18 2 23 0;
#X connect 19 0 5 0;
#X connect 20 0 4 0;
#X connect 21 0 0 0;
#X connect 22 0 6 0;
#X connect 23 0 17 2;
#X connect 24 0 17 1;
#X connect 25 0 14 2;
#X connect 26 0 14 1;
#X connect 27 0 11 2;
#X connect 28 0 11 1;
#X connect 29 0 8 2;
#X connect 30 0 8 1;
#X connect 31 0 34 0;
#X connect 32 0 3 0;
#X connect 32 1 69 0;
#X connect 33 0 57 0;
#X connect 33 1 58 0;
#X connect 34 0 35 0;
#X connect 37 0 39 0;
#X connect 38 0 36 0;
#X connect 39 0 38 0;
#X connect 39 1 56 0;
#X connect 39 2 55 0;
#X connect 40 0 42 0;
#X connect 41 0 36 0;
#X connect 42 0 41 0;
#X connect 42 1 54 0;
#X connect 42 2 53 0;
#X connect 43 0 45 0;
#X connect 44 0 36 0;
#X connect 45 0 44 0;
#X connect 45 1 52 0;
#X connect 45 2 51 0;
#X connect 46 0 48 0;
#X connect 47 0 36 0;
#X connect 48 0 47 0;
#X connect 48 1 50 0;
#X connect 48 2 49 0;
#X connect 49 0 47 2;
#X connect 50 0 47 1;
#X connect 51 0 44 2;
#X connect 52 0 44 1;
#X connect 53 0 41 2;
#X connect 54 0 41 1;
#X connect 55 0 38 2;
#X connect 56 0 38 1;
#X connect 57 0 21 1;
#X connect 57 0 30 1;
#X connect 57 1 20 1;
#X connect 57 1 28 1;
#X connect 57 2 19 1;
#X connect 57 2 26 1;
#X connect 57 3 22 1;
#X connect 57 3 24 1;
#X connect 57 4 56 1;
#X connect 57 4 61 1;
#X connect 57 5 54 1;
#X connect 57 5 60 1;
#X connect 57 6 52 1;
#X connect 57 7 50 1;
#X connect 57 7 59 1;
#X connect 57 8 62 1;
#X connect 58 0 29 1;
#X connect 58 0 75 1;
#X connect 58 1 27 1;
#X connect 58 1 74 1;
#X connect 58 2 25 1;
#X connect 58 2 73 1;
#X connect 58 3 23 1;
#X connect 58 3 76 1;
#X connect 58 4 55 1;
#X connect 58 4 79 1;
#X connect 58 5 53 1;
#X connect 58 5 78 1;
#X connect 58 6 51 1;
#X connect 58 6 77 1;
#X connect 58 7 49 1;
#X connect 58 7 80 1;
#X connect 59 0 66 0;
#X connect 60 0 65 0;
#X connect 61 0 64 0;
#X connect 62 0 67 0;
#X connect 63 0 21 0;
#X connect 63 1 20 0;
#X connect 63 2 19 0;
#X connect 63 3 22 0;
#X connect 63 4 61 0;
#X connect 63 5 60 0;
#X connect 63 6 59 0;
#X connect 63 7 62 0;
#X connect 64 0 31 0;
#X connect 65 0 31 0;
#X connect 66 0 31 0;
#X connect 67 0 31 0;
#X connect 68 0 86 0;
#X connect 69 0 81 0;
#X connect 70 0 86 0;
#X connect 71 0 86 0;
#X connect 72 0 86 0;
#X connect 73 0 71 0;
#X connect 74 0 70 0;
#X connect 75 0 68 0;
#X connect 76 0 72 0;
#X connect 77 0 84 0;
#X connect 78 0 83 0;
#X connect 79 0 82 0;
#X connect 80 0 85 0;
#X connect 81 0 75 0;
#X connect 81 1 74 0;
#X connect 81 2 73 0;
#X connect 81 3 76 0;
#X connect 81 4 79 0;
#X connect 81 5 78 0;
#X connect 81 6 77 0;
#X connect 81 7 80 0;
#X connect 82 0 86 0;
#X connect 83 0 86 0;
#X connect 84 0 86 0;
#X connect 85 0 86 0;
#X connect 86 0 34 0;
#X restore 17 301 pd midi-packet;
#X obj 345 29 route track\$1;
#X obj 17 111 OSCroute /curve_play;
#X obj 44 133 OSCroute /curve_length;
#X obj 98 183 OSCroute /curve_length;
#X obj 94 250 OSCroute /midi_params;
#X obj 98 274 OSCroute /midi_params;
#X obj 592 159 table curve\$1-1 259;
#X obj 592 182 table curve\$1-2 259;
#X obj 592 203 table curve\$1-3 259;
#X obj 592 225 table curve\$1-4 259;
#X obj 107 76 OSCroute /control;
#X obj 234 80 OSCroute /edit;
#X obj 374 81 OSCroute /get;
#X obj 459 133 OSCroute /curve;
#X obj 459 339 prepend /curve/gui_curve/edit;
#X obj 592 247 table curve\$1-5 259;
#X obj 592 270 table curve\$1-6 259;
#X obj 592 291 table curve\$1-7 259;
#X obj 592 313 table curve\$1-8 259;
#X obj 249 109 OSCroute /curve_number /curve;
#X obj 334 156 s2l;
#X obj 334 130 prepend symbol;
#X obj 459 254 tabdump;
#X obj 274 291 tabset;
#X obj 281 246 list-apply / 128;
#X obj 459 278 list-apply * 128;
#X obj 478 187 i \$1;
#X obj 478 208 pack 0 0;
#X msg 478 230 set curve\$1-\$2;
#X obj 459 166 t b b f;
#X obj 459 306 l2s;
#X obj 254 354 prepend /curve/curve_lengths;
#X obj 71 157 OSCroute /play_states;
#X obj 179 376 prepend /curve/play_states;
#X obj 17 207 curve_mover \$1;
#X obj 484 50 i \$1;
#X obj 484 98 prepend /main/track_info;
#X msg 484 73 \$1 curve;
#X obj 484 24 inlet;
#X connect 0 0 7 0;
#X connect 2 0 3 0;
#X connect 3 0 5 0;
#X connect 4 0 2 0;
#X connect 4 1 3 1;
#X connect 5 0 30 0;
#X connect 6 0 1 0;
#X connect 7 0 17 0;
#X connect 7 0 18 0;
#X connect 7 0 19 0;
#X connect 8 0 41 0;
#X connect 9 0 41 1;
#X connect 10 0 41 3;
#X connect 11 0 6 8;
#X connect 12 0 6 9;
#X connect 17 0 8 0;
#X connect 18 0 9 0;
#X connect 18 0 11 0;
#X connect 18 0 26 0;
#X connect 19 0 12 0;
#X connect 19 0 10 0;
#X connect 19 0 20 0;
#X connect 19 0 39 0;
#X connect 20 0 36 0;
#X connect 20 0 4 0;
#X connect 21 0 1 0;
#X connect 26 0 4 0;
#X connect 26 1 28 0;
#X connect 27 0 31 0;
#X connect 28 0 27 0;
#X connect 29 0 32 0;
#X connect 31 0 30 0;
#X connect 32 0 37 0;
#X connect 33 0 34 0;
#X connect 34 0 35 0;
#X connect 35 0 29 0;
#X connect 36 0 29 0;
#X connect 36 1 33 0;
#X connect 36 2 34 1;
#X connect 37 0 21 0;
#X connect 38 0 1 0;
#X connect 39 0 41 2;
#X connect 40 0 1 0;
#X connect 41 0 6 0;
#X connect 41 1 6 1;
#X connect 41 2 6 2;
#X connect 41 3 6 3;
#X connect 41 4 6 4;
#X connect 41 5 6 5;
#X connect 41 6 6 6;
#X connect 41 7 6 7;
#X connect 41 8 40 0;
#X connect 41 9 38 0;
#X connect 42 0 44 0;
#X connect 43 0 1 0;
#X connect 44 0 43 0;
#X connect 45 0 42 0;
