#N canvas 164 105 803 554 10;
#X obj 345 8 inlet;
#X obj 224 464 outlet;
#X obj 249 161 i \$1;
#X obj 249 182 pack 0 0;
#X obj 249 139 t b f;
#X msg 249 204 set curve\$1-\$2;
#X obj 345 29 route track\$1;
#X obj 17 111 OSCroute /curve_play;
#X obj 44 133 OSCroute /curve_length;
#X obj 98 183 OSCroute /curve_length;
#X obj 94 250 OSCroute /midi_params;
#X obj 98 274 OSCroute /midi_params;
#X obj 592 159 table curve\$1-1 259;
#X obj 592 182 table curve\$1-2 259;
#X obj 592 203 table curve\$1-3 259;
#X obj 592 225 table curve\$1-4 259;
#X obj 107 76 OSCroute /control;
#X obj 234 80 OSCroute /edit;
#X obj 374 81 OSCroute /get;
#X obj 459 133 OSCroute /curve;
#X obj 459 339 prepend /curve/gui_curve/edit;
#X obj 592 247 table curve\$1-5 259;
#X obj 592 270 table curve\$1-6 259;
#X obj 592 291 table curve\$1-7 259;
#X obj 592 313 table curve\$1-8 259;
#X obj 249 109 OSCroute /curve_number /curve;
#X obj 334 156 s2l;
#X obj 334 130 prepend symbol;
#X obj 459 254 tabdump;
#X obj 274 291 tabset;
#X obj 281 246 list-apply / 128;
#X obj 459 278 list-apply * 128;
#X obj 478 187 i \$1;
#X obj 478 208 pack 0 0;
#X msg 478 230 set curve\$1-\$2;
#X obj 459 166 t b b f;
#X obj 459 306 l2s;
#X obj 254 354 prepend /curve/curve_lengths;
#X obj 71 157 OSCroute /play_states;
#X obj 179 376 prepend /curve/play_states;
#X obj 17 207 curve_mover \$1;
#X obj 484 50 i \$1;
#X obj 484 98 prepend /main/track_info;
#X msg 484 73 \$1 curve;
#X obj 484 24 inlet;
#X obj 7 301 curve_midi_output;
#X connect 0 0 6 0;
#X connect 2 0 3 0;
#X connect 3 0 5 0;
#X connect 4 0 2 0;
#X connect 4 1 3 1;
#X connect 5 0 29 0;
#X connect 6 0 16 0;
#X connect 6 0 17 0;
#X connect 6 0 18 0;
#X connect 7 0 40 0;
#X connect 8 0 40 1;
#X connect 9 0 40 3;
#X connect 10 0 45 8;
#X connect 11 0 45 9;
#X connect 16 0 7 0;
#X connect 17 0 8 0;
#X connect 17 0 10 0;
#X connect 17 0 25 0;
#X connect 18 0 11 0;
#X connect 18 0 9 0;
#X connect 18 0 19 0;
#X connect 18 0 38 0;
#X connect 19 0 35 0;
#X connect 19 0 4 0;
#X connect 20 0 1 0;
#X connect 25 0 4 0;
#X connect 25 1 27 0;
#X connect 26 0 30 0;
#X connect 27 0 26 0;
#X connect 28 0 31 0;
#X connect 30 0 29 0;
#X connect 31 0 36 0;
#X connect 32 0 33 0;
#X connect 33 0 34 0;
#X connect 34 0 28 0;
#X connect 35 0 28 0;
#X connect 35 1 32 0;
#X connect 35 2 33 1;
#X connect 36 0 20 0;
#X connect 37 0 1 0;
#X connect 38 0 40 2;
#X connect 39 0 1 0;
#X connect 40 0 45 0;
#X connect 40 1 45 1;
#X connect 40 2 45 2;
#X connect 40 3 45 3;
#X connect 40 4 45 4;
#X connect 40 5 45 5;
#X connect 40 6 45 6;
#X connect 40 7 45 7;
#X connect 40 8 39 0;
#X connect 40 9 37 0;
#X connect 41 0 43 0;
#X connect 42 0 1 0;
#X connect 43 0 42 0;
#X connect 44 0 41 0;
#X connect 45 0 1 0;
