#N canvas 507 172 583 398 10;
#X obj 100 23 inlet;
#X obj 199 27 inlet;
#X obj 371 26 inlet;
#X obj 405 119 bng 15 250 50 0 empty empty empty 17 7 0 10 -262144
-1 -1;
#X obj 428 119 bng 15 250 50 0 empty empty empty 17 7 0 10 -262144
-1 -1;
#X obj 451 119 bng 15 250 50 0 empty empty empty 17 7 0 10 -262144
-1 -1;
#X obj 474 119 bng 15 250 50 0 empty empty empty 17 7 0 10 -262144
-1 -1;
#X obj 413 241 outlet;
#X obj 100 136 outlet;
#X obj 118 186 outlet;
#X obj 137 240 outlet;
#X obj 156 295 outlet;
#X obj 405 164 i 1;
#X obj 428 164 i 1;
#X obj 451 164 i 1;
#X obj 474 164 i 1;
#X obj 199 83 route 1 2 3 4;
#X obj 413 204 funnel 5;
#X obj 100 83 route 1 2 3 4;
#X obj 371 85 t b b b b;
#X obj 371 59 route 0 1 2 3 4;
#X obj 100 112 wavetableLFO \$1 1;
#X obj 118 161 wavetableLFO \$1 2;
#X obj 137 213 wavetableLFO \$1 3;
#X obj 156 269 wavetableLFO \$1 4;
#X connect 0 0 18 0;
#X connect 1 0 16 0;
#X connect 2 0 20 0;
#X connect 3 0 12 0;
#X connect 4 0 13 0;
#X connect 5 0 14 0;
#X connect 6 0 15 0;
#X connect 12 0 17 1;
#X connect 13 0 17 2;
#X connect 14 0 17 3;
#X connect 15 0 17 4;
#X connect 16 0 21 1;
#X connect 16 0 12 1;
#X connect 16 1 13 1;
#X connect 16 1 22 1;
#X connect 16 2 14 1;
#X connect 16 2 23 1;
#X connect 16 3 15 1;
#X connect 16 3 24 1;
#X connect 17 0 7 0;
#X connect 18 0 21 0;
#X connect 18 1 22 0;
#X connect 18 2 23 0;
#X connect 18 3 24 0;
#X connect 19 0 3 0;
#X connect 19 1 4 0;
#X connect 19 2 5 0;
#X connect 19 3 6 0;
#X connect 20 0 19 0;
#X connect 20 1 3 0;
#X connect 20 2 4 0;
#X connect 20 3 5 0;
#X connect 20 4 6 0;
#X connect 21 0 8 0;
#X connect 22 0 9 0;
#X connect 23 0 10 0;
#X connect 24 0 11 0;
