#N canvas 122 54 803 554 10;
#X msg 551 237 256;
#X obj 551 303 f;
#X obj 577 303 + 1;
#X obj 551 268 until;
#X obj 551 330 t f f;
#X msg 599 267 0;
#X obj 345 8 inlet;
#X obj 388 112 unpack 0 0 0;
#X obj 442 226 i;
#X obj 551 412 i;
#X obj 416 503 outlet;
#X obj 632 267 i \$1;
#X obj 632 297 pack 0 0;
#X obj 632 241 t b f;
#X obj 345 30 route cc_track\$1;
#X obj 388 205 i \$1;
#X obj 388 226 pack 0 0;
#X obj 388 159 change;
#X obj 388 135 t b f;
#X obj 388 183 t b f;
#X obj 551 205 t b b f;
#X obj 551 438 pack 0 0;
#X obj 551 385 t b f;
#X obj 551 462 prepend gui_curve;
#X obj 571 155 t b b;
#X obj 398 396 prepend gui_curve_number;
#X obj 388 89 route curve;
#X obj 551 111 route curve active_curve;
#X obj 17 141 bng 15 250 50 0 empty empty empty 17 7 0 10 -262144 -1
-1;
#X obj 17 498 outlet;
#X obj 17 115 r midi_clock;
#X obj 345 52 route control edit get;
#X obj 71 163 route curve_length;
#X obj 98 185 route curve_length;
#X obj 257 397 prepend curve_length;
#X obj 81 354 route midi_params;
#X obj 98 382 route midi_params;
#X obj 240 250 table curve\$1-1 256;
#X obj 240 272 table curve\$1-2 256;
#X obj 240 294 table curve\$1-3 256;
#X obj 240 316 table curve\$1-4 256;
#X obj 17 230 tabread curve\$1-1;
#X obj 33 252 tabread curve\$1-1;
#X obj 49 274 tabread curve\$1-1;
#X obj 65 297 tabread curve\$1-1;
#X msg 388 248 set curve\$1-\$2;
#X msg 632 323 set curve\$1-\$2;
#X obj 388 270 tabwrite curve;
#X obj 551 357 tabread curve;
#X obj 44 142 route curve_play;
#N canvas 296 113 697 511 curve_mover 1;
#X obj 82 116 bng 15 250 50 0 empty empty empty 17 7 0 10 -262144 -1
-1;
#X obj 82 40 inlet;
#X obj 127 40 inlet;
#X obj 236 51 inlet;
#X obj 358 89 inlet;
#X obj 354 201 bng 15 250 50 0 empty empty empty 17 7 0 10 -262144
-1 -1;
#X obj 377 201 bng 15 250 50 0 empty empty empty 17 7 0 10 -262144
-1 -1;
#X obj 400 201 bng 15 250 50 0 empty empty empty 17 7 0 10 -262144
-1 -1;
#X obj 423 201 bng 15 250 50 0 empty empty empty 17 7 0 10 -262144
-1 -1;
#X obj 362 323 outlet;
#X obj 114 225 outlet;
#X obj 114 174 steps;
#X obj 158 225 outlet;
#X obj 202 225 outlet;
#X obj 246 225 outlet;
#X obj 354 246 i 1;
#X obj 377 246 i 1;
#X obj 400 246 i 1;
#X obj 423 246 i 1;
#X obj 236 90 route 1 2 3 4;
#X obj 358 167 route 1 2 3 4;
#X obj 362 286 funnel 5;
#X obj 127 100 route 1 2 3 4;
#X obj 158 174 steps;
#X obj 202 174 steps;
#X obj 246 174 steps;
#X connect 0 0 11 0;
#X connect 0 0 23 0;
#X connect 0 0 24 0;
#X connect 0 0 25 0;
#X connect 1 0 0 0;
#X connect 2 0 22 0;
#X connect 3 0 19 0;
#X connect 4 0 20 0;
#X connect 5 0 15 0;
#X connect 6 0 16 0;
#X connect 7 0 17 0;
#X connect 8 0 18 0;
#X connect 11 0 10 0;
#X connect 11 1 15 1;
#X connect 15 0 21 1;
#X connect 16 0 21 2;
#X connect 17 0 21 3;
#X connect 18 0 21 4;
#X connect 19 0 11 2;
#X connect 19 1 23 2;
#X connect 19 2 24 2;
#X connect 19 3 25 2;
#X connect 20 0 5 0;
#X connect 20 1 6 0;
#X connect 20 2 7 0;
#X connect 20 3 8 0;
#X connect 21 0 9 0;
#X connect 22 0 11 1;
#X connect 22 1 23 1;
#X connect 22 2 24 1;
#X connect 22 3 25 1;
#X connect 23 0 12 0;
#X connect 23 1 16 1;
#X connect 24 0 13 0;
#X connect 24 1 17 1;
#X connect 25 0 14 0;
#X connect 25 1 18 1;
#X restore 17 207 pd curve_mover;
#N canvas 213 148 821 529 midi-packet 0;
#X msg 573 237 1 \$1;
#X obj 301 16 inlet;
#X obj 556 28 inlet;
#X obj 556 84 bng 15 250 50 0 empty empty empty 17 7 0 10 -262144 -1
-1;
#X msg 608 237 2 \$1;
#X msg 643 237 3 \$1;
#X msg 678 237 4 \$1;
#X obj 596 331 outlet;
#X obj 170 309 outlet;
#X obj 556 108 t b b b b;
#X obj 301 68 route 1 2 3 4;
#X obj 301 44 route cc_numbers midi_channel;
#X obj 556 53 route cc_numbers midi_channel;
#X obj 31 135 inlet;
#X obj 641 84 bng 15 250 50 0 empty empty empty 17 7 0 10 -262144 -1
-1;
#X obj 440 277 prepend midi_channel;
#X obj 31 215 pack 0 0 0;
#X obj 31 162 t f b b;
#X obj 115 135 inlet;
#X obj 115 215 pack 0 0 0;
#X obj 115 162 t f b b;
#X obj 199 135 inlet;
#X obj 199 215 pack 0 0 0;
#X obj 199 162 t f b b;
#X obj 283 135 inlet;
#X obj 283 215 pack 0 0 0;
#X obj 283 162 t f b b;
#X obj 596 285 prepend cc_numbers;
#X obj 643 209 i 0;
#X obj 608 209 i 0;
#X obj 573 209 i 0;
#X obj 678 209 i 0;
#X obj 340 189 i 0;
#X obj 311 189 i 0;
#X obj 256 189 i 0;
#X obj 227 189 i 0;
#X obj 172 189 i 0;
#X obj 143 189 i 0;
#X obj 88 189 i 0;
#X obj 59 189 i 0;
#X obj 515 214 i 0;
#X connect 0 0 27 0;
#X connect 1 0 11 0;
#X connect 2 0 12 0;
#X connect 3 0 9 0;
#X connect 4 0 27 0;
#X connect 5 0 27 0;
#X connect 6 0 27 0;
#X connect 9 0 30 0;
#X connect 9 1 29 0;
#X connect 9 2 28 0;
#X connect 9 3 31 0;
#X connect 10 0 30 1;
#X connect 10 0 39 1;
#X connect 10 1 29 1;
#X connect 10 1 37 1;
#X connect 10 2 28 1;
#X connect 10 2 35 1;
#X connect 10 3 31 1;
#X connect 10 3 33 1;
#X connect 11 0 10 0;
#X connect 11 2 32 1;
#X connect 11 2 34 1;
#X connect 11 2 36 1;
#X connect 11 2 38 1;
#X connect 11 2 40 1;
#X connect 12 0 3 0;
#X connect 12 1 14 0;
#X connect 13 0 17 0;
#X connect 14 0 40 0;
#X connect 15 0 7 0;
#X connect 16 0 8 0;
#X connect 17 0 16 0;
#X connect 17 1 39 0;
#X connect 17 2 38 0;
#X connect 18 0 20 0;
#X connect 19 0 8 0;
#X connect 20 0 19 0;
#X connect 20 1 37 0;
#X connect 20 2 36 0;
#X connect 21 0 23 0;
#X connect 22 0 8 0;
#X connect 23 0 22 0;
#X connect 23 1 35 0;
#X connect 23 2 34 0;
#X connect 24 0 26 0;
#X connect 25 0 8 0;
#X connect 26 0 25 0;
#X connect 26 1 33 0;
#X connect 26 2 32 0;
#X connect 27 0 7 0;
#X connect 28 0 5 0;
#X connect 29 0 4 0;
#X connect 30 0 0 0;
#X connect 31 0 6 0;
#X connect 32 0 25 2;
#X connect 33 0 25 1;
#X connect 34 0 22 2;
#X connect 35 0 22 1;
#X connect 36 0 19 2;
#X connect 37 0 19 1;
#X connect 38 0 16 2;
#X connect 39 0 16 1;
#X connect 40 0 15 0;
#X restore 17 452 pd midi-packet;
#X obj 585 135 bng 15 250 50 0 empty empty empty 17 7 0 10 -262144
-1 -1;
#X obj 551 182 i 1;
#X obj 510 191 i 1;
#X connect 0 0 3 0;
#X connect 1 0 2 0;
#X connect 1 0 4 0;
#X connect 2 0 1 1;
#X connect 3 0 1 0;
#X connect 4 0 48 0;
#X connect 4 1 9 1;
#X connect 5 0 1 1;
#X connect 6 0 14 0;
#X connect 7 0 18 0;
#X connect 7 1 47 1;
#X connect 7 2 8 1;
#X connect 8 0 47 0;
#X connect 9 0 21 0;
#X connect 11 0 12 0;
#X connect 12 0 46 0;
#X connect 13 0 11 0;
#X connect 13 1 12 1;
#X connect 14 0 31 0;
#X connect 15 0 16 0;
#X connect 16 0 45 0;
#X connect 17 0 19 0;
#X connect 18 0 8 0;
#X connect 18 1 17 0;
#X connect 19 0 15 0;
#X connect 19 1 16 1;
#X connect 20 0 0 0;
#X connect 20 1 5 0;
#X connect 20 2 13 0;
#X connect 21 0 23 0;
#X connect 22 0 9 0;
#X connect 22 1 21 1;
#X connect 23 0 10 0;
#X connect 24 0 53 0;
#X connect 24 1 54 0;
#X connect 25 0 10 0;
#X connect 26 0 7 0;
#X connect 27 0 53 0;
#X connect 27 0 54 1;
#X connect 27 1 52 0;
#X connect 28 0 50 0;
#X connect 30 0 28 0;
#X connect 31 0 49 0;
#X connect 31 1 26 0;
#X connect 31 1 32 0;
#X connect 31 1 35 0;
#X connect 31 2 27 0;
#X connect 31 2 33 0;
#X connect 31 2 36 0;
#X connect 32 0 50 2;
#X connect 33 0 50 3;
#X connect 34 0 10 0;
#X connect 35 0 51 4;
#X connect 36 0 51 5;
#X connect 41 0 51 0;
#X connect 42 0 51 1;
#X connect 43 0 51 2;
#X connect 44 0 51 3;
#X connect 45 0 47 0;
#X connect 46 0 48 0;
#X connect 48 0 22 0;
#X connect 49 0 50 1;
#X connect 50 0 41 0;
#X connect 50 1 42 0;
#X connect 50 2 43 0;
#X connect 50 3 44 0;
#X connect 50 4 34 0;
#X connect 51 0 29 0;
#X connect 51 1 10 0;
#X connect 52 0 24 0;
#X connect 53 0 20 0;
#X connect 54 0 25 0;
