#N canvas 106 176 931 522 10;
#X obj 43 29 inlet;
#X obj 199 27 inlet;
#X obj 588 18 inlet;
#X obj 558 138 bng 15 250 50 0 empty empty empty 17 7 0 10 -262144
-1 -1;
#X obj 581 138 bng 15 250 50 0 empty empty empty 17 7 0 10 -262144
-1 -1;
#X obj 604 138 bng 15 250 50 0 empty empty empty 17 7 0 10 -262144
-1 -1;
#X obj 627 138 bng 15 250 50 0 empty empty empty 17 7 0 10 -262144
-1 -1;
#X obj 558 252 outlet;
#X obj 43 123 outlet;
#X obj 58 163 outlet;
#X obj 73 203 outlet;
#X obj 89 245 outlet;
#X obj 558 183 i 1;
#X obj 581 183 i 1;
#X obj 604 183 i 1;
#X obj 627 183 i 1;
#X obj 43 74 route 1 2 3 4 5 6 7 8;
#X obj 199 67 route 1 2 3 4 5 6 7 8;
#X obj 588 50 route 0 1 2 3 4 5 6 7 8;
#X obj 564 78 t b;
#X obj 650 138 bng 15 250 50 0 empty empty empty 17 7 0 10 -262144
-1 -1;
#X obj 673 138 bng 15 250 50 0 empty empty empty 17 7 0 10 -262144
-1 -1;
#X obj 696 138 bng 15 250 50 0 empty empty empty 17 7 0 10 -262144
-1 -1;
#X obj 719 138 bng 15 250 50 0 empty empty empty 17 7 0 10 -262144
-1 -1;
#X obj 650 183 i 1;
#X obj 673 183 i 1;
#X obj 696 183 i 1;
#X obj 719 183 i 1;
#X obj 104 288 outlet;
#X obj 119 328 outlet;
#X obj 135 368 outlet;
#X obj 150 410 outlet;
#X obj 360 242 bng 15 250 50 0 empty empty empty 17 7 0 10 -262144
-1 -1;
#X obj 383 242 bng 15 250 50 0 empty empty empty 17 7 0 10 -262144
-1 -1;
#X obj 406 242 bng 15 250 50 0 empty empty empty 17 7 0 10 -262144
-1 -1;
#X obj 429 242 bng 15 250 50 0 empty empty empty 17 7 0 10 -262144
-1 -1;
#X obj 425 394 outlet;
#X obj 366 182 t b;
#X obj 452 242 bng 15 250 50 0 empty empty empty 17 7 0 10 -262144
-1 -1;
#X obj 475 242 bng 15 250 50 0 empty empty empty 17 7 0 10 -262144
-1 -1;
#X obj 498 242 bng 15 250 50 0 empty empty empty 17 7 0 10 -262144
-1 -1;
#X obj 521 242 bng 15 250 50 0 empty empty empty 17 7 0 10 -262144
-1 -1;
#X obj 366 149 inlet;
#X obj 360 287 i 0;
#X obj 383 287 i 0;
#X obj 406 287 i 0;
#X obj 429 287 i 0;
#X obj 452 287 i 0;
#X obj 475 287 i 0;
#X obj 498 287 i 0;
#X obj 521 287 i 0;
#X msg 360 329 1 \$1;
#X msg 393 329 2 \$1;
#X msg 425 329 3 \$1;
#X msg 458 329 4 \$1;
#X msg 490 329 5 \$1;
#X msg 523 329 6 \$1;
#X msg 555 329 7 \$1;
#X msg 588 329 8 \$1;
#X msg 558 219 1 \$1;
#X msg 591 219 2 \$1;
#X msg 623 219 3 \$1;
#X msg 656 219 4 \$1;
#X msg 688 219 5 \$1;
#X msg 721 219 6 \$1;
#X msg 753 219 7 \$1;
#X msg 786 219 8 \$1;
#X obj 43 103 curve_wavetableLFO \$1 1;
#X obj 58 143 curve_wavetableLFO \$1 2;
#X obj 73 183 curve_wavetableLFO \$1 3;
#X obj 89 224 curve_wavetableLFO \$1 4;
#X obj 104 268 curve_wavetableLFO \$1 1;
#X obj 119 308 curve_wavetableLFO \$1 2;
#X obj 135 348 curve_wavetableLFO \$1 3;
#X obj 150 389 curve_wavetableLFO \$1 4;
#X connect 0 0 16 0;
#X connect 1 0 17 0;
#X connect 2 0 18 0;
#X connect 3 0 12 0;
#X connect 4 0 13 0;
#X connect 5 0 14 0;
#X connect 6 0 15 0;
#X connect 12 0 59 0;
#X connect 13 0 60 0;
#X connect 14 0 61 0;
#X connect 15 0 62 0;
#X connect 16 0 43 1;
#X connect 16 0 67 0;
#X connect 16 1 44 1;
#X connect 16 1 68 0;
#X connect 16 2 45 1;
#X connect 16 2 69 0;
#X connect 16 3 46 1;
#X connect 16 3 70 0;
#X connect 16 4 47 1;
#X connect 16 4 71 0;
#X connect 16 5 48 1;
#X connect 16 5 72 0;
#X connect 16 6 49 1;
#X connect 16 6 73 0;
#X connect 16 7 50 1;
#X connect 16 7 74 0;
#X connect 17 0 12 1;
#X connect 17 0 67 1;
#X connect 17 1 13 1;
#X connect 17 1 68 1;
#X connect 17 2 14 1;
#X connect 17 2 69 1;
#X connect 17 3 15 1;
#X connect 17 3 70 1;
#X connect 17 4 24 1;
#X connect 17 4 71 1;
#X connect 17 5 25 1;
#X connect 17 5 72 1;
#X connect 17 6 26 1;
#X connect 17 6 73 1;
#X connect 17 7 27 1;
#X connect 17 7 74 1;
#X connect 18 0 19 0;
#X connect 18 1 3 0;
#X connect 18 2 4 0;
#X connect 18 3 5 0;
#X connect 18 4 6 0;
#X connect 18 5 20 0;
#X connect 18 6 21 0;
#X connect 18 7 22 0;
#X connect 18 8 23 0;
#X connect 19 0 3 0;
#X connect 19 0 4 0;
#X connect 19 0 5 0;
#X connect 19 0 6 0;
#X connect 19 0 20 0;
#X connect 19 0 21 0;
#X connect 19 0 22 0;
#X connect 19 0 23 0;
#X connect 20 0 24 0;
#X connect 21 0 25 0;
#X connect 22 0 26 0;
#X connect 23 0 27 0;
#X connect 24 0 63 0;
#X connect 25 0 64 0;
#X connect 26 0 65 0;
#X connect 27 0 66 0;
#X connect 32 0 43 0;
#X connect 33 0 44 0;
#X connect 34 0 45 0;
#X connect 35 0 46 0;
#X connect 37 0 32 0;
#X connect 37 0 33 0;
#X connect 37 0 34 0;
#X connect 37 0 35 0;
#X connect 37 0 38 0;
#X connect 37 0 39 0;
#X connect 37 0 40 0;
#X connect 37 0 41 0;
#X connect 38 0 47 0;
#X connect 39 0 48 0;
#X connect 40 0 49 0;
#X connect 41 0 50 0;
#X connect 42 0 37 0;
#X connect 43 0 51 0;
#X connect 44 0 52 0;
#X connect 45 0 53 0;
#X connect 46 0 54 0;
#X connect 47 0 55 0;
#X connect 48 0 56 0;
#X connect 49 0 57 0;
#X connect 50 0 58 0;
#X connect 51 0 36 0;
#X connect 52 0 36 0;
#X connect 53 0 36 0;
#X connect 54 0 36 0;
#X connect 55 0 36 0;
#X connect 56 0 36 0;
#X connect 57 0 36 0;
#X connect 58 0 36 0;
#X connect 59 0 7 0;
#X connect 60 0 7 0;
#X connect 61 0 7 0;
#X connect 62 0 7 0;
#X connect 63 0 7 0;
#X connect 64 0 7 0;
#X connect 65 0 7 0;
#X connect 66 0 7 0;
#X connect 67 0 8 0;
#X connect 68 0 9 0;
#X connect 69 0 10 0;
#X connect 70 0 11 0;
#X connect 71 0 28 0;
#X connect 72 0 29 0;
#X connect 73 0 30 0;
#X connect 74 0 31 0;
