#N canvas 106 176 931 522 10;
#X obj 43 29 inlet;
#X obj 199 27 inlet;
#X obj 588 18 inlet;
#X obj 558 138 bng 15 250 50 0 empty empty empty 17 7 0 10 -262144
-1 -1;
#X obj 581 138 bng 15 250 50 0 empty empty empty 17 7 0 10 -262144
-1 -1;
#X obj 604 138 bng 15 250 50 0 empty empty empty 17 7 0 10 -262144
-1 -1;
#X obj 627 138 bng 15 250 50 0 empty empty empty 17 7 0 10 -262144
-1 -1;
#X obj 560 255 outlet;
#X obj 43 123 outlet;
#X obj 58 163 outlet;
#X obj 73 203 outlet;
#X obj 89 245 outlet;
#X obj 558 183 i 1;
#X obj 581 183 i 1;
#X obj 604 183 i 1;
#X obj 627 183 i 1;
#X obj 43 103 wavetableLFO \$1 1;
#X obj 43 74 route 1 2 3 4 5 6 7 8;
#X obj 199 67 route 1 2 3 4 5 6 7 8;
#X obj 588 50 route 0 1 2 3 4 5 6 7 8;
#X obj 564 78 t b;
#X obj 560 225 funnel 9;
#X obj 650 138 bng 15 250 50 0 empty empty empty 17 7 0 10 -262144
-1 -1;
#X obj 673 138 bng 15 250 50 0 empty empty empty 17 7 0 10 -262144
-1 -1;
#X obj 696 138 bng 15 250 50 0 empty empty empty 17 7 0 10 -262144
-1 -1;
#X obj 719 138 bng 15 250 50 0 empty empty empty 17 7 0 10 -262144
-1 -1;
#X obj 650 183 i 1;
#X obj 673 183 i 1;
#X obj 696 183 i 1;
#X obj 719 183 i 1;
#X obj 104 288 outlet;
#X obj 119 328 outlet;
#X obj 135 368 outlet;
#X obj 150 410 outlet;
#X obj 360 242 bng 15 250 50 0 empty empty empty 17 7 0 10 -262144
-1 -1;
#X obj 383 242 bng 15 250 50 0 empty empty empty 17 7 0 10 -262144
-1 -1;
#X obj 406 242 bng 15 250 50 0 empty empty empty 17 7 0 10 -262144
-1 -1;
#X obj 429 242 bng 15 250 50 0 empty empty empty 17 7 0 10 -262144
-1 -1;
#X obj 362 359 outlet;
#X obj 366 182 t b;
#X obj 362 329 funnel 9;
#X obj 452 242 bng 15 250 50 0 empty empty empty 17 7 0 10 -262144
-1 -1;
#X obj 475 242 bng 15 250 50 0 empty empty empty 17 7 0 10 -262144
-1 -1;
#X obj 498 242 bng 15 250 50 0 empty empty empty 17 7 0 10 -262144
-1 -1;
#X obj 521 242 bng 15 250 50 0 empty empty empty 17 7 0 10 -262144
-1 -1;
#X obj 366 149 inlet;
#X obj 360 287 i 0;
#X obj 383 287 i 0;
#X obj 406 287 i 0;
#X obj 429 287 i 0;
#X obj 452 287 i 0;
#X obj 475 287 i 0;
#X obj 498 287 i 0;
#X obj 521 287 i 0;
#X obj 58 143 wavetableLFO \$1 2;
#X obj 73 183 wavetableLFO \$1 3;
#X obj 89 224 wavetableLFO \$1 4;
#X obj 104 268 wavetableLFO \$1 1;
#X obj 119 308 wavetableLFO \$1 2;
#X obj 135 348 wavetableLFO \$1 3;
#X obj 150 389 wavetableLFO \$1 4;
#X connect 0 0 17 0;
#X connect 1 0 18 0;
#X connect 2 0 19 0;
#X connect 3 0 12 0;
#X connect 4 0 13 0;
#X connect 5 0 14 0;
#X connect 6 0 15 0;
#X connect 12 0 21 1;
#X connect 13 0 21 2;
#X connect 14 0 21 3;
#X connect 15 0 21 4;
#X connect 16 0 8 0;
#X connect 17 0 16 0;
#X connect 17 0 46 1;
#X connect 17 1 47 1;
#X connect 17 1 54 0;
#X connect 17 2 48 1;
#X connect 17 2 55 0;
#X connect 17 3 49 1;
#X connect 17 3 56 0;
#X connect 17 4 50 1;
#X connect 17 4 57 0;
#X connect 17 5 51 1;
#X connect 17 5 58 0;
#X connect 17 6 52 1;
#X connect 17 6 59 0;
#X connect 17 7 53 1;
#X connect 17 7 60 0;
#X connect 18 0 16 1;
#X connect 18 0 12 1;
#X connect 18 1 13 1;
#X connect 18 1 54 1;
#X connect 18 2 14 1;
#X connect 18 2 55 1;
#X connect 18 3 15 1;
#X connect 18 3 56 1;
#X connect 18 4 26 1;
#X connect 18 4 57 1;
#X connect 18 5 27 1;
#X connect 18 5 58 1;
#X connect 18 6 28 1;
#X connect 18 6 59 1;
#X connect 18 7 29 1;
#X connect 18 7 60 1;
#X connect 19 0 20 0;
#X connect 19 1 3 0;
#X connect 19 2 4 0;
#X connect 19 3 5 0;
#X connect 19 4 6 0;
#X connect 19 5 22 0;
#X connect 19 6 23 0;
#X connect 19 7 24 0;
#X connect 19 8 25 0;
#X connect 20 0 3 0;
#X connect 20 0 4 0;
#X connect 20 0 5 0;
#X connect 20 0 6 0;
#X connect 20 0 22 0;
#X connect 20 0 23 0;
#X connect 20 0 24 0;
#X connect 20 0 25 0;
#X connect 21 0 7 0;
#X connect 22 0 26 0;
#X connect 23 0 27 0;
#X connect 24 0 28 0;
#X connect 25 0 29 0;
#X connect 26 0 21 5;
#X connect 27 0 21 6;
#X connect 28 0 21 7;
#X connect 29 0 21 8;
#X connect 34 0 46 0;
#X connect 35 0 47 0;
#X connect 36 0 48 0;
#X connect 37 0 49 0;
#X connect 39 0 34 0;
#X connect 39 0 35 0;
#X connect 39 0 36 0;
#X connect 39 0 37 0;
#X connect 39 0 41 0;
#X connect 39 0 42 0;
#X connect 39 0 43 0;
#X connect 39 0 44 0;
#X connect 40 0 38 0;
#X connect 41 0 50 0;
#X connect 42 0 51 0;
#X connect 43 0 52 0;
#X connect 44 0 53 0;
#X connect 45 0 39 0;
#X connect 46 0 40 1;
#X connect 47 0 40 2;
#X connect 48 0 40 3;
#X connect 49 0 40 4;
#X connect 50 0 40 5;
#X connect 51 0 40 6;
#X connect 52 0 40 7;
#X connect 53 0 40 8;
#X connect 54 0 9 0;
#X connect 55 0 10 0;
#X connect 56 0 11 0;
#X connect 57 0 30 0;
#X connect 58 0 31 0;
#X connect 59 0 32 0;
#X connect 60 0 33 0;
