#N canvas 0 0 1105 617 10;
#X msg 462 438 1 \$1;
#X obj 754 16 inlet;
#X obj 867 203 inlet;
#X obj 611 350 bng 15 250 50 0 empty empty empty 17 7 0 10 -262144
-1 -1;
#X msg 497 438 2 \$1;
#X msg 532 438 3 \$1;
#X msg 567 438 4 \$1;
#X obj 21 146 inlet;
#X obj 21 226 pack 0 0 0;
#X obj 21 173 t f b b;
#X obj 105 146 inlet;
#X obj 105 226 pack 0 0 0;
#X obj 105 173 t f b b;
#X obj 189 146 inlet;
#X obj 189 226 pack 0 0 0;
#X obj 189 173 t f b b;
#X obj 273 146 inlet;
#X obj 273 226 pack 0 0 0;
#X obj 273 173 t f b b;
#X obj 532 410 i 0;
#X obj 497 410 i 0;
#X obj 462 410 i 0;
#X obj 567 410 i 0;
#X obj 330 200 i 0;
#X obj 301 200 i 0;
#X obj 246 200 i 0;
#X obj 217 200 i 0;
#X obj 162 200 i 0;
#X obj 133 200 i 0;
#X obj 78 200 i 0;
#X obj 49 200 i 0;
#X obj 485 485 prepend cc_number;
#X obj 750 289 OSCroute /cc_number /midi_channel;
#X obj 418 56 OSCroute /cc_number /midi_channel;
#X obj 485 515 prepend /curve/midi_params;
#X obj 485 537 outlet;
#X obj 292 375 ctlout;
#X obj 355 146 inlet;
#X obj 355 226 pack 0 0 0;
#X obj 355 173 t f b b;
#X obj 439 146 inlet;
#X obj 439 226 pack 0 0 0;
#X obj 439 173 t f b b;
#X obj 523 146 inlet;
#X obj 523 226 pack 0 0 0;
#X obj 523 173 t f b b;
#X obj 607 146 inlet;
#X obj 607 226 pack 0 0 0;
#X obj 607 173 t f b b;
#X obj 664 200 i 0;
#X obj 635 200 i 0;
#X obj 580 200 i 0;
#X obj 551 200 i 0;
#X obj 496 200 i 0;
#X obj 467 200 i 0;
#X obj 412 200 i 0;
#X obj 383 200 i 0;
#X obj 343 83 route 1 2 3 4 5 6 7 8;
#X obj 518 80 route 1 2 3 4 5 6 7 8;
#X obj 675 410 i 0;
#X obj 640 410 i 0;
#X obj 605 410 i 0;
#X obj 710 410 i 0;
#X obj 611 374 t b b b b b b b b;
#X msg 605 438 5 \$1;
#X msg 640 438 6 \$1;
#X msg 675 438 7 \$1;
#X msg 710 438 8 \$1;
#X msg 770 438 1 \$1;
#X obj 919 354 bng 15 250 50 0 empty empty empty 17 7 0 10 -262144
-1 -1;
#X msg 805 438 2 \$1;
#X msg 840 438 3 \$1;
#X msg 875 438 4 \$1;
#X obj 840 410 i 0;
#X obj 805 410 i 0;
#X obj 770 410 i 0;
#X obj 875 410 i 0;
#X obj 983 410 i 0;
#X obj 948 410 i 0;
#X obj 913 410 i 0;
#X obj 1018 410 i 0;
#X obj 919 378 t b b b b b b b b;
#X msg 913 438 5 \$1;
#X msg 948 438 6 \$1;
#X msg 983 438 7 \$1;
#X msg 1018 438 8 \$1;
#X obj 793 485 prepend channel;
#X connect 0 0 31 0;
#X connect 1 0 33 0;
#X connect 2 0 32 0;
#X connect 3 0 63 0;
#X connect 4 0 31 0;
#X connect 5 0 31 0;
#X connect 6 0 31 0;
#X connect 7 0 9 0;
#X connect 8 0 36 0;
#X connect 9 0 8 0;
#X connect 9 1 30 0;
#X connect 9 2 29 0;
#X connect 10 0 12 0;
#X connect 11 0 36 0;
#X connect 12 0 11 0;
#X connect 12 1 28 0;
#X connect 12 2 27 0;
#X connect 13 0 15 0;
#X connect 14 0 36 0;
#X connect 15 0 14 0;
#X connect 15 1 26 0;
#X connect 15 2 25 0;
#X connect 16 0 18 0;
#X connect 17 0 36 0;
#X connect 18 0 17 0;
#X connect 18 1 24 0;
#X connect 18 2 23 0;
#X connect 19 0 5 0;
#X connect 20 0 4 0;
#X connect 21 0 0 0;
#X connect 22 0 6 0;
#X connect 23 0 17 2;
#X connect 24 0 17 1;
#X connect 25 0 14 2;
#X connect 26 0 14 1;
#X connect 27 0 11 2;
#X connect 28 0 11 1;
#X connect 29 0 8 2;
#X connect 30 0 8 1;
#X connect 31 0 34 0;
#X connect 32 0 3 0;
#X connect 32 1 69 0;
#X connect 33 0 57 0;
#X connect 33 1 58 0;
#X connect 34 0 35 0;
#X connect 37 0 39 0;
#X connect 38 0 36 0;
#X connect 39 0 38 0;
#X connect 39 1 56 0;
#X connect 39 2 55 0;
#X connect 40 0 42 0;
#X connect 41 0 36 0;
#X connect 42 0 41 0;
#X connect 42 1 54 0;
#X connect 42 2 53 0;
#X connect 43 0 45 0;
#X connect 44 0 36 0;
#X connect 45 0 44 0;
#X connect 45 1 52 0;
#X connect 45 2 51 0;
#X connect 46 0 48 0;
#X connect 47 0 36 0;
#X connect 48 0 47 0;
#X connect 48 1 50 0;
#X connect 48 2 49 0;
#X connect 49 0 47 2;
#X connect 50 0 47 1;
#X connect 51 0 44 2;
#X connect 52 0 44 1;
#X connect 53 0 41 2;
#X connect 54 0 41 1;
#X connect 55 0 38 2;
#X connect 56 0 38 1;
#X connect 57 0 21 1;
#X connect 57 0 30 1;
#X connect 57 1 20 1;
#X connect 57 1 28 1;
#X connect 57 2 19 1;
#X connect 57 2 26 1;
#X connect 57 3 22 1;
#X connect 57 3 24 1;
#X connect 57 4 56 1;
#X connect 57 4 61 1;
#X connect 57 5 54 1;
#X connect 57 5 60 1;
#X connect 57 6 52 1;
#X connect 57 7 50 1;
#X connect 57 7 59 1;
#X connect 57 8 62 1;
#X connect 58 0 29 1;
#X connect 58 0 75 1;
#X connect 58 1 27 1;
#X connect 58 1 74 1;
#X connect 58 2 25 1;
#X connect 58 2 73 1;
#X connect 58 3 23 1;
#X connect 58 3 76 1;
#X connect 58 4 55 1;
#X connect 58 4 79 1;
#X connect 58 5 53 1;
#X connect 58 5 78 1;
#X connect 58 6 51 1;
#X connect 58 6 77 1;
#X connect 58 7 49 1;
#X connect 58 7 80 1;
#X connect 59 0 66 0;
#X connect 60 0 65 0;
#X connect 61 0 64 0;
#X connect 62 0 67 0;
#X connect 63 0 21 0;
#X connect 63 1 20 0;
#X connect 63 2 19 0;
#X connect 63 3 22 0;
#X connect 63 4 61 0;
#X connect 63 5 60 0;
#X connect 63 6 59 0;
#X connect 63 7 62 0;
#X connect 64 0 31 0;
#X connect 65 0 31 0;
#X connect 66 0 31 0;
#X connect 67 0 31 0;
#X connect 68 0 86 0;
#X connect 69 0 81 0;
#X connect 70 0 86 0;
#X connect 71 0 86 0;
#X connect 72 0 86 0;
#X connect 73 0 71 0;
#X connect 74 0 70 0;
#X connect 75 0 68 0;
#X connect 76 0 72 0;
#X connect 77 0 84 0;
#X connect 78 0 83 0;
#X connect 79 0 82 0;
#X connect 80 0 85 0;
#X connect 81 0 75 0;
#X connect 81 1 74 0;
#X connect 81 2 73 0;
#X connect 81 3 76 0;
#X connect 81 4 79 0;
#X connect 81 5 78 0;
#X connect 81 6 77 0;
#X connect 81 7 80 0;
#X connect 82 0 86 0;
#X connect 83 0 86 0;
#X connect 84 0 86 0;
#X connect 85 0 86 0;
#X connect 86 0 34 0;
