#N canvas 212 43 803 554 10;
#X obj 345 8 inlet;
#X obj 224 464 outlet;
#X obj 249 161 i \$1;
#X obj 249 182 pack 0 0;
#X obj 249 139 t b f;
#X msg 249 204 set curve\$1-\$2;
#N canvas 227 131 821 518 midi-packet 0;
#X msg 410 222 1 \$1;
#X obj 151 5 inlet;
#X obj 418 25 inlet;
#X obj 418 81 bng 15 250 50 0 empty empty empty 17 7 0 10 -262144 -1
-1;
#X msg 445 222 2 \$1;
#X msg 480 222 3 \$1;
#X msg 515 222 4 \$1;
#X obj 410 151 t b b b b;
#X obj 151 57 route 1 2 3 4;
#X obj 31 135 inlet;
#X obj 518 81 bng 15 250 50 0 empty empty empty 17 7 0 10 -262144 -1
-1;
#X obj 31 215 pack 0 0 0;
#X obj 31 162 t f b b;
#X obj 115 135 inlet;
#X obj 115 215 pack 0 0 0;
#X obj 115 162 t f b b;
#X obj 199 135 inlet;
#X obj 199 215 pack 0 0 0;
#X obj 199 162 t f b b;
#X obj 283 135 inlet;
#X obj 283 215 pack 0 0 0;
#X obj 283 162 t f b b;
#X obj 480 194 i 0;
#X obj 445 194 i 0;
#X obj 410 194 i 0;
#X obj 515 194 i 0;
#X obj 340 189 i 0;
#X obj 311 189 i 0;
#X obj 256 189 i 0;
#X obj 227 189 i 0;
#X obj 172 189 i 0;
#X obj 143 189 i 0;
#X obj 88 189 i 0;
#X obj 59 189 i 0;
#X obj 251 57 route 1 2 3 4;
#X msg 561 218 1 \$1;
#X msg 596 218 2 \$1;
#X msg 631 218 3 \$1;
#X msg 666 218 4 \$1;
#X obj 561 147 t b b b b;
#X obj 631 190 i 0;
#X obj 596 190 i 0;
#X obj 561 190 i 0;
#X obj 666 190 i 0;
#X obj 584 266 prepend channel;
#X obj 433 269 prepend cc_number;
#X obj 418 50 OSCroute /cc_number /midi_channel;
#X obj 151 33 OSCroute /cc_number /midi_channel;
#X obj 421 372 prepend /curve/midi_params;
#X obj 424 418 outlet;
#X obj 170 309 ctlout;
#X connect 0 0 45 0;
#X connect 1 0 47 0;
#X connect 2 0 46 0;
#X connect 3 0 7 0;
#X connect 4 0 45 0;
#X connect 5 0 45 0;
#X connect 6 0 45 0;
#X connect 7 0 24 0;
#X connect 7 1 23 0;
#X connect 7 2 22 0;
#X connect 7 3 25 0;
#X connect 8 0 24 1;
#X connect 8 0 33 1;
#X connect 8 1 23 1;
#X connect 8 1 31 1;
#X connect 8 2 22 1;
#X connect 8 2 29 1;
#X connect 8 3 25 1;
#X connect 8 3 27 1;
#X connect 9 0 12 0;
#X connect 10 0 39 0;
#X connect 11 0 50 0;
#X connect 12 0 11 0;
#X connect 12 1 33 0;
#X connect 12 2 32 0;
#X connect 13 0 15 0;
#X connect 14 0 50 0;
#X connect 15 0 14 0;
#X connect 15 1 31 0;
#X connect 15 2 30 0;
#X connect 16 0 18 0;
#X connect 17 0 50 0;
#X connect 18 0 17 0;
#X connect 18 1 29 0;
#X connect 18 2 28 0;
#X connect 19 0 21 0;
#X connect 20 0 50 0;
#X connect 21 0 20 0;
#X connect 21 1 27 0;
#X connect 21 2 26 0;
#X connect 22 0 5 0;
#X connect 23 0 4 0;
#X connect 24 0 0 0;
#X connect 25 0 6 0;
#X connect 26 0 20 2;
#X connect 27 0 20 1;
#X connect 28 0 17 2;
#X connect 29 0 17 1;
#X connect 30 0 14 2;
#X connect 31 0 14 1;
#X connect 32 0 11 2;
#X connect 33 0 11 1;
#X connect 34 0 32 1;
#X connect 34 0 42 1;
#X connect 34 1 30 1;
#X connect 34 1 41 1;
#X connect 34 2 28 1;
#X connect 34 2 40 1;
#X connect 34 3 26 1;
#X connect 34 3 43 1;
#X connect 35 0 44 0;
#X connect 36 0 44 0;
#X connect 37 0 44 0;
#X connect 38 0 44 0;
#X connect 39 0 42 0;
#X connect 39 1 41 0;
#X connect 39 2 40 0;
#X connect 39 3 43 0;
#X connect 40 0 37 0;
#X connect 41 0 36 0;
#X connect 42 0 35 0;
#X connect 43 0 38 0;
#X connect 44 0 48 0;
#X connect 45 0 48 0;
#X connect 46 0 3 0;
#X connect 46 1 10 0;
#X connect 47 0 8 0;
#X connect 47 1 34 0;
#X connect 48 0 49 0;
#X restore 17 301 pd midi-packet;
#X obj 345 29 route track\$1;
#X obj 17 137 OSCroute /curve_play;
#X obj 57 161 OSCroute /curve_length;
#X obj 98 183 OSCroute /curve_length;
#X obj 94 250 OSCroute /midi_params;
#X obj 98 274 OSCroute /midi_params;
#X obj 412 175 table curve\$1-1 259;
#X obj 412 198 table curve\$1-2 259;
#X obj 412 219 table curve\$1-3 259;
#X obj 412 241 table curve\$1-4 259;
#X obj 17 207 curve_mover \$1;
#X obj 107 76 OSCroute /control;
#X obj 234 80 OSCroute /edit;
#X obj 374 81 OSCroute /get;
#X obj 551 111 OSCroute /curve;
#X obj 551 338 prepend /curve/gui_curve/edit;
#X obj 223 348 prepend /curve/curve_length;
#X obj 412 263 table curve\$1-5 259;
#X obj 412 286 table curve\$1-6 259;
#X obj 412 307 table curve\$1-7 259;
#X obj 412 329 table curve\$1-8 259;
#X obj 249 109 OSCroute /curve_number /curve;
#X obj 334 156 s2l;
#X obj 334 130 prepend symbol;
#X obj 551 232 tabdump;
#X obj 274 291 tabset;
#X obj 281 246 list-apply / 128;
#X obj 551 256 list-apply * 128;
#X obj 570 165 i \$1;
#X obj 570 186 pack 0 0;
#X msg 570 208 set curve\$1-\$2;
#X obj 551 144 t b b f;
#X obj 551 284 l2s;
#X connect 0 0 7 0;
#X connect 2 0 3 0;
#X connect 3 0 5 0;
#X connect 4 0 2 0;
#X connect 4 1 3 1;
#X connect 5 0 32 0;
#X connect 6 0 1 0;
#X connect 7 0 18 0;
#X connect 7 0 19 0;
#X connect 7 0 20 0;
#X connect 8 0 17 0;
#X connect 9 0 17 1;
#X connect 10 0 17 2;
#X connect 11 0 6 2;
#X connect 12 0 6 5;
#X connect 17 0 6 0;
#X connect 17 1 6 1;
#X connect 17 2 6 3;
#X connect 17 3 6 4;
#X connect 17 4 23 0;
#X connect 18 0 8 0;
#X connect 19 0 9 0;
#X connect 19 0 11 0;
#X connect 19 0 28 0;
#X connect 20 0 12 0;
#X connect 20 0 10 0;
#X connect 20 0 21 0;
#X connect 21 0 38 0;
#X connect 22 0 1 0;
#X connect 23 0 1 0;
#X connect 28 0 4 0;
#X connect 28 1 30 0;
#X connect 29 0 33 0;
#X connect 30 0 29 0;
#X connect 31 0 34 0;
#X connect 33 0 32 0;
#X connect 34 0 39 0;
#X connect 35 0 36 0;
#X connect 36 0 37 0;
#X connect 37 0 31 0;
#X connect 38 0 31 0;
#X connect 38 1 35 0;
#X connect 38 2 36 1;
#X connect 39 0 22 0;
