#N canvas 517 120 454 504 10;
#X obj 89 44 r bpm;
#X obj 385 71 inlet;
#X obj 242 40 r barbangs;
#X obj 89 278 tabosc4~ curve\$1-\$2;
#X obj 304 152 * 240;
#X obj 89 173 / 240;
#X obj 89 249 sig~;
#X obj 304 124 change;
#X obj 89 213 spigot;
#X obj 156 74 tgl 15 0 empty empty empty 17 7 0 10 -262144 -1 -1 0
1;
#X obj 156 165 sel 1;
#X msg 157 207 0;
#X obj 156 44 inlet;
#X msg 200 217 0;
#X obj 156 134 t f b f;
#X obj 90 318 snapshot~;
#X obj 250 281 metro 10;
#X obj 90 372 i;
#X obj 90 456 outlet;
#X obj 218 143 i;
#X obj 245 143 + 1;
#X obj 225 178 sel 4;
#X obj 304 95 i 1;
#X floatatom 155 450 5 0 0 0 - - -;
#X floatatom 25 235 5 0 0 0 - - -;
#X obj 310 68 loadbang;
#X obj 90 352 * 127;
#X obj 90 392 max 0;
#X obj 90 413 min 127;
#X floatatom 383 143 5 0 0 0 - - -;
#X floatatom 306 199 5 0 0 0 - - -;
#X obj 245 81 bng 15 250 50 0 empty empty empty 17 7 0 10 -262144 -1
-1;
#X obj 89 125 i;
#X obj 156 100 seq_syncplay;
#X connect 0 0 32 0;
#X connect 1 0 22 1;
#X connect 1 0 29 0;
#X connect 2 0 19 0;
#X connect 2 0 22 0;
#X connect 2 0 31 0;
#X connect 3 0 15 0;
#X connect 4 0 5 1;
#X connect 4 0 30 0;
#X connect 5 0 8 0;
#X connect 5 0 24 0;
#X connect 6 0 3 0;
#X connect 7 0 4 0;
#X connect 8 0 6 0;
#X connect 9 0 33 0;
#X connect 10 0 5 0;
#X connect 10 1 11 0;
#X connect 11 0 6 0;
#X connect 12 0 9 0;
#X connect 13 0 3 1;
#X connect 13 0 19 0;
#X connect 14 0 10 0;
#X connect 14 1 13 0;
#X connect 14 2 8 1;
#X connect 14 2 16 0;
#X connect 15 0 26 0;
#X connect 16 0 15 0;
#X connect 17 0 27 0;
#X connect 19 0 20 0;
#X connect 19 0 21 0;
#X connect 20 0 19 1;
#X connect 21 0 13 0;
#X connect 21 0 32 0;
#X connect 22 0 7 0;
#X connect 25 0 22 0;
#X connect 26 0 17 0;
#X connect 27 0 28 0;
#X connect 28 0 18 0;
#X connect 28 0 23 0;
#X connect 29 0 21 1;
#X connect 32 0 5 0;
#X connect 33 0 14 0;
