#N canvas 111 85 803 554 10;
#X msg 551 171 256;
#X obj 551 237 f;
#X obj 577 237 + 1;
#X obj 551 202 until;
#X obj 551 264 t f f;
#X msg 599 201 0;
#X obj 345 8 inlet;
#X obj 388 155 unpack 0 0 0;
#X obj 442 269 i;
#X obj 551 346 i;
#X obj 310 493 outlet;
#X obj 632 201 i \$1;
#X obj 632 231 pack 0 0;
#X obj 632 175 t b f;
#X obj 388 248 i \$1;
#X obj 388 269 pack 0 0;
#X obj 388 202 change;
#X obj 388 178 t b f;
#X obj 388 226 t b f;
#X obj 551 139 t b b f;
#X obj 551 372 pack 0 0;
#X obj 551 319 t b f;
#X obj 17 347 outlet;
#X msg 388 291 set curve\$1-\$2;
#X msg 632 257 set curve\$1-\$2;
#X obj 388 313 tabwrite curve;
#X obj 551 291 tabread curve;
#N canvas 284 98 821 529 midi-packet 1;
#X msg 410 222 1 \$1;
#X obj 151 5 inlet;
#X obj 418 25 inlet;
#X obj 418 81 bng 15 250 50 0 empty empty empty 17 7 0 10 -262144 -1
-1;
#X msg 445 222 2 \$1;
#X msg 480 222 3 \$1;
#X msg 515 222 4 \$1;
#X obj 170 309 outlet;
#X obj 410 151 t b b b b;
#X obj 151 57 route 1 2 3 4;
#X obj 31 135 inlet;
#X obj 518 81 bng 15 250 50 0 empty empty empty 17 7 0 10 -262144 -1
-1;
#X obj 31 215 pack 0 0 0;
#X obj 31 162 t f b b;
#X obj 115 135 inlet;
#X obj 115 215 pack 0 0 0;
#X obj 115 162 t f b b;
#X obj 199 135 inlet;
#X obj 199 215 pack 0 0 0;
#X obj 199 162 t f b b;
#X obj 283 135 inlet;
#X obj 283 215 pack 0 0 0;
#X obj 283 162 t f b b;
#X obj 480 194 i 0;
#X obj 445 194 i 0;
#X obj 410 194 i 0;
#X obj 515 194 i 0;
#X obj 340 189 i 0;
#X obj 311 189 i 0;
#X obj 256 189 i 0;
#X obj 227 189 i 0;
#X obj 172 189 i 0;
#X obj 143 189 i 0;
#X obj 88 189 i 0;
#X obj 59 189 i 0;
#X obj 251 57 route 1 2 3 4;
#X msg 561 218 1 \$1;
#X msg 596 218 2 \$1;
#X msg 631 218 3 \$1;
#X msg 666 218 4 \$1;
#X obj 561 147 t b b b b;
#X obj 631 190 i 0;
#X obj 596 190 i 0;
#X obj 561 190 i 0;
#X obj 666 190 i 0;
#X obj 584 266 prepend channel;
#X obj 433 269 prepend cc_number;
#X obj 417 50 OSCroute /cc_number /midi_channel;
#X obj 151 33 OSCroute /cc_number /midi_channel;
#X obj 421 372 prepend /curve/midi_params;
#X obj 424 418 outlet;
#X connect 0 0 46 0;
#X connect 1 0 48 0;
#X connect 2 0 47 0;
#X connect 3 0 8 0;
#X connect 4 0 46 0;
#X connect 5 0 46 0;
#X connect 6 0 46 0;
#X connect 8 0 25 0;
#X connect 8 1 24 0;
#X connect 8 2 23 0;
#X connect 8 3 26 0;
#X connect 9 0 25 1;
#X connect 9 0 34 1;
#X connect 9 1 24 1;
#X connect 9 1 32 1;
#X connect 9 2 23 1;
#X connect 9 2 30 1;
#X connect 9 3 26 1;
#X connect 9 3 28 1;
#X connect 10 0 13 0;
#X connect 11 0 40 0;
#X connect 12 0 7 0;
#X connect 13 0 12 0;
#X connect 13 1 34 0;
#X connect 13 2 33 0;
#X connect 14 0 16 0;
#X connect 15 0 7 0;
#X connect 16 0 15 0;
#X connect 16 1 32 0;
#X connect 16 2 31 0;
#X connect 17 0 19 0;
#X connect 18 0 7 0;
#X connect 19 0 18 0;
#X connect 19 1 30 0;
#X connect 19 2 29 0;
#X connect 20 0 22 0;
#X connect 21 0 7 0;
#X connect 22 0 21 0;
#X connect 22 1 28 0;
#X connect 22 2 27 0;
#X connect 23 0 5 0;
#X connect 24 0 4 0;
#X connect 25 0 0 0;
#X connect 26 0 6 0;
#X connect 27 0 21 2;
#X connect 28 0 21 1;
#X connect 29 0 18 2;
#X connect 30 0 18 1;
#X connect 31 0 15 2;
#X connect 32 0 15 1;
#X connect 33 0 12 2;
#X connect 34 0 12 1;
#X connect 35 0 33 1;
#X connect 35 0 43 1;
#X connect 35 1 31 1;
#X connect 35 1 42 1;
#X connect 35 2 29 1;
#X connect 35 2 41 1;
#X connect 35 3 27 1;
#X connect 35 3 44 1;
#X connect 36 0 45 0;
#X connect 37 0 45 0;
#X connect 38 0 45 0;
#X connect 39 0 45 0;
#X connect 40 0 43 0;
#X connect 40 1 42 0;
#X connect 40 2 41 0;
#X connect 40 3 44 0;
#X connect 41 0 38 0;
#X connect 42 0 37 0;
#X connect 43 0 36 0;
#X connect 44 0 39 0;
#X connect 45 0 49 0;
#X connect 46 0 49 0;
#X connect 47 0 3 0;
#X connect 47 1 11 0;
#X connect 48 0 9 0;
#X connect 48 1 35 0;
#X connect 49 0 50 0;
#X restore 17 301 pd midi-packet;
#X obj 345 29 route track\$1;
#X obj 388 132 OSCroute /curve;
#X obj 44 142 OSCroute /curve_play;
#X obj 71 163 OSCroute /curve_length;
#X obj 98 185 OSCroute /curve_length;
#X obj 94 240 OSCroute /midi_params;
#X obj 98 274 OSCroute /midi_params;
#X obj 240 250 table curve\$1-1 259;
#X obj 240 273 table curve\$1-2 259;
#X obj 240 294 table curve\$1-3 259;
#X obj 240 316 table curve\$1-4 259;
#X obj 17 207 curve_mover \$1;
#X obj 107 76 OSCroute /control;
#X obj 234 80 OSCroute /edit;
#X obj 459 61 OSCroute /get;
#X obj 551 111 OSCroute /curve;
#X obj 551 396 prepend /curve/gui_curve/edit;
#X obj 261 376 prepend /curve/curve_length;
#X connect 0 0 3 0;
#X connect 1 0 2 0;
#X connect 1 0 4 0;
#X connect 2 0 1 1;
#X connect 3 0 1 0;
#X connect 4 0 26 0;
#X connect 4 1 9 1;
#X connect 5 0 1 1;
#X connect 6 0 28 0;
#X connect 7 0 17 0;
#X connect 7 1 25 1;
#X connect 7 2 8 1;
#X connect 8 0 25 0;
#X connect 9 0 20 0;
#X connect 11 0 12 0;
#X connect 12 0 24 0;
#X connect 13 0 11 0;
#X connect 13 1 12 1;
#X connect 14 0 15 0;
#X connect 15 0 23 0;
#X connect 16 0 18 0;
#X connect 17 0 8 0;
#X connect 17 1 16 0;
#X connect 18 0 14 0;
#X connect 18 1 15 1;
#X connect 19 0 0 0;
#X connect 19 1 5 0;
#X connect 19 2 13 0;
#X connect 20 0 44 0;
#X connect 21 0 9 0;
#X connect 21 1 20 1;
#X connect 23 0 25 0;
#X connect 24 0 26 0;
#X connect 26 0 21 0;
#X connect 27 0 22 0;
#X connect 28 0 40 0;
#X connect 28 0 41 0;
#X connect 28 0 42 0;
#X connect 29 0 7 0;
#X connect 30 0 39 0;
#X connect 31 0 39 1;
#X connect 32 0 39 2;
#X connect 33 0 27 2;
#X connect 34 0 27 5;
#X connect 39 0 27 0;
#X connect 39 1 27 1;
#X connect 39 2 27 3;
#X connect 39 3 27 4;
#X connect 39 4 45 0;
#X connect 40 0 30 0;
#X connect 41 0 31 0;
#X connect 41 0 33 0;
#X connect 41 0 29 0;
#X connect 42 0 34 0;
#X connect 42 0 32 0;
#X connect 42 0 43 0;
#X connect 43 0 19 0;
#X connect 44 0 10 0;
#X connect 45 0 10 0;
