#N struct mono_track float a;
#N struct mv_track float a float b float c float d float e float f
float g float h;
#N canvas 159 34 951 600 10;
#X floatatom 244 110 5 0 300 0 - - -;
#X obj 193 109 tgl 15 0 empty empty empty 17 7 0 10 -262144 -1 -1 0
1;
#X obj 193 138 midiclock;
#X obj 331 150 prepend;
#X msg 370 124 track\$1;
#N canvas 390 378 701 300 mv_track-template 0;
#X obj 109 64 struct mv_track float a float b float c float d float
e float f float g float h;
#X restore 27 40 pd mv_track-template;
#N canvas 390 378 429 198 mono_track-template 0;
#X obj 109 64 struct mono_track float a;
#X restore 27 60 pd mono_track-template;
#X obj 416 472 sendOSC;
#X obj 416 428 loadbang;
#X msg 416 450 connect localhost 9001;
#X obj 328 441 prepend send;
#X obj 331 72 OSCroute /grid;
#X obj 331 99 OSCroute /track /track_select;
#X obj 442 69 print oscin;
#X obj 380 275 mono_track 5;
#X obj 540 142 prepend;
#X msg 579 116 track\$1;
#X obj 540 91 OSCroute /track /track_select;
#X obj 540 64 OSCroute /curve;
#X obj 193 74 OSCroute /play /bpm;
#X obj 399 152 print track;
#X obj 328 485 print oscout;
#X obj 381 178 multivoice_track 1;
#X obj 381 223 multivoice_track 3;
#X obj 381 201 multivoice_track 2;
#X obj 381 247 multivoice_track 4;
#X obj 380 300 mono_track 6;
#X obj 379 327 mono_track 7;
#X obj 378 20 dumpOSC 9004;
#X obj 28 85 loadbang;
#X msg 28 108 \; pd dsp 1;
#X obj 565 240 curve_read 10;
#X obj 565 196 curve_read 8;
#X obj 565 218 curve_read 9;
#X connect 0 0 2 1;
#X connect 1 0 2 0;
#X connect 3 0 14 0;
#X connect 3 0 22 0;
#X connect 3 0 23 0;
#X connect 3 0 24 0;
#X connect 3 0 25 0;
#X connect 3 0 26 0;
#X connect 3 0 27 0;
#X connect 4 0 3 1;
#X connect 4 0 20 0;
#X connect 8 0 9 0;
#X connect 9 0 7 0;
#X connect 10 0 7 0;
#X connect 10 0 21 0;
#X connect 11 0 12 0;
#X connect 12 0 3 0;
#X connect 12 1 4 0;
#X connect 14 0 10 0;
#X connect 15 0 31 0;
#X connect 15 0 32 0;
#X connect 15 0 33 0;
#X connect 16 0 15 1;
#X connect 17 0 15 0;
#X connect 17 1 16 0;
#X connect 18 0 17 0;
#X connect 19 0 1 0;
#X connect 19 1 0 0;
#X connect 22 0 10 0;
#X connect 23 0 10 0;
#X connect 24 0 10 0;
#X connect 25 0 10 0;
#X connect 26 0 10 0;
#X connect 27 0 10 0;
#X connect 28 0 11 0;
#X connect 28 0 18 0;
#X connect 28 0 19 0;
#X connect 29 0 30 0;
#X connect 31 0 10 0;
#X connect 32 0 10 0;
#X connect 33 0 10 0;
