#N struct mv_track float a float b float c float d float e float f
float g float h;
#N canvas 119 108 951 600 10;
#X floatatom 206 140 5 0 300 0 - - -;
#X obj 155 139 tgl 15 0 empty empty empty 17 7 0 10 -262144 -1 -1 0
1;
#X obj 155 168 midiclock;
#X obj 331 150 prepend;
#X msg 370 124 track\$1;
#N canvas 390 378 701 300 mv_track-template 0;
#X obj 109 64 struct mv_track float a float b float c float d float
e float f float g float h;
#X restore 27 40 pd mv_track-template;
#N canvas 390 378 429 198 mono_track-template 0;
#X obj 109 64 struct mono_track float a;
#X restore 27 60 pd mono_track-template;
#X obj 444 426 sendOSC;
#X obj 444 382 loadbang;
#X msg 444 404 connect localhost 9001;
#X obj 356 395 prepend send;
#X obj 331 72 OSCroute /grid;
#X obj 331 99 OSCroute /track /track_select;
#X obj 442 69 print oscin;
#X obj 580 143 prepend;
#X msg 619 117 track\$1;
#X obj 580 92 OSCroute /track /track_select;
#X obj 580 65 OSCroute /curve;
#X obj 356 439 print oscout;
#X obj 378 20 dumpOSC 9004;
#X obj 28 85 loadbang;
#X msg 28 108 \; pd dsp 1;
#X obj 155 104 OSCroute /global_play /bpm;
#X obj 592 185 curve_read 8;
#X obj 648 141 OSCroute /track_info;
#X obj 625 316 r 16thnumbers;
#X obj 625 342 prepend /main/stepnumber;
#X obj 181 245 multivoice_onoff_track 1;
#X obj 381 178 multivoice_track 1;
#X obj 592 229 curve_read 10;
#X obj 592 207 curve_read 9;
#X obj 381 247 multivoice_track 4;
#X obj 381 223 multivoice_track 3;
#X obj 381 201 multivoice_track 2;
#X obj 380 275 multivoice_track 5;
#X obj 380 300 multivoice_track 6;
#X obj 379 327 multivoice_track 7;
#X connect 0 0 2 1;
#X connect 1 0 2 0;
#X connect 3 0 28 0;
#X connect 3 0 31 0;
#X connect 3 0 32 0;
#X connect 3 0 33 0;
#X connect 3 0 34 0;
#X connect 3 0 35 0;
#X connect 3 0 36 0;
#X connect 4 0 3 1;
#X connect 8 0 9 0;
#X connect 9 0 7 0;
#X connect 10 0 7 0;
#X connect 10 0 18 0;
#X connect 11 0 12 0;
#X connect 12 0 3 0;
#X connect 12 1 4 0;
#X connect 14 0 23 0;
#X connect 14 0 29 0;
#X connect 14 0 30 0;
#X connect 15 0 14 1;
#X connect 16 0 14 0;
#X connect 16 1 15 0;
#X connect 17 0 16 0;
#X connect 19 0 11 0;
#X connect 19 0 17 0;
#X connect 19 0 13 0;
#X connect 19 0 22 0;
#X connect 19 0 24 0;
#X connect 20 0 21 0;
#X connect 22 0 1 0;
#X connect 22 1 0 0;
#X connect 23 0 10 0;
#X connect 24 0 23 1;
#X connect 24 0 28 1;
#X connect 24 0 29 1;
#X connect 24 0 30 1;
#X connect 24 0 31 1;
#X connect 24 0 32 1;
#X connect 24 0 33 1;
#X connect 24 0 34 1;
#X connect 24 0 35 1;
#X connect 24 0 36 1;
#X connect 25 0 26 0;
#X connect 26 0 10 0;
#X connect 28 0 10 0;
#X connect 29 0 10 0;
#X connect 30 0 10 0;
#X connect 31 0 10 0;
#X connect 32 0 10 0;
#X connect 33 0 10 0;
#X connect 34 0 10 0;
#X connect 35 0 10 0;
#X connect 36 0 10 0;
