#N struct mono_track float a;
#N struct mv_track float a float b float c float d float e float f
float g float h;
#N canvas 517 101 763 443 10;
#X declare -lib mrpeach/packOSC;
#X floatatom 87 14 5 0 0 0 - - -;
#X obj 36 13 tgl 15 0 empty empty empty 17 7 0 10 -262144 -1 -1 0 1
;
#X obj 36 45 midiclock;
#X obj 531 47 8by16grid;
#X obj 305 240 prepend;
#X msg 344 146 track\$1;
#X obj 130 35 r gui_input;
#X obj 531 22 r gui_output;
#X obj 531 72 s gui_input;
#N canvas 390 378 701 300 mv_track-template 0;
#X obj 109 64 struct mv_track float a float b float c float d float
e float f float g float h;
#X restore 599 103 pd mv_track-template;
#N canvas 390 378 429 198 mono_track-template 0;
#X obj 109 64 struct mono_track float a;
#X restore 599 123 pd mono_track-template;
#X obj 406 349 mono_track 5;
#X obj 40 94 route cctrack_number;
#X obj 40 263 prepend;
#X obj 40 239 prepend get;
#X obj 40 142 change;
#X obj 40 118 t f f;
#X obj 200 318 s gui_output;
#X obj 79 301 curve_read 1;
#X msg 128 240 cc_track\$1;
#X obj 157 131 route cc_curves;
#X msg 40 166 active_curve \,;
#X obj 79 323 curve_read 2;
#X obj 597 288 sendOSC;
#X obj 597 237 loadbang;
#X msg 597 261 connect localhost 9001;
#X obj 306 39 dumpOSC 9002;
#X obj 402 242 multivoice_track 1;
#X obj 532 342 print dump;
#X obj 306 98 OSCroute /track_select /steptrack;
#X obj 589 161 import mrpeach/packOSC;
#X obj 547 199 prepend send;
#X obj 306 122 t b b f;
#X msg 438 149 /gridtrack;
#X msg 306 179 /get/pattern_active_grid \, /get/pattern_number \, /get/pattern_seq_length
\, /get/pattern_seq \, /get/all_midi_params;
#X obj 402 287 multivoice_track 3;
#X obj 402 265 multivoice_track 2;
#X obj 402 311 multivoice_track 4;
#X connect 0 0 2 1;
#X connect 1 0 2 0;
#X connect 3 0 8 0;
#X connect 4 0 27 0;
#X connect 4 0 35 0;
#X connect 4 0 36 0;
#X connect 4 0 37 0;
#X connect 5 0 4 1;
#X connect 7 0 3 0;
#X connect 12 0 16 0;
#X connect 12 1 20 0;
#X connect 13 0 18 0;
#X connect 13 0 22 0;
#X connect 14 0 13 0;
#X connect 15 0 21 0;
#X connect 16 0 15 0;
#X connect 16 1 19 0;
#X connect 18 1 17 0;
#X connect 19 0 13 1;
#X connect 20 0 13 0;
#X connect 21 0 14 0;
#X connect 22 1 17 0;
#X connect 24 0 25 0;
#X connect 25 0 23 0;
#X connect 26 0 29 0;
#X connect 27 1 31 0;
#X connect 29 0 32 0;
#X connect 29 1 4 0;
#X connect 31 0 23 0;
#X connect 31 0 28 0;
#X connect 32 0 34 0;
#X connect 32 1 33 0;
#X connect 32 2 5 0;
#X connect 33 0 31 0;
#X connect 34 0 4 0;
#X connect 35 1 31 0;
#X connect 36 1 31 0;
#X connect 37 1 31 0;
