#N canvas 495 54 702 457 10;
#X obj 188 422 outlet;
#X msg 17 338 1 \$1 \$2;
#X msg 427 170 clear;
#X text 14 14 Arguments are :-;
#X obj 195 249 get grid16_track a b c d e f g h;
#X obj 234 134 until;
#X obj 234 192 pointer;
#X obj 195 221 pointer;
#X msg 234 160 next;
#X obj 133 126 until;
#X msg 195 199 next;
#X obj 189 14 inlet;
#X obj 133 248 i;
#X obj 133 148 t b b;
#X obj 156 248 + 1;
#X msg 177 148 1;
#X obj 289 112 f \$1;
#X msg 133 104 32;
#X obj 189 43 t b b b f b b;
#X obj 234 83 * 16;
#X msg 289 141 traverse pd-grid16_track\$1_window;
#X msg 75 338 2 \$1 \$2;
#X msg 133 338 3 \$1 \$2;
#X msg 191 338 4 \$1 \$2;
#X msg 249 338 5 \$1 \$2;
#X msg 307 338 6 \$1 \$2;
#X msg 365 338 7 \$1 \$2;
#X msg 423 338 8 \$1 \$2;
#N canvas 210 77 631 465 pattern-packer 1;
#X obj 110 21 inlet;
#X obj 218 277 inlet;
#X obj 32 252 inlet;
#X obj 32 437 outlet;
#X obj 95 275 l2s;
#X obj 32 279 bng 15 250 50 0 empty empty empty 0 -6 0 8 -262144 -1
-1;
#X obj 218 300 bng 15 250 50 0 empty empty empty 0 -6 0 8 -262144 -1
-1;
#X obj 32 364 list append;
#X obj 179 344 t l;
#X obj 95 336 list prepend;
#X obj 32 391 route list;
#X obj 95 301 pack s s;
#X obj 95 243 t l b;
#X obj 140 273 symbol -;
#X obj 32 415 l2s;
#X obj 32 303 t b b;
#X obj 110 44 unpack 0 0 0;
#X obj 129 194 i;
#X obj 95 194 i;
#X obj 164 74 i;
#X obj 95 220 pack 0 0 0;
#X obj 164 120 sel 1 2;
#X obj 164 96 t f f;
#X obj 164 147 t b b b;
#X obj 110 68 t b f;
#X obj 176 194 i;
#X connect 0 0 16 0;
#X connect 1 0 6 0;
#X connect 2 0 5 0;
#X connect 4 0 11 0;
#X connect 5 0 15 0;
#X connect 6 0 9 1;
#X connect 7 0 10 0;
#X connect 8 0 9 1;
#X connect 9 0 8 0;
#X connect 9 0 7 1;
#X connect 10 0 14 0;
#X connect 11 0 9 0;
#X connect 12 0 4 0;
#X connect 12 1 13 0;
#X connect 13 0 11 1;
#X connect 14 0 3 0;
#X connect 15 0 7 1;
#X connect 15 1 7 0;
#X connect 16 0 24 0;
#X connect 16 1 17 1;
#X connect 16 2 19 1;
#X connect 17 0 20 1;
#X connect 18 0 20 0;
#X connect 19 0 22 0;
#X connect 20 0 12 0;
#X connect 21 0 23 0;
#X connect 21 1 23 0;
#X connect 22 0 21 0;
#X connect 22 1 25 1;
#X connect 23 0 18 0;
#X connect 23 1 17 0;
#X connect 23 2 25 0;
#X connect 24 0 19 0;
#X connect 24 1 18 1;
#X connect 25 0 20 2;
#X restore 188 383 pd pattern-packer;
#X obj 17 313 pack;
#X obj 75 313 pack;
#X obj 133 313 pack;
#X obj 191 313 pack;
#X obj 249 313 pack;
#X obj 307 313 pack;
#X obj 365 313 pack;
#X obj 423 313 pack;
#X connect 1 0 28 1;
#X connect 2 0 0 0;
#X connect 4 0 29 1;
#X connect 4 1 30 1;
#X connect 4 2 31 1;
#X connect 4 3 32 1;
#X connect 4 4 33 1;
#X connect 4 5 34 1;
#X connect 4 6 35 1;
#X connect 4 7 36 1;
#X connect 5 0 8 0;
#X connect 6 0 7 1;
#X connect 7 0 4 0;
#X connect 8 0 6 0;
#X connect 9 0 13 0;
#X connect 10 0 7 0;
#X connect 11 0 18 0;
#X connect 12 0 14 0;
#X connect 12 0 29 0;
#X connect 12 0 30 0;
#X connect 12 0 31 0;
#X connect 12 0 32 0;
#X connect 12 0 33 0;
#X connect 12 0 34 0;
#X connect 12 0 35 0;
#X connect 12 0 36 0;
#X connect 13 0 12 0;
#X connect 13 1 10 0;
#X connect 14 0 12 1;
#X connect 15 0 12 1;
#X connect 16 0 20 0;
#X connect 17 0 9 0;
#X connect 18 0 28 0;
#X connect 18 1 17 0;
#X connect 18 2 6 0;
#X connect 18 2 15 0;
#X connect 18 3 19 0;
#X connect 18 4 16 0;
#X connect 18 5 2 0;
#X connect 18 5 28 2;
#X connect 19 0 5 0;
#X connect 20 0 6 0;
#X connect 21 0 28 1;
#X connect 22 0 28 1;
#X connect 23 0 28 1;
#X connect 24 0 28 1;
#X connect 25 0 28 1;
#X connect 26 0 28 1;
#X connect 27 0 28 1;
#X connect 28 0 0 0;
#X connect 29 0 1 0;
#X connect 30 0 21 0;
#X connect 31 0 22 0;
#X connect 32 0 23 0;
#X connect 33 0 24 0;
#X connect 34 0 25 0;
#X connect 35 0 26 0;
#X connect 36 0 27 0;
