#N canvas 130 48 974 653 10;
#X obj 359 96 route 1 2 3 4 5 6 7 8;
#X obj 137 107 route 1 2 3 4 5 6 7 8;
#X obj 137 85 inlet;
#X obj 481 216 i;
#X obj 516 216 i;
#X obj 551 216 i;
#X obj 586 216 i;
#X obj 621 216 i;
#X obj 656 216 i;
#X obj 691 216 i;
#X obj 726 216 i;
#X msg 481 244 1 \$1;
#X obj 359 21 inlet;
#X obj 591 24 inlet;
#X obj 591 99 bng 15 250 50 0 empty empty empty 17 7 0 10 -262144 -1
-1;
#X obj 591 123 t b b b b b b b b;
#X msg 516 244 2 \$1;
#X msg 551 244 3 \$1;
#X msg 586 244 4 \$1;
#X msg 621 244 5 \$1;
#X msg 656 244 6 \$1;
#X msg 691 244 7 \$1;
#X msg 726 244 8 \$1;
#X obj 705 319 bng 15 250 50 0 empty empty empty 17 7 0 10 -262144
-1 -1;
#X obj 781 319 bng 15 250 50 0 empty empty empty 17 7 0 10 -262144
-1 -1;
#X obj 650 511 outlet;
#X obj 359 42 OSCroute /notes /midi_params;
#X obj 591 49 OSCroute /notes /midi_params /all_midi_params;
#X obj 667 470 prepend /grid/midi_params;
#X obj 182 603 noteout;
#X obj 386 71 OSCroute /velocity /length /channel;
#X obj 712 75 t b b b b;
#X obj 738 122 OSCroute /velocity /length /channel;
#X obj 742 356 bng 15 250 50 0 empty empty empty 17 7 0 10 -262144
-1 -1;
#X obj 705 352 i 100;
#X obj 742 384 i \$1;
#X obj 239 545 i \$1;
#X obj 52 22 loadbang;
#X obj 617 388 prepend velocity;
#X obj 730 441 prepend channel;
#X obj 781 380 prepend length;
#X obj 597 301 prepend notes;
#X obj 182 579 pack 0 0 0;
#X obj 182 527 t f b;
#X obj 431 382 r bpm;
#X obj 431 403 t b f;
#X msg 431 425 15000;
#X obj 431 447 / 1;
#X obj 781 352 i 4;
#X obj 416 470 * 1;
#X msg 52 44 1 67 \, 2 66 \, 3 65 \, 4 64 \, 5 63 \, 6 62 \, 7 61 \,
8 60;
#X obj 182 463 i;
#X obj 182 442 t b f;
#X obj 210 478 sel 1 2;
#X obj 210 502 i;
#X msg 234 502 0;
#X obj 64 530 pack 0 0 0;
#X msg 92 494 0;
#X obj 92 465 loadbang;
#X obj 64 368 until;
#X msg 64 344 128;
#X obj 64 391 f;
#X obj 90 391 + 1;
#X msg 96 441 0;
#X obj 96 416 sel 127;
#X obj 217 307 t l;
#X obj 310 219 loadbang;
#X msg 310 288 1;
#X msg 353 288 1;
#X obj 310 264 sel manual auto;
#X obj 182 421 unpack;
#X obj 380 534 i \$1;
#X obj 323 554 pack 0 0 0;
#X obj 323 514 t f b;
#X obj 323 494 makenote 100 500;
#X obj 182 397 spigot;
#X obj 323 389 spigot;
#X obj 323 410 unpack;
#N canvas 450 47 450 300 packer 0;
#X obj 131 153 i;
#X obj 96 177 pack;
#X obj 146 69 inlet;
#X obj 92 101 t f f b;
#X obj 96 153 i;
#X obj 92 124 sel 1 2;
#X obj 92 69 inlet;
#X obj 96 199 outlet;
#X connect 0 0 1 1;
#X connect 1 0 7 0;
#X connect 2 0 0 1;
#X connect 3 0 5 0;
#X connect 3 1 4 1;
#X connect 3 2 0 0;
#X connect 4 0 1 0;
#X connect 5 0 4 0;
#X connect 5 1 4 0;
#X connect 6 0 3 0;
#X restore 32 159 pd packer;
#N canvas 450 47 450 300 packer 0;
#X obj 131 153 i;
#X obj 96 177 pack;
#X obj 146 69 inlet;
#X obj 92 101 t f f b;
#X obj 96 153 i;
#X obj 92 124 sel 1 2;
#X obj 92 69 inlet;
#X obj 96 199 outlet;
#X connect 0 0 1 1;
#X connect 1 0 7 0;
#X connect 2 0 0 1;
#X connect 3 0 5 0;
#X connect 3 1 4 1;
#X connect 3 2 0 0;
#X connect 4 0 1 0;
#X connect 5 0 4 0;
#X connect 5 1 4 0;
#X connect 6 0 3 0;
#X restore 94 159 pd packer;
#N canvas 450 47 450 300 packer 0;
#X obj 131 153 i;
#X obj 96 177 pack;
#X obj 146 69 inlet;
#X obj 92 101 t f f b;
#X obj 96 153 i;
#X obj 92 124 sel 1 2;
#X obj 92 69 inlet;
#X obj 96 199 outlet;
#X connect 0 0 1 1;
#X connect 1 0 7 0;
#X connect 2 0 0 1;
#X connect 3 0 5 0;
#X connect 3 1 4 1;
#X connect 3 2 0 0;
#X connect 4 0 1 0;
#X connect 5 0 4 0;
#X connect 5 1 4 0;
#X connect 6 0 3 0;
#X restore 156 159 pd packer;
#N canvas 450 47 450 300 packer 0;
#X obj 131 153 i;
#X obj 96 177 pack;
#X obj 146 69 inlet;
#X obj 92 101 t f f b;
#X obj 96 153 i;
#X obj 92 124 sel 1 2;
#X obj 92 69 inlet;
#X obj 96 199 outlet;
#X connect 0 0 1 1;
#X connect 1 0 7 0;
#X connect 2 0 0 1;
#X connect 3 0 5 0;
#X connect 3 1 4 1;
#X connect 3 2 0 0;
#X connect 4 0 1 0;
#X connect 5 0 4 0;
#X connect 5 1 4 0;
#X connect 6 0 3 0;
#X restore 218 159 pd packer;
#N canvas 450 47 450 300 packer 0;
#X obj 131 153 i;
#X obj 96 177 pack;
#X obj 146 69 inlet;
#X obj 92 101 t f f b;
#X obj 96 153 i;
#X obj 92 124 sel 1 2;
#X obj 92 69 inlet;
#X obj 96 199 outlet;
#X connect 0 0 1 1;
#X connect 1 0 7 0;
#X connect 2 0 0 1;
#X connect 3 0 5 0;
#X connect 3 1 4 1;
#X connect 3 2 0 0;
#X connect 4 0 1 0;
#X connect 5 0 4 0;
#X connect 5 1 4 0;
#X connect 6 0 3 0;
#X restore 141 190 pd packer;
#N canvas 450 47 450 300 packer 0;
#X obj 131 153 i;
#X obj 96 177 pack;
#X obj 146 69 inlet;
#X obj 92 101 t f f b;
#X obj 96 153 i;
#X obj 92 124 sel 1 2;
#X obj 92 69 inlet;
#X obj 96 199 outlet;
#X connect 0 0 1 1;
#X connect 1 0 7 0;
#X connect 2 0 0 1;
#X connect 3 0 5 0;
#X connect 3 1 4 1;
#X connect 3 2 0 0;
#X connect 4 0 1 0;
#X connect 5 0 4 0;
#X connect 5 1 4 0;
#X connect 6 0 3 0;
#X restore 203 190 pd packer;
#N canvas 450 47 450 300 packer 0;
#X obj 131 153 i;
#X obj 96 177 pack;
#X obj 146 69 inlet;
#X obj 92 101 t f f b;
#X obj 96 153 i;
#X obj 92 124 sel 1 2;
#X obj 92 69 inlet;
#X obj 96 199 outlet;
#X connect 0 0 1 1;
#X connect 1 0 7 0;
#X connect 2 0 0 1;
#X connect 3 0 5 0;
#X connect 3 1 4 1;
#X connect 3 2 0 0;
#X connect 4 0 1 0;
#X connect 5 0 4 0;
#X connect 5 1 4 0;
#X connect 6 0 3 0;
#X restore 265 190 pd packer;
#N canvas 450 47 450 300 packer 0;
#X obj 131 153 i;
#X obj 96 177 pack;
#X obj 146 69 inlet;
#X obj 92 101 t f f b;
#X obj 96 153 i;
#X obj 92 124 sel 1 2;
#X obj 92 69 inlet;
#X obj 96 199 outlet;
#X connect 0 0 1 1;
#X connect 1 0 7 0;
#X connect 2 0 0 1;
#X connect 3 0 5 0;
#X connect 3 1 4 1;
#X connect 3 2 0 0;
#X connect 4 0 1 0;
#X connect 5 0 4 0;
#X connect 5 1 4 0;
#X connect 6 0 3 0;
#X restore 327 190 pd packer;
#X obj 323 454 i;
#X obj 323 432 sel 1;
#X obj 310 241 symbol \$2;
#X connect 0 0 3 1;
#X connect 0 0 78 1;
#X connect 0 1 4 1;
#X connect 0 1 79 1;
#X connect 0 2 5 1;
#X connect 0 2 80 1;
#X connect 0 3 6 1;
#X connect 0 3 81 1;
#X connect 0 4 7 1;
#X connect 0 4 82 1;
#X connect 0 5 8 1;
#X connect 0 5 83 1;
#X connect 0 6 9 1;
#X connect 0 6 84 1;
#X connect 0 7 10 1;
#X connect 0 7 85 1;
#X connect 1 0 78 0;
#X connect 1 1 79 0;
#X connect 1 2 80 0;
#X connect 1 3 81 0;
#X connect 1 4 82 0;
#X connect 1 5 83 0;
#X connect 1 6 84 0;
#X connect 1 7 85 0;
#X connect 2 0 1 0;
#X connect 3 0 11 0;
#X connect 4 0 16 0;
#X connect 5 0 17 0;
#X connect 6 0 18 0;
#X connect 7 0 19 0;
#X connect 8 0 20 0;
#X connect 9 0 21 0;
#X connect 10 0 22 0;
#X connect 11 0 41 0;
#X connect 12 0 26 0;
#X connect 13 0 27 0;
#X connect 14 0 15 0;
#X connect 15 0 3 0;
#X connect 15 1 4 0;
#X connect 15 2 5 0;
#X connect 15 3 6 0;
#X connect 15 4 7 0;
#X connect 15 5 8 0;
#X connect 15 6 9 0;
#X connect 15 7 10 0;
#X connect 16 0 41 0;
#X connect 17 0 41 0;
#X connect 18 0 41 0;
#X connect 19 0 41 0;
#X connect 20 0 41 0;
#X connect 21 0 41 0;
#X connect 22 0 41 0;
#X connect 23 0 34 0;
#X connect 24 0 48 0;
#X connect 26 0 0 0;
#X connect 26 1 30 0;
#X connect 27 0 14 0;
#X connect 27 1 32 0;
#X connect 27 2 31 0;
#X connect 28 0 25 0;
#X connect 30 0 34 1;
#X connect 30 0 54 1;
#X connect 30 0 74 1;
#X connect 30 1 48 1;
#X connect 30 1 49 0;
#X connect 30 2 36 1;
#X connect 30 2 35 1;
#X connect 30 2 71 1;
#X connect 31 0 14 0;
#X connect 31 1 23 0;
#X connect 31 2 24 0;
#X connect 31 3 33 0;
#X connect 32 0 23 0;
#X connect 32 1 24 0;
#X connect 32 2 33 0;
#X connect 33 0 35 0;
#X connect 34 0 38 0;
#X connect 35 0 39 0;
#X connect 36 0 42 2;
#X connect 37 0 50 0;
#X connect 38 0 28 0;
#X connect 39 0 28 0;
#X connect 40 0 28 0;
#X connect 41 0 28 0;
#X connect 42 0 29 0;
#X connect 43 0 42 0;
#X connect 43 1 36 0;
#X connect 44 0 45 0;
#X connect 45 0 46 0;
#X connect 45 1 47 1;
#X connect 46 0 47 0;
#X connect 47 0 49 1;
#X connect 48 0 40 0;
#X connect 49 0 74 2;
#X connect 50 0 0 0;
#X connect 51 0 43 0;
#X connect 52 0 51 0;
#X connect 52 1 53 0;
#X connect 53 0 54 0;
#X connect 53 1 55 0;
#X connect 54 0 42 1;
#X connect 55 0 42 1;
#X connect 57 0 56 1;
#X connect 58 0 57 0;
#X connect 59 0 61 0;
#X connect 60 0 59 0;
#X connect 61 0 62 0;
#X connect 61 0 64 0;
#X connect 61 0 56 0;
#X connect 62 0 61 1;
#X connect 63 0 61 1;
#X connect 64 0 63 0;
#X connect 65 0 76 0;
#X connect 65 0 75 0;
#X connect 66 0 88 0;
#X connect 67 0 75 1;
#X connect 68 0 76 1;
#X connect 69 0 67 0;
#X connect 69 1 68 0;
#X connect 70 0 52 0;
#X connect 70 1 51 1;
#X connect 71 0 72 2;
#X connect 73 0 72 0;
#X connect 73 1 71 0;
#X connect 74 0 73 0;
#X connect 74 1 72 1;
#X connect 75 0 70 0;
#X connect 76 0 77 0;
#X connect 77 0 87 0;
#X connect 77 1 86 1;
#X connect 78 0 65 0;
#X connect 79 0 65 0;
#X connect 80 0 65 0;
#X connect 81 0 65 0;
#X connect 82 0 65 0;
#X connect 83 0 65 0;
#X connect 84 0 65 0;
#X connect 85 0 65 0;
#X connect 86 0 74 0;
#X connect 87 0 86 0;
#X connect 88 0 69 0;
