#N struct grid16_track float a float b float c float d float e float
f float g float h;
#N canvas 7 18 1242 620 10;
#X obj 19 36 loadbang;
#X obj 463 301 unpack;
#X obj 33 176 bng 15 250 50 0 empty empty empty 17 7 0 10 -262144 -1
-1;
#X obj 621 221 route 1 2 3 4 5 6 7 8;
#X obj 19 60 f \$1;
#X obj 474 258 loadbang;
#X obj 463 368 tabwrite track\$1_pattern;
#X obj 229 383 i;
#X obj 229 360 bng 15 250 50 0 empty empty empty 17 7 0 10 -262144
-1 -1;
#N canvas 0 0 450 300 (subpatch) 0;
#X array track\$1_pattern 7 float 2;
#X coords 0 0 7 7 40 40 1;
#X restore 601 317 graph;
#X obj 230 460 bng 15 250 50 0 empty empty empty 17 7 0 10 -262144
-1 -1;
#X msg 33 374 0 \, 1 \, 2 \, 3 \, 4 \, 5 \, 6 \, 7;
#X obj 60 417 tabread track\$1_pattern;
#X obj 134 233 tabread track\$1_pattern;
#X obj 404 573 outlet;
#X obj 357 83 inlet;
#X obj 357 109 route track\$1;
#X obj 432 424 i;
#X obj 621 196 OSCroute /pattern_grid;
#X obj 946 197 OSCroute /pattern_number;
#X obj 432 397 OSCroute /pattern_active_grid /pattern_grid;
#X obj 33 352 OSCroute /pattern_seq;
#X obj 463 237 OSCroute /pattern_seq;
#X obj 229 337 OSCroute /pattern_number;
#X obj 230 438 OSCroute /pattern_seq_length;
#X obj 33 396 t f f;
#X obj 33 439 pack;
#X obj 463 323 t b f;
#X obj 463 345 i;
#X msg 474 279 0 0 \, 1 0 \, 2 0 \, 3 0 \, 4 0 \, 5 0 \, 6 0 \, 7 0
;
#X obj 235 278 OSCroute /get;
#X obj 365 148 OSCroute /edit;
#X obj 33 138 r 16thbangs;
#X obj 120 160 OSCroute /play;
#X obj 120 137 OSCroute /control;
#X obj 157 184 OSCroute /pattern_seq_length;
#X obj 230 482 i 1;
#X obj 504 87 i \$1;
#X obj 504 135 prepend /main/track_info;
#X obj 504 61 inlet;
#X obj 306 237 r barbangs;
#X obj 283 212 OSCroute /follow_mode;
#X obj 380 235 tgl 15 0 empty empty empty 17 7 0 10 -262144 -1 -1 0
1;
#X obj 347 262 spigot;
#X obj 394 262 sel 1;
#X msg 504 110 \$1 grid16;
#X text 315 3 Arguments are :-;
#X text 315 44 2: default midi channel;
#X text 695 59 Non Vanilla objects used;
#X text 695 72 OSCroute;
#X text 315 17 1: sequencer track number;
#X text 333 28 also defines data window;
#X obj 33 259 grid16_pattern_read \$1;
#X obj 432 446 grid16_pattern_load \$1;
#X text 315 57 3: manual or auto note off;
#X obj 746 251 grid16_row_workings \$1 a 1 \$3;
#X obj 33 210 grid_seq_mover 16;
#N canvas 0 0 788 370 grid16_track\$1_window 0;
#X scalar grid16_track 0 0 0 0 0 0 0 0 \;;
#X scalar grid16_track 0 0 0 0 0 0 0 0 \;;
#X scalar grid16_track 0 0 0 0 0 0 0 0 \;;
#X scalar grid16_track 0 0 0 0 0 0 0 0 \;;
#X scalar grid16_track 0 0 0 0 0 0 0 0 \;;
#X scalar grid16_track 0 0 0 0 0 0 0 0 \;;
#X scalar grid16_track 0 0 0 0 0 0 0 0 \;;
#X scalar grid16_track 0 0 0 0 0 0 0 0 \;;
#X scalar grid16_track 0 0 0 0 0 0 0 0 \;;
#X scalar grid16_track 0 0 0 0 0 0 0 0 \;;
#X scalar grid16_track 0 0 0 0 0 0 0 0 \;;
#X scalar grid16_track 0 0 0 0 0 0 0 0 \;;
#X scalar grid16_track 0 0 0 0 0 0 0 0 \;;
#X scalar grid16_track 0 0 0 0 0 0 0 0 \;;
#X scalar grid16_track 0 0 0 0 0 0 0 0 \;;
#X scalar grid16_track 0 0 0 0 0 0 0 0 \;;
#X scalar grid16_track 0 0 0 0 0 0 0 0 \;;
#X scalar grid16_track 0 0 0 0 0 0 0 0 \;;
#X scalar grid16_track 0 0 0 0 0 0 0 0 \;;
#X scalar grid16_track 0 0 0 0 0 0 0 0 \;;
#X scalar grid16_track 0 0 0 0 0 0 0 0 \;;
#X scalar grid16_track 0 0 0 0 0 0 0 0 \;;
#X scalar grid16_track 0 0 0 0 0 0 0 0 \;;
#X scalar grid16_track 0 0 0 0 0 0 0 0 \;;
#X scalar grid16_track 0 0 0 0 0 0 0 0 \;;
#X scalar grid16_track 0 0 0 0 0 0 0 0 \;;
#X scalar grid16_track 0 0 0 0 0 0 0 0 \;;
#X scalar grid16_track 0 0 0 0 0 0 0 0 \;;
#X scalar grid16_track 0 0 0 0 0 0 0 0 \;;
#X scalar grid16_track 0 0 0 0 0 0 0 0 \;;
#X scalar grid16_track 0 0 0 0 0 0 0 0 \;;
#X scalar grid16_track 0 0 0 0 0 0 0 0 \;;
#X scalar grid16_track 0 0 0 0 0 0 0 0 \;;
#X scalar grid16_track 0 0 0 0 0 0 0 0 \;;
#X scalar grid16_track 0 0 0 0 0 0 0 0 \;;
#X scalar grid16_track 0 0 0 0 0 0 0 0 \;;
#X scalar grid16_track 0 0 0 0 0 0 0 0 \;;
#X scalar grid16_track 0 0 0 0 0 0 0 0 \;;
#X scalar grid16_track 0 0 0 0 0 0 0 0 \;;
#X scalar grid16_track 0 0 0 0 0 0 0 0 \;;
#X scalar grid16_track 0 0 0 0 0 0 0 0 \;;
#X scalar grid16_track 0 0 0 0 0 0 0 0 \;;
#X scalar grid16_track 0 0 0 0 0 0 0 0 \;;
#X scalar grid16_track 0 0 0 0 0 0 0 0 \;;
#X scalar grid16_track 0 0 0 0 0 0 0 0 \;;
#X scalar grid16_track 0 0 0 0 0 0 0 0 \;;
#X scalar grid16_track 0 0 0 0 0 0 0 0 \;;
#X scalar grid16_track 0 0 0 0 0 0 0 0 \;;
#X scalar grid16_track 0 0 0 0 0 0 0 0 \;;
#X scalar grid16_track 0 0 0 0 0 0 0 0 \;;
#X scalar grid16_track 0 0 0 0 0 0 0 0 \;;
#X scalar grid16_track 0 0 0 0 0 0 0 0 \;;
#X scalar grid16_track 0 0 0 0 0 0 0 0 \;;
#X scalar grid16_track 0 0 0 0 0 0 0 0 \;;
#X scalar grid16_track 0 0 0 0 0 0 0 0 \;;
#X scalar grid16_track 0 0 0 0 0 0 0 0 \;;
#X scalar grid16_track 0 0 0 0 0 0 0 0 \;;
#X scalar grid16_track 0 0 0 0 0 0 0 0 \;;
#X scalar grid16_track 0 0 0 0 0 0 0 0 \;;
#X scalar grid16_track 0 0 0 0 0 0 0 0 \;;
#X scalar grid16_track 0 0 0 0 0 0 0 0 \;;
#X scalar grid16_track 0 0 0 0 0 0 0 0 \;;
#X scalar grid16_track 0 0 0 0 0 0 0 0 \;;
#X scalar grid16_track 0 0 0 0 0 0 0 0 \;;
#X scalar grid16_track 0 0 0 0 0 0 0 0 \;;
#X scalar grid16_track 0 0 0 0 0 0 0 0 \;;
#X scalar grid16_track 0 0 0 0 0 0 0 0 \;;
#X scalar grid16_track 0 0 0 0 0 0 0 0 \;;
#X scalar grid16_track 0 0 0 0 0 0 0 0 \;;
#X scalar grid16_track 0 0 0 0 0 0 0 0 \;;
#X scalar grid16_track 0 0 0 0 0 0 0 0 \;;
#X scalar grid16_track 0 0 0 0 0 0 0 0 \;;
#X scalar grid16_track 0 0 0 0 0 0 0 0 \;;
#X scalar grid16_track 0 0 0 0 0 0 0 0 \;;
#X scalar grid16_track 0 0 0 0 0 0 0 0 \;;
#X scalar grid16_track 0 0 0 0 0 0 0 0 \;;
#X scalar grid16_track 0 0 0 0 0 0 0 0 \;;
#X scalar grid16_track 0 0 0 0 0 0 0 0 \;;
#X scalar grid16_track 0 0 0 0 0 0 0 0 \;;
#X scalar grid16_track 0 0 0 0 0 0 0 0 \;;
#X scalar grid16_track 0 0 0 0 0 0 0 0 \;;
#X scalar grid16_track 0 0 0 0 0 0 0 0 \;;
#X scalar grid16_track 0 0 0 0 0 0 0 0 \;;
#X scalar grid16_track 0 0 0 0 0 0 0 0 \;;
#X scalar grid16_track 0 0 0 0 0 0 0 0 \;;
#X scalar grid16_track 0 0 0 0 0 0 0 0 \;;
#X scalar grid16_track 0 0 0 0 0 0 0 0 \;;
#X scalar grid16_track 0 0 0 0 0 0 0 0 \;;
#X scalar grid16_track 0 0 0 0 0 0 0 0 \;;
#X scalar grid16_track 0 0 0 0 0 0 0 0 \;;
#X scalar grid16_track 0 0 0 0 0 0 0 0 \;;
#X scalar grid16_track 0 0 0 0 0 0 0 0 \;;
#X scalar grid16_track 0 0 0 0 0 0 0 0 \;;
#X scalar grid16_track 0 0 0 0 0 0 0 0 \;;
#X scalar grid16_track 0 0 0 0 0 0 0 0 \;;
#X scalar grid16_track 0 0 0 0 0 0 0 0 \;;
#X scalar grid16_track 0 0 0 0 0 0 0 0 \;;
#X scalar grid16_track 0 0 0 0 0 0 0 0 \;;
#X scalar grid16_track 0 0 0 0 0 0 0 0 \;;
#X scalar grid16_track 0 0 0 0 0 0 0 0 \;;
#X scalar grid16_track 0 0 0 0 0 0 0 0 \;;
#X scalar grid16_track 0 0 0 0 0 0 0 0 \;;
#X scalar grid16_track 0 0 0 0 0 0 0 0 \;;
#X scalar grid16_track 0 0 0 0 0 0 0 0 \;;
#X scalar grid16_track 0 0 0 0 0 0 0 0 \;;
#X scalar grid16_track 0 0 0 0 0 0 0 0 \;;
#X scalar grid16_track 0 0 0 0 0 0 0 0 \;;
#X scalar grid16_track 0 0 0 0 0 0 0 0 \;;
#X scalar grid16_track 0 0 0 0 0 0 0 0 \;;
#X scalar grid16_track 0 0 0 0 0 0 0 0 \;;
#X scalar grid16_track 0 0 0 0 0 0 0 0 \;;
#X scalar grid16_track 0 0 0 0 0 0 0 0 \;;
#X scalar grid16_track 0 0 0 0 0 0 0 0 \;;
#X scalar grid16_track 0 0 0 0 0 0 0 0 \;;
#X scalar grid16_track 0 0 0 0 0 0 0 0 \;;
#X scalar grid16_track 0 0 0 0 0 0 0 0 \;;
#X scalar grid16_track 0 0 0 0 0 0 0 0 \;;
#X scalar grid16_track 0 0 0 0 0 0 0 0 \;;
#X scalar grid16_track 0 0 0 0 0 0 0 0 \;;
#X scalar grid16_track 0 0 0 0 0 0 0 0 \;;
#X scalar grid16_track 0 0 0 0 0 0 0 0 \;;
#X scalar grid16_track 0 0 0 0 0 0 0 0 \;;
#X scalar grid16_track 0 0 0 0 0 0 0 0 \;;
#X scalar grid16_track 0 0 0 0 0 0 0 0 \;;
#X scalar grid16_track 0 0 0 0 0 0 0 0 \;;
#X scalar grid16_track 0 0 0 0 0 0 0 0 \;;
#X scalar grid16_track 0 0 0 0 0 0 0 0 \;;
#X scalar grid16_track 0 0 0 0 0 0 0 0 \;;
#X restore 19 13 pd grid16_track\$1_window;
#X msg 19 81 \; pd-grid16_track\$1_window read blank_grid16_track.txt
;
#X obj 35 287 grid16_midi_output \$2 \$3;
#X obj 31 318 grid16_midi_settings \$2;
#X obj 559 424 s grid16_track\$1_activepattern;
#X obj 746 272 grid16_row_workings \$1 b 2 \$3;
#X obj 746 293 grid16_row_workings \$1 c 3 \$3;
#X obj 746 312 grid16_row_workings \$1 d 4 \$3;
#X obj 746 334 grid16_row_workings \$1 e 5 \$3;
#X obj 746 355 grid16_row_workings \$1 f 6 \$3;
#X obj 746 376 grid16_row_workings \$1 g 7 \$3;
#X obj 746 398 grid16_row_workings \$1 h 8 \$3;
#X obj 731 518 prepend /grid16/pattern_grid/edit;
#X obj 432 468 prepend /grid16/pattern_grid/edit;
#X obj 229 406 prepend /grid16/pattern_number;
#X obj 230 505 prepend /grid16/pattern_seq/length;
#X obj 33 461 prepend /grid16/pattern_seq;
#X connect 0 0 4 0;
#X connect 1 0 27 0;
#X connect 1 1 28 1;
#X connect 2 0 56 0;
#X connect 3 0 55 0;
#X connect 3 1 62 0;
#X connect 3 2 63 0;
#X connect 3 3 64 0;
#X connect 3 4 65 0;
#X connect 3 5 66 0;
#X connect 3 6 67 0;
#X connect 3 7 68 0;
#X connect 4 0 58 0;
#X connect 5 0 29 0;
#X connect 7 0 71 0;
#X connect 8 0 7 0;
#X connect 10 0 36 0;
#X connect 11 0 25 0;
#X connect 12 0 26 1;
#X connect 13 0 17 1;
#X connect 13 0 7 1;
#X connect 13 0 52 1;
#X connect 15 0 16 0;
#X connect 16 0 30 0;
#X connect 16 0 31 0;
#X connect 16 0 34 0;
#X connect 17 0 53 0;
#X connect 17 0 61 0;
#X connect 18 0 3 0;
#X connect 19 0 55 1;
#X connect 19 0 62 1;
#X connect 19 0 63 1;
#X connect 19 0 64 1;
#X connect 19 0 65 1;
#X connect 19 0 66 1;
#X connect 19 0 67 1;
#X connect 19 0 68 1;
#X connect 20 0 17 0;
#X connect 20 1 53 0;
#X connect 20 1 61 0;
#X connect 21 0 11 0;
#X connect 22 0 1 0;
#X connect 23 0 8 0;
#X connect 24 0 10 0;
#X connect 25 0 26 0;
#X connect 25 1 12 0;
#X connect 26 0 73 0;
#X connect 27 0 28 0;
#X connect 27 1 6 1;
#X connect 28 0 6 0;
#X connect 29 0 1 0;
#X connect 30 0 23 0;
#X connect 30 0 21 0;
#X connect 30 0 24 0;
#X connect 30 0 20 0;
#X connect 30 0 60 1;
#X connect 31 0 18 0;
#X connect 31 0 19 0;
#X connect 31 0 22 0;
#X connect 31 0 35 0;
#X connect 31 0 41 0;
#X connect 31 0 59 1;
#X connect 31 0 60 0;
#X connect 32 0 2 0;
#X connect 33 0 56 1;
#X connect 34 0 33 0;
#X connect 35 0 36 1;
#X connect 35 0 56 2;
#X connect 36 0 72 0;
#X connect 37 0 45 0;
#X connect 38 0 14 0;
#X connect 39 0 37 0;
#X connect 40 0 43 0;
#X connect 41 0 42 0;
#X connect 42 0 43 1;
#X connect 42 0 44 0;
#X connect 43 0 17 0;
#X connect 44 0 17 0;
#X connect 45 0 38 0;
#X connect 52 0 59 0;
#X connect 53 0 70 0;
#X connect 55 0 69 0;
#X connect 56 0 52 0;
#X connect 56 1 13 0;
#X connect 60 0 14 0;
#X connect 62 0 69 0;
#X connect 63 0 69 0;
#X connect 64 0 69 0;
#X connect 65 0 69 0;
#X connect 66 0 69 0;
#X connect 67 0 69 0;
#X connect 68 0 69 0;
#X connect 69 0 14 0;
#X connect 70 0 14 0;
#X connect 71 0 14 0;
#X connect 72 0 14 0;
#X connect 73 0 14 0;
#X coords 0 0 1 1 40 40 0;
