#N canvas 246 162 1026 524 10;
#X obj 517 144 until;
#X obj 517 202 pointer;
#X obj 478 231 pointer;
#X msg 517 170 next;
#X obj 416 136 until;
#X msg 478 209 next;
#X obj 472 22 inlet;
#X obj 416 258 i;
#X obj 416 158 t b b;
#X obj 439 258 + 1;
#X msg 460 158 1;
#X obj 572 122 f \$1;
#X msg 29 338 1 \$1 \$2;
#X msg 87 338 2 \$1 \$2;
#X text 26 14 Arguments are :-;
#X text 28 31 1: data window number;
#X msg 416 114 32;
#X obj 517 93 * 32;
#X msg 572 151 traverse pd-grid32_track\$1_window;
#X obj 478 257 get grid32_track a b c d e f g h i j k l m n o p;
#X msg 145 338 3 \$1 \$2;
#X msg 203 338 4 \$1 \$2;
#X msg 261 338 5 \$1 \$2;
#X msg 319 338 6 \$1 \$2;
#X msg 377 338 7 \$1 \$2;
#X msg 435 338 8 \$1 \$2;
#X msg 493 338 9 \$1 \$2;
#X msg 551 338 10 \$1 \$2;
#X msg 609 338 11 \$1 \$2;
#X msg 667 338 12 \$1 \$2;
#X msg 725 338 13 \$1 \$2;
#X msg 783 338 14 \$1 \$2;
#X msg 841 338 15 \$1 \$2;
#X msg 899 338 16 \$1 \$2;
#N canvas 177 159 494 558 pattern-packer 1;
#X obj 134 270 l2s;
#X obj 71 274 bng 15 250 50 0 empty empty empty 0 -6 0 8 -262144 -1
-1;
#X obj 257 295 bng 15 250 50 0 empty empty empty 0 -6 0 8 -262144 -1
-1;
#X obj 71 359 list append;
#X obj 218 339 t l;
#X obj 134 331 list prepend;
#X obj 71 386 route list;
#X obj 149 5 inlet;
#X obj 257 221 inlet;
#X obj 71 223 inlet;
#X obj 71 435 outlet;
#X obj 134 296 pack s s;
#X obj 134 238 t l b;
#X obj 179 268 symbol -;
#X obj 71 410 l2s;
#X obj 71 298 t b b;
#X obj 149 35 unpack 0 0 0;
#X obj 168 185 i;
#X obj 134 185 i;
#X obj 203 65 i;
#X obj 134 211 pack 0 0 0;
#X obj 203 111 sel 1 2;
#X obj 203 87 t f f;
#X obj 203 138 t b b b;
#X obj 149 59 t b f;
#X obj 215 185 i;
#X connect 0 0 11 0;
#X connect 1 0 15 0;
#X connect 2 0 5 1;
#X connect 3 0 6 0;
#X connect 4 0 5 1;
#X connect 5 0 4 0;
#X connect 5 0 3 1;
#X connect 6 0 14 0;
#X connect 7 0 16 0;
#X connect 8 0 2 0;
#X connect 9 0 1 0;
#X connect 11 0 5 0;
#X connect 12 0 0 0;
#X connect 12 1 13 0;
#X connect 13 0 11 1;
#X connect 14 0 10 0;
#X connect 15 0 3 1;
#X connect 15 1 3 0;
#X connect 16 0 24 0;
#X connect 16 1 17 1;
#X connect 16 2 19 1;
#X connect 17 0 20 1;
#X connect 18 0 20 0;
#X connect 19 0 22 0;
#X connect 20 0 12 0;
#X connect 21 0 23 0;
#X connect 21 1 23 0;
#X connect 22 0 21 0;
#X connect 22 1 25 1;
#X connect 23 0 18 0;
#X connect 23 1 17 0;
#X connect 23 2 25 0;
#X connect 24 0 19 0;
#X connect 24 1 18 1;
#X connect 25 0 20 2;
#X restore 450 399 pd pattern-packer;
#X obj 458 476 outlet;
#X obj 472 53 t b b b f b b;
#X msg 690 178 clear;
#X obj 29 317 pack;
#X obj 87 317 pack;
#X obj 145 317 pack;
#X obj 203 317 pack;
#X obj 261 317 pack;
#X obj 319 317 pack;
#X obj 377 317 pack;
#X obj 435 317 pack;
#X obj 493 317 pack;
#X obj 551 317 pack;
#X obj 609 317 pack;
#X obj 667 317 pack;
#X obj 725 317 pack;
#X obj 783 317 pack;
#X obj 841 317 pack;
#X obj 899 317 pack;
#X connect 0 0 3 0;
#X connect 1 0 2 1;
#X connect 2 0 19 0;
#X connect 3 0 1 0;
#X connect 4 0 8 0;
#X connect 5 0 2 0;
#X connect 6 0 36 0;
#X connect 7 0 9 0;
#X connect 7 0 38 0;
#X connect 7 0 39 0;
#X connect 7 0 40 0;
#X connect 7 0 41 0;
#X connect 7 0 42 0;
#X connect 7 0 43 0;
#X connect 7 0 44 0;
#X connect 7 0 45 0;
#X connect 7 0 46 0;
#X connect 7 0 47 0;
#X connect 7 0 48 0;
#X connect 7 0 49 0;
#X connect 7 0 50 0;
#X connect 7 0 51 0;
#X connect 7 0 52 0;
#X connect 7 0 53 0;
#X connect 8 0 7 0;
#X connect 8 1 5 0;
#X connect 9 0 7 1;
#X connect 10 0 7 1;
#X connect 11 0 18 0;
#X connect 12 0 34 1;
#X connect 13 0 34 1;
#X connect 16 0 4 0;
#X connect 17 0 0 0;
#X connect 18 0 1 0;
#X connect 19 0 38 1;
#X connect 19 1 39 1;
#X connect 19 2 40 1;
#X connect 19 3 41 1;
#X connect 19 4 42 1;
#X connect 19 5 43 1;
#X connect 19 6 44 1;
#X connect 19 7 45 1;
#X connect 19 8 46 1;
#X connect 19 9 47 1;
#X connect 19 10 48 1;
#X connect 19 11 49 1;
#X connect 19 12 50 1;
#X connect 19 13 51 1;
#X connect 19 14 52 1;
#X connect 19 15 53 1;
#X connect 20 0 34 1;
#X connect 21 0 34 1;
#X connect 22 0 34 1;
#X connect 23 0 34 1;
#X connect 24 0 34 1;
#X connect 25 0 34 1;
#X connect 26 0 34 1;
#X connect 27 0 34 1;
#X connect 28 0 34 1;
#X connect 29 0 34 1;
#X connect 30 0 34 1;
#X connect 31 0 34 1;
#X connect 32 0 34 1;
#X connect 33 0 34 1;
#X connect 34 0 35 0;
#X connect 36 0 34 0;
#X connect 36 1 16 0;
#X connect 36 2 1 0;
#X connect 36 2 10 0;
#X connect 36 3 17 0;
#X connect 36 4 11 0;
#X connect 36 5 34 2;
#X connect 36 5 37 0;
#X connect 37 0 35 0;
#X connect 38 0 12 0;
#X connect 39 0 13 0;
#X connect 40 0 20 0;
#X connect 41 0 21 0;
#X connect 42 0 22 0;
#X connect 43 0 23 0;
#X connect 44 0 24 0;
#X connect 45 0 25 0;
#X connect 46 0 26 0;
#X connect 47 0 27 0;
#X connect 48 0 28 0;
#X connect 49 0 29 0;
#X connect 50 0 30 0;
#X connect 51 0 31 0;
#X connect 52 0 32 0;
#X connect 53 0 33 0;
