#N canvas 470 52 639 522 10;
#X obj 69 172 bng 15 250 50 0 empty empty empty 17 7 0 10 -262144 -1
-1;
#X obj 69 243 spigot;
#X obj 239 49 tgl 15 0 empty empty empty 17 7 0 10 -262144 -1 -1 0
1;
#X obj 69 279 bng 15 250 50 0 empty empty empty 17 7 0 10 -262144 -1
-1;
#X obj 192 185 sel 1;
#X obj 69 304 i;
#X obj 104 303 + 1;
#X msg 101 275 0;
#X obj 210 344 sel 0;
#X obj 210 374 i;
#X obj 233 374 + 1;
#X obj 206 215 t b b;
#X msg 271 351 0;
#X obj 69 106 inlet;
#X obj 239 17 inlet;
#X obj 69 398 outlet;
#X obj 210 436 outlet;
#X obj 445 108 inlet;
#X floatatom 395 276 5 0 0 0 - - -;
#X obj 276 320 sel 1;
#X obj 210 405 t 0 0;
#X obj 69 367 t 0 0;
#X obj 441 201 loadbang;
#X msg 441 233 1;
#X floatatom 289 463 5 0 0 0 - - -;
#X floatatom 143 428 5 0 0 0 - - -;
#X floatatom 361 470 5 0 0 0 - - -;
#X obj 327 361 bng 15 250 50 0 empty empty empty 17 7 0 10 -262144
-1 -1;
#X obj 332 413 >=;
#X obj 384 320 - 1;
#X obj 180 110 seq_syncplay;
#X obj 150 283 i \$1;
#X obj 135 328 sel;
#X obj 150 261 loadbang;
#X obj 69 338 % \$1;
#X obj 150 306 - 1;
#X connect 0 0 1 0;
#X connect 1 0 3 0;
#X connect 2 0 30 0;
#X connect 3 0 5 0;
#X connect 4 0 11 0;
#X connect 5 0 6 0;
#X connect 5 0 32 0;
#X connect 5 0 34 0;
#X connect 6 0 5 1;
#X connect 7 0 5 1;
#X connect 8 0 9 0;
#X connect 9 0 10 0;
#X connect 9 0 20 0;
#X connect 10 0 9 1;
#X connect 11 0 7 0;
#X connect 11 1 12 0;
#X connect 11 1 18 0;
#X connect 12 0 9 1;
#X connect 13 0 0 0;
#X connect 14 0 2 0;
#X connect 17 0 18 0;
#X connect 18 0 29 0;
#X connect 19 0 12 0;
#X connect 19 0 27 0;
#X connect 20 0 16 0;
#X connect 20 0 24 0;
#X connect 20 1 28 0;
#X connect 21 0 15 0;
#X connect 21 0 25 0;
#X connect 21 1 8 0;
#X connect 22 0 23 0;
#X connect 23 0 18 0;
#X connect 28 0 19 0;
#X connect 28 0 26 0;
#X connect 29 0 28 1;
#X connect 30 0 4 0;
#X connect 30 0 1 1;
#X connect 31 0 35 0;
#X connect 32 0 7 0;
#X connect 33 0 31 0;
#X connect 34 0 21 0;
#X connect 35 0 32 1;
