#N canvas 269 21 904 692 10;
#X obj 64 92 inlet;
#X obj 425 51 inlet;
#X obj 425 72 OSCroute /notes /midi_params;
#X obj 182 635 noteout;
#X obj 555 98 OSCroute /velocity /length /channel;
#X obj 239 577 i \$1;
#X obj 35 16 loadbang;
#X obj 182 611 pack 0 0 0;
#X obj 182 559 t f b;
#X obj 431 414 r bpm;
#X obj 431 435 t b f;
#X msg 431 457 15000;
#X obj 431 479 / 1;
#X obj 416 502 * 1;
#X obj 182 495 i;
#X obj 182 474 t b f;
#X obj 210 510 sel 1 2;
#X obj 210 534 i;
#X msg 234 534 0;
#X obj 64 562 pack 0 0 0;
#X msg 92 526 0;
#X obj 92 497 loadbang;
#X obj 64 400 until;
#X msg 64 376 128;
#X obj 64 423 f;
#X obj 90 423 + 1;
#X msg 96 473 0;
#X obj 96 448 sel 127;
#X obj 217 339 t l;
#X obj 313 311 loadbang;
#X msg 313 380 1;
#X msg 356 380 1;
#X obj 313 356 sel manual auto;
#X obj 182 453 unpack;
#X obj 380 566 i \$1;
#X obj 323 586 pack 0 0 0;
#X obj 323 546 t f b;
#X obj 323 526 makenote 100 500;
#X obj 182 429 spigot;
#X obj 323 421 spigot;
#X obj 323 442 unpack;
#X obj 323 486 i;
#X obj 323 464 sel 1;
#X obj 313 333 symbol \$2;
#X obj 64 117 route 1 2 3 4 5 6 7 8 9 10 11 12 13 14 15 16;
#N canvas 450 47 450 300 packer 0;
#X obj 131 153 i;
#X obj 96 177 pack;
#X obj 146 69 inlet;
#X obj 92 101 t f f b;
#X obj 96 153 i;
#X obj 92 124 sel 1 2;
#X obj 92 69 inlet;
#X obj 96 199 outlet;
#X connect 0 0 1 1;
#X connect 1 0 7 0;
#X connect 2 0 0 1;
#X connect 3 0 5 0;
#X connect 3 1 4 1;
#X connect 3 2 0 0;
#X connect 4 0 1 0;
#X connect 5 0 4 0;
#X connect 5 1 4 0;
#X connect 6 0 3 0;
#X restore 47 180 pd packer;
#N canvas 450 47 450 300 packer 0;
#X obj 131 153 i;
#X obj 96 177 pack;
#X obj 146 69 inlet;
#X obj 92 101 t f f b;
#X obj 96 153 i;
#X obj 92 124 sel 1 2;
#X obj 92 69 inlet;
#X obj 96 199 outlet;
#X connect 0 0 1 1;
#X connect 1 0 7 0;
#X connect 2 0 0 1;
#X connect 3 0 5 0;
#X connect 3 1 4 1;
#X connect 3 2 0 0;
#X connect 4 0 1 0;
#X connect 5 0 4 0;
#X connect 5 1 4 0;
#X connect 6 0 3 0;
#X restore 109 180 pd packer;
#N canvas 450 47 450 300 packer 0;
#X obj 131 153 i;
#X obj 96 177 pack;
#X obj 146 69 inlet;
#X obj 92 101 t f f b;
#X obj 96 153 i;
#X obj 92 124 sel 1 2;
#X obj 92 69 inlet;
#X obj 96 199 outlet;
#X connect 0 0 1 1;
#X connect 1 0 7 0;
#X connect 2 0 0 1;
#X connect 3 0 5 0;
#X connect 3 1 4 1;
#X connect 3 2 0 0;
#X connect 4 0 1 0;
#X connect 5 0 4 0;
#X connect 5 1 4 0;
#X connect 6 0 3 0;
#X restore 171 180 pd packer;
#N canvas 450 47 450 300 packer 0;
#X obj 131 153 i;
#X obj 96 177 pack;
#X obj 146 69 inlet;
#X obj 92 101 t f f b;
#X obj 96 153 i;
#X obj 92 124 sel 1 2;
#X obj 92 69 inlet;
#X obj 96 199 outlet;
#X connect 0 0 1 1;
#X connect 1 0 7 0;
#X connect 2 0 0 1;
#X connect 3 0 5 0;
#X connect 3 1 4 1;
#X connect 3 2 0 0;
#X connect 4 0 1 0;
#X connect 5 0 4 0;
#X connect 5 1 4 0;
#X connect 6 0 3 0;
#X restore 233 180 pd packer;
#N canvas 450 47 450 300 packer 0;
#X obj 131 153 i;
#X obj 96 177 pack;
#X obj 146 69 inlet;
#X obj 92 101 t f f b;
#X obj 96 153 i;
#X obj 92 124 sel 1 2;
#X obj 92 69 inlet;
#X obj 96 199 outlet;
#X connect 0 0 1 1;
#X connect 1 0 7 0;
#X connect 2 0 0 1;
#X connect 3 0 5 0;
#X connect 3 1 4 1;
#X connect 3 2 0 0;
#X connect 4 0 1 0;
#X connect 5 0 4 0;
#X connect 5 1 4 0;
#X connect 6 0 3 0;
#X restore 299 180 pd packer;
#N canvas 450 47 450 300 packer 0;
#X obj 131 153 i;
#X obj 96 177 pack;
#X obj 146 69 inlet;
#X obj 92 101 t f f b;
#X obj 96 153 i;
#X obj 92 124 sel 1 2;
#X obj 92 69 inlet;
#X obj 96 199 outlet;
#X connect 0 0 1 1;
#X connect 1 0 7 0;
#X connect 2 0 0 1;
#X connect 3 0 5 0;
#X connect 3 1 4 1;
#X connect 3 2 0 0;
#X connect 4 0 1 0;
#X connect 5 0 4 0;
#X connect 5 1 4 0;
#X connect 6 0 3 0;
#X restore 361 180 pd packer;
#N canvas 450 47 450 300 packer 0;
#X obj 131 153 i;
#X obj 96 177 pack;
#X obj 146 69 inlet;
#X obj 92 101 t f f b;
#X obj 96 153 i;
#X obj 92 124 sel 1 2;
#X obj 92 69 inlet;
#X obj 96 199 outlet;
#X connect 0 0 1 1;
#X connect 1 0 7 0;
#X connect 2 0 0 1;
#X connect 3 0 5 0;
#X connect 3 1 4 1;
#X connect 3 2 0 0;
#X connect 4 0 1 0;
#X connect 5 0 4 0;
#X connect 5 1 4 0;
#X connect 6 0 3 0;
#X restore 423 180 pd packer;
#N canvas 450 47 450 300 packer 0;
#X obj 131 153 i;
#X obj 96 177 pack;
#X obj 146 69 inlet;
#X obj 92 101 t f f b;
#X obj 96 153 i;
#X obj 92 124 sel 1 2;
#X obj 92 69 inlet;
#X obj 96 199 outlet;
#X connect 0 0 1 1;
#X connect 1 0 7 0;
#X connect 2 0 0 1;
#X connect 3 0 5 0;
#X connect 3 1 4 1;
#X connect 3 2 0 0;
#X connect 4 0 1 0;
#X connect 5 0 4 0;
#X connect 5 1 4 0;
#X connect 6 0 3 0;
#X restore 25 208 pd packer;
#N canvas 450 47 450 300 packer 0;
#X obj 131 153 i;
#X obj 96 177 pack;
#X obj 146 69 inlet;
#X obj 92 101 t f f b;
#X obj 96 153 i;
#X obj 92 124 sel 1 2;
#X obj 92 69 inlet;
#X obj 96 199 outlet;
#X connect 0 0 1 1;
#X connect 1 0 7 0;
#X connect 2 0 0 1;
#X connect 3 0 5 0;
#X connect 3 1 4 1;
#X connect 3 2 0 0;
#X connect 4 0 1 0;
#X connect 5 0 4 0;
#X connect 5 1 4 0;
#X connect 6 0 3 0;
#X restore 87 208 pd packer;
#N canvas 450 47 450 300 packer 0;
#X obj 131 153 i;
#X obj 96 177 pack;
#X obj 146 69 inlet;
#X obj 92 101 t f f b;
#X obj 96 153 i;
#X obj 92 124 sel 1 2;
#X obj 92 69 inlet;
#X obj 96 199 outlet;
#X connect 0 0 1 1;
#X connect 1 0 7 0;
#X connect 2 0 0 1;
#X connect 3 0 5 0;
#X connect 3 1 4 1;
#X connect 3 2 0 0;
#X connect 4 0 1 0;
#X connect 5 0 4 0;
#X connect 5 1 4 0;
#X connect 6 0 3 0;
#X restore 149 208 pd packer;
#N canvas 450 47 450 300 packer 0;
#X obj 131 153 i;
#X obj 96 177 pack;
#X obj 146 69 inlet;
#X obj 92 101 t f f b;
#X obj 96 153 i;
#X obj 92 124 sel 1 2;
#X obj 92 69 inlet;
#X obj 96 199 outlet;
#X connect 0 0 1 1;
#X connect 1 0 7 0;
#X connect 2 0 0 1;
#X connect 3 0 5 0;
#X connect 3 1 4 1;
#X connect 3 2 0 0;
#X connect 4 0 1 0;
#X connect 5 0 4 0;
#X connect 5 1 4 0;
#X connect 6 0 3 0;
#X restore 211 208 pd packer;
#N canvas 450 47 450 300 packer 0;
#X obj 131 153 i;
#X obj 96 177 pack;
#X obj 146 69 inlet;
#X obj 92 101 t f f b;
#X obj 96 153 i;
#X obj 92 124 sel 1 2;
#X obj 92 69 inlet;
#X obj 96 199 outlet;
#X connect 0 0 1 1;
#X connect 1 0 7 0;
#X connect 2 0 0 1;
#X connect 3 0 5 0;
#X connect 3 1 4 1;
#X connect 3 2 0 0;
#X connect 4 0 1 0;
#X connect 5 0 4 0;
#X connect 5 1 4 0;
#X connect 6 0 3 0;
#X restore 277 208 pd packer;
#N canvas 450 47 450 300 packer 0;
#X obj 131 153 i;
#X obj 96 177 pack;
#X obj 146 69 inlet;
#X obj 92 101 t f f b;
#X obj 96 153 i;
#X obj 92 124 sel 1 2;
#X obj 92 69 inlet;
#X obj 96 199 outlet;
#X connect 0 0 1 1;
#X connect 1 0 7 0;
#X connect 2 0 0 1;
#X connect 3 0 5 0;
#X connect 3 1 4 1;
#X connect 3 2 0 0;
#X connect 4 0 1 0;
#X connect 5 0 4 0;
#X connect 5 1 4 0;
#X connect 6 0 3 0;
#X restore 339 208 pd packer;
#N canvas 450 47 450 300 packer 0;
#X obj 131 153 i;
#X obj 96 177 pack;
#X obj 146 69 inlet;
#X obj 92 101 t f f b;
#X obj 96 153 i;
#X obj 92 124 sel 1 2;
#X obj 92 69 inlet;
#X obj 96 199 outlet;
#X connect 0 0 1 1;
#X connect 1 0 7 0;
#X connect 2 0 0 1;
#X connect 3 0 5 0;
#X connect 3 1 4 1;
#X connect 3 2 0 0;
#X connect 4 0 1 0;
#X connect 5 0 4 0;
#X connect 5 1 4 0;
#X connect 6 0 3 0;
#X restore 401 208 pd packer;
#N canvas 450 47 450 300 packer 0;
#X obj 131 153 i;
#X obj 96 177 pack;
#X obj 146 69 inlet;
#X obj 92 101 t f f b;
#X obj 96 153 i;
#X obj 92 124 sel 1 2;
#X obj 92 69 inlet;
#X obj 96 199 outlet;
#X connect 0 0 1 1;
#X connect 1 0 7 0;
#X connect 2 0 0 1;
#X connect 3 0 5 0;
#X connect 3 1 4 1;
#X connect 3 2 0 0;
#X connect 4 0 1 0;
#X connect 5 0 4 0;
#X connect 5 1 4 0;
#X connect 6 0 3 0;
#X restore 467 206 pd packer;
#X obj 392 119 route 1 2 3 4 5 6 7 8 9 10 11 12 13 14 15 16;
#N canvas 450 47 450 300 packer 0;
#X obj 131 153 i;
#X obj 96 177 pack;
#X obj 146 69 inlet;
#X obj 92 101 t f f b;
#X obj 96 153 i;
#X obj 92 124 sel 1 2;
#X obj 92 69 inlet;
#X obj 96 199 outlet;
#X connect 0 0 1 1;
#X connect 1 0 7 0;
#X connect 2 0 0 1;
#X connect 3 0 5 0;
#X connect 3 1 4 1;
#X connect 3 2 0 0;
#X connect 4 0 1 0;
#X connect 5 0 4 0;
#X connect 5 1 4 0;
#X connect 6 0 3 0;
#X restore -16 179 pd packer;
#X msg 35 38 1 67 \, 2 66 \, 3 65 \, 4 64 \, 5 63 \, 6 62 \, 7 61 \,
8 60 \, 9 59 \, 10 58 \, 11 57 \, 12 56 \, 13 55 \, 14 54 \, 15 53
\, 16 52;
#X connect 0 0 44 0;
#X connect 1 0 2 0;
#X connect 2 0 60 0;
#X connect 2 1 4 0;
#X connect 4 0 17 1;
#X connect 4 0 37 1;
#X connect 4 1 13 0;
#X connect 4 2 5 1;
#X connect 4 2 34 1;
#X connect 5 0 7 2;
#X connect 6 0 62 0;
#X connect 7 0 3 0;
#X connect 8 0 7 0;
#X connect 8 1 5 0;
#X connect 9 0 10 0;
#X connect 10 0 11 0;
#X connect 10 1 12 1;
#X connect 11 0 12 0;
#X connect 12 0 13 1;
#X connect 13 0 37 2;
#X connect 14 0 8 0;
#X connect 15 0 14 0;
#X connect 15 1 16 0;
#X connect 16 0 17 0;
#X connect 16 1 18 0;
#X connect 17 0 7 1;
#X connect 18 0 7 1;
#X connect 20 0 19 1;
#X connect 21 0 20 0;
#X connect 22 0 24 0;
#X connect 23 0 22 0;
#X connect 24 0 25 0;
#X connect 24 0 27 0;
#X connect 24 0 19 0;
#X connect 25 0 24 1;
#X connect 26 0 24 1;
#X connect 27 0 26 0;
#X connect 28 0 39 0;
#X connect 28 0 38 0;
#X connect 29 0 43 0;
#X connect 30 0 38 1;
#X connect 31 0 39 1;
#X connect 32 0 30 0;
#X connect 32 1 31 0;
#X connect 33 0 15 0;
#X connect 33 1 14 1;
#X connect 34 0 35 2;
#X connect 36 0 35 0;
#X connect 36 1 34 0;
#X connect 37 0 36 0;
#X connect 37 1 35 1;
#X connect 38 0 33 0;
#X connect 39 0 40 0;
#X connect 40 0 42 0;
#X connect 40 1 41 1;
#X connect 41 0 37 0;
#X connect 42 0 41 0;
#X connect 43 0 32 0;
#X connect 44 0 61 0;
#X connect 44 1 52 0;
#X connect 44 2 45 0;
#X connect 44 3 53 0;
#X connect 44 4 46 0;
#X connect 44 5 54 0;
#X connect 44 6 47 0;
#X connect 44 7 55 0;
#X connect 44 8 48 0;
#X connect 44 9 56 0;
#X connect 44 10 49 0;
#X connect 44 11 57 0;
#X connect 44 12 50 0;
#X connect 44 13 58 0;
#X connect 44 14 51 0;
#X connect 44 15 59 0;
#X connect 45 0 28 0;
#X connect 46 0 28 0;
#X connect 47 0 28 0;
#X connect 48 0 28 0;
#X connect 49 0 28 0;
#X connect 50 0 28 0;
#X connect 51 0 28 0;
#X connect 52 0 28 0;
#X connect 53 0 28 0;
#X connect 54 0 28 0;
#X connect 55 0 28 0;
#X connect 56 0 28 0;
#X connect 57 0 28 0;
#X connect 58 0 28 0;
#X connect 59 0 28 0;
#X connect 60 0 61 1;
#X connect 60 1 52 1;
#X connect 60 2 45 1;
#X connect 60 3 53 1;
#X connect 60 4 46 1;
#X connect 60 5 54 1;
#X connect 60 6 47 1;
#X connect 60 7 55 1;
#X connect 60 8 48 1;
#X connect 60 9 56 1;
#X connect 60 10 49 1;
#X connect 60 11 57 1;
#X connect 60 12 50 1;
#X connect 60 13 58 1;
#X connect 60 14 51 1;
#X connect 60 15 59 1;
#X connect 61 0 28 0;
#X connect 62 0 60 0;
