#N canvas 33 94 1024 445 10;
#X obj 394 149 until;
#X obj 394 207 pointer;
#X obj 359 236 pointer;
#X msg 394 175 next;
#X obj 239 149 until;
#X msg 359 214 next;
#X obj 360 16 inlet;
#X obj 148 248 i;
#X obj 239 171 t b b;
#X obj 171 248 + 1;
#X obj 17 311 pack 0 0;
#X obj 71 311 pack 0 0;
#X obj 125 311 pack 0 0;
#X obj 179 311 pack 0 0;
#X obj 233 311 pack 0 0;
#X obj 287 311 pack 0 0;
#X obj 341 311 pack 0 0;
#X obj 395 311 pack 0 0;
#X msg 283 171 1;
#X obj 449 127 f \$1;
#X obj 434 411 outlet;
#X msg 17 338 1 \$1 \$2;
#X msg 71 338 2 \$1 \$2;
#X msg 125 338 3 \$1 \$2;
#X msg 179 338 4 \$1 \$2;
#X msg 233 338 5 \$1 \$2;
#X msg 287 338 6 \$1 \$2;
#X msg 341 338 7 \$1 \$2;
#X msg 395 338 8 \$1 \$2;
#X obj 360 58 t b b f b b;
#X msg 567 183 clear;
#X text 14 14 Arguments are :-;
#X text 16 31 1: data window number;
#X msg 239 127 32;
#X obj 394 98 * 32;
#X obj 449 311 pack 0 0;
#X obj 503 311 pack 0 0;
#X obj 557 311 pack 0 0;
#X obj 611 311 pack 0 0;
#X obj 665 311 pack 0 0;
#X obj 719 311 pack 0 0;
#X obj 773 311 pack 0 0;
#X obj 827 311 pack 0 0;
#X obj 359 262 get mv_track a b c d e f g h i j k l m n o p;
#X msg 449 156 traverse pd-grid32_track\$1_window;
#X msg 449 338 9 \$1 \$2;
#X msg 503 338 10 \$1 \$2;
#X msg 557 338 11 \$1 \$2;
#X msg 611 338 12 \$1 \$2;
#X msg 665 338 13 \$1 \$2;
#X msg 719 338 14 \$1 \$2;
#X msg 773 338 15 \$1 \$2;
#X msg 827 338 16 \$1 \$2;
#X connect 0 0 3 0;
#X connect 1 0 2 1;
#X connect 2 0 43 0;
#X connect 3 0 1 0;
#X connect 4 0 8 0;
#X connect 5 0 2 0;
#X connect 6 0 29 0;
#X connect 7 0 9 0;
#X connect 7 0 10 0;
#X connect 7 0 11 0;
#X connect 7 0 12 0;
#X connect 7 0 13 0;
#X connect 7 0 14 0;
#X connect 7 0 15 0;
#X connect 7 0 16 0;
#X connect 7 0 17 0;
#X connect 7 0 42 0;
#X connect 7 0 41 0;
#X connect 7 0 40 0;
#X connect 7 0 39 0;
#X connect 7 0 38 0;
#X connect 7 0 37 0;
#X connect 7 0 36 0;
#X connect 7 0 35 0;
#X connect 8 0 7 0;
#X connect 8 1 5 0;
#X connect 9 0 7 1;
#X connect 10 0 21 0;
#X connect 11 0 22 0;
#X connect 12 0 23 0;
#X connect 13 0 24 0;
#X connect 14 0 25 0;
#X connect 15 0 26 0;
#X connect 16 0 27 0;
#X connect 17 0 28 0;
#X connect 18 0 7 1;
#X connect 19 0 44 0;
#X connect 21 0 20 0;
#X connect 22 0 20 0;
#X connect 23 0 20 0;
#X connect 24 0 20 0;
#X connect 25 0 20 0;
#X connect 26 0 20 0;
#X connect 27 0 20 0;
#X connect 28 0 20 0;
#X connect 29 0 33 0;
#X connect 29 1 18 0;
#X connect 29 1 1 0;
#X connect 29 2 34 0;
#X connect 29 3 19 0;
#X connect 29 4 30 0;
#X connect 30 0 20 0;
#X connect 33 0 4 0;
#X connect 34 0 0 0;
#X connect 35 0 45 0;
#X connect 36 0 46 0;
#X connect 37 0 47 0;
#X connect 38 0 48 0;
#X connect 39 0 49 0;
#X connect 40 0 50 0;
#X connect 41 0 51 0;
#X connect 42 0 52 0;
#X connect 43 0 10 1;
#X connect 43 1 11 1;
#X connect 43 2 12 1;
#X connect 43 3 13 1;
#X connect 43 4 14 1;
#X connect 43 5 15 1;
#X connect 43 6 16 1;
#X connect 43 7 17 1;
#X connect 43 8 35 1;
#X connect 43 9 36 1;
#X connect 43 10 37 1;
#X connect 43 11 38 1;
#X connect 43 12 39 1;
#X connect 43 13 40 1;
#X connect 43 14 41 1;
#X connect 43 15 42 1;
#X connect 44 0 1 0;
#X connect 45 0 20 0;
#X connect 46 0 20 0;
#X connect 47 0 20 0;
#X connect 48 0 20 0;
#X connect 49 0 20 0;
#X connect 50 0 20 0;
#X connect 51 0 20 0;
#X connect 52 0 20 0;
