#N canvas 99 31 796 647 10;
#X obj -206 309 i;
#X obj -171 309 i;
#X obj -136 309 i;
#X obj -101 309 i;
#X obj -66 309 i;
#X obj -31 309 i;
#X obj 4 309 i;
#X obj 39 309 i;
#X msg -206 337 1 \$1;
#X obj -204 132 inlet;
#X obj 29 120 inlet;
#X obj 78 185 bng 15 250 50 0 empty empty empty 17 7 0 10 -262144 -1
-1;
#X msg -171 337 2 \$1;
#X msg -136 337 3 \$1;
#X msg -101 337 4 \$1;
#X msg -66 337 5 \$1;
#X msg -31 337 6 \$1;
#X msg 4 337 7 \$1;
#X msg 39 337 8 \$1;
#X obj 18 412 bng 15 250 50 0 empty empty empty 17 7 0 10 -262144 -1
-1;
#X obj 94 427 bng 15 250 50 0 empty empty empty 17 7 0 10 -262144 -1
-1;
#X obj -37 604 outlet;
#X obj -204 155 OSCroute /notes /midi_params;
#X obj 29 145 OSCroute /notes /midi_params /all_midi_params;
#X obj 226 236 OSCroute /velocity /length /channel;
#X obj 150 171 t b b b b;
#X obj 55 374 OSCroute /velocity /length /channel;
#X obj 212 419 bng 15 250 50 0 empty empty empty 17 7 0 10 -262144
-1 -1;
#X obj 18 445 i 100;
#X obj 212 441 i \$1;
#X obj -229 51 loadbang;
#X obj -21 487 prepend velocity;
#X obj 212 465 prepend channel;
#X obj 94 469 prepend length;
#X obj -90 394 prepend notes;
#X obj 94 447 i 4;
#X obj 76 309 i;
#X obj 111 309 i;
#X obj 146 309 i;
#X obj 181 309 i;
#X obj 216 309 i;
#X obj 251 309 i;
#X obj 286 309 i;
#X obj 321 309 i;
#X msg 76 337 1 \$1;
#X msg 111 337 2 \$1;
#X msg 146 337 3 \$1;
#X msg 181 337 4 \$1;
#X msg 216 337 5 \$1;
#X msg 251 337 6 \$1;
#X msg 286 337 7 \$1;
#X msg 321 337 8 \$1;
#X obj -204 177 route 1 2 3 4 5 6 7 8 9 10 11 12 13 14 15 16;
#X msg -229 76 1 67 \, 2 66 \, 3 65 \, 4 64 \, 5 63 \, 6 62 \, 7 61
\, 8 60 \, 9 59 \, 10 58 \, 11 57 \, 12 56 \, 13 55 \, 14 54 \, 15
53 \, 16 52;
#X obj -20 563 prepend /grid32/midi_params;
#X connect 0 0 8 0;
#X connect 1 0 12 0;
#X connect 2 0 13 0;
#X connect 3 0 14 0;
#X connect 4 0 15 0;
#X connect 5 0 16 0;
#X connect 6 0 17 0;
#X connect 7 0 18 0;
#X connect 8 0 34 0;
#X connect 9 0 22 0;
#X connect 10 0 23 0;
#X connect 11 0 0 0;
#X connect 11 0 1 0;
#X connect 11 0 2 0;
#X connect 11 0 3 0;
#X connect 11 0 4 0;
#X connect 11 0 5 0;
#X connect 11 0 6 0;
#X connect 11 0 7 0;
#X connect 11 0 36 0;
#X connect 11 0 37 0;
#X connect 11 0 38 0;
#X connect 11 0 39 0;
#X connect 11 0 40 0;
#X connect 11 0 41 0;
#X connect 11 0 42 0;
#X connect 11 0 43 0;
#X connect 12 0 34 0;
#X connect 13 0 34 0;
#X connect 14 0 34 0;
#X connect 15 0 34 0;
#X connect 16 0 34 0;
#X connect 17 0 34 0;
#X connect 18 0 34 0;
#X connect 19 0 28 0;
#X connect 20 0 35 0;
#X connect 22 0 52 0;
#X connect 22 1 24 0;
#X connect 23 0 11 0;
#X connect 23 1 26 0;
#X connect 23 2 25 0;
#X connect 24 0 28 1;
#X connect 24 1 35 1;
#X connect 24 2 29 1;
#X connect 25 0 11 0;
#X connect 25 1 19 0;
#X connect 25 2 20 0;
#X connect 25 3 27 0;
#X connect 26 0 19 0;
#X connect 26 1 20 0;
#X connect 26 2 27 0;
#X connect 27 0 29 0;
#X connect 28 0 31 0;
#X connect 29 0 32 0;
#X connect 30 0 53 0;
#X connect 31 0 54 0;
#X connect 32 0 54 0;
#X connect 33 0 54 0;
#X connect 34 0 54 0;
#X connect 35 0 33 0;
#X connect 36 0 44 0;
#X connect 37 0 45 0;
#X connect 38 0 46 0;
#X connect 39 0 47 0;
#X connect 40 0 48 0;
#X connect 41 0 49 0;
#X connect 42 0 50 0;
#X connect 43 0 51 0;
#X connect 52 0 0 1;
#X connect 52 1 1 1;
#X connect 52 2 2 1;
#X connect 52 3 3 1;
#X connect 52 4 4 1;
#X connect 52 5 5 1;
#X connect 52 6 6 1;
#X connect 52 7 7 1;
#X connect 52 8 36 1;
#X connect 52 9 37 1;
#X connect 52 10 38 1;
#X connect 52 11 39 1;
#X connect 52 12 40 1;
#X connect 52 13 41 1;
#X connect 52 14 42 1;
#X connect 52 15 43 1;
#X connect 53 0 52 0;
#X connect 54 0 21 0;
