#N canvas 424 149 644 512 10;
#X floatatom 143 247 5 0 0 0 - - -;
#X floatatom 200 247 5 1 8 0 - - -;
#X obj 228 324 until;
#X obj 209 297 t b f b;
#X obj 228 379 pointer;
#X obj 209 408 pointer;
#X msg 228 352 next;
#X floatatom 244 236 5 1 8 0 - - -;
#X obj 143 77 unpack 0 0;
#X obj 200 220 t f b;
#X obj 243 204 inlet;
#X obj 143 53 inlet;
#X obj 209 272 + 1;
#X obj 243 258 * 16;
#X obj 277 318 f \$1;
#X obj 143 217 i;
#X obj 143 100 t b b f;
#X obj 46 238 pack 0 0 0;
#X obj 46 201 i \$3;
#X obj 46 272 outlet;
#X obj 200 146 sel 0 1 2;
#X msg 200 167 1;
#X msg 227 167 2;
#X msg 254 167 0;
#X obj 252 15 loadbang;
#X obj 252 37 symbol \$4;
#X msg 295 165 1;
#X msg 322 165 0;
#X obj 295 144 sel 0 1;
#X obj 200 118 spigot;
#X obj 295 119 spigot;
#X msg 252 83 1;
#X msg 295 83 1;
#X obj 252 60 sel manual auto;
#X text 332 219 Arguments are :-;
#X text 334 236 1: data window number;
#X text 334 248 2: data structure list;
#X text 334 260 3: pattern row number;
#X text 334 272 4: manual or automatic note off;
#X msg 277 342 traverse pd-grid16_track\$1_window;
#X obj 304 194 r grid16_track\$1_activepattern;
#X obj 143 441 set grid16_track \$2;
#X connect 0 0 41 0;
#X connect 1 0 12 0;
#X connect 2 0 6 0;
#X connect 3 0 5 0;
#X connect 3 1 2 0;
#X connect 3 2 14 0;
#X connect 4 0 5 1;
#X connect 5 0 41 1;
#X connect 6 0 4 0;
#X connect 7 0 13 0;
#X connect 8 0 16 0;
#X connect 8 1 29 0;
#X connect 8 1 30 0;
#X connect 9 0 1 0;
#X connect 9 1 7 0;
#X connect 10 0 7 0;
#X connect 11 0 8 0;
#X connect 12 0 3 0;
#X connect 13 0 12 1;
#X connect 14 0 39 0;
#X connect 15 0 0 0;
#X connect 16 0 15 0;
#X connect 16 1 18 0;
#X connect 16 2 9 0;
#X connect 16 2 17 1;
#X connect 17 0 19 0;
#X connect 18 0 17 0;
#X connect 20 0 21 0;
#X connect 20 1 22 0;
#X connect 20 2 23 0;
#X connect 21 0 15 1;
#X connect 21 0 17 2;
#X connect 22 0 15 1;
#X connect 22 0 17 2;
#X connect 23 0 15 1;
#X connect 23 0 17 2;
#X connect 24 0 25 0;
#X connect 25 0 33 0;
#X connect 26 0 17 2;
#X connect 26 0 15 1;
#X connect 27 0 17 2;
#X connect 27 0 15 1;
#X connect 28 0 26 0;
#X connect 28 1 27 0;
#X connect 29 0 20 0;
#X connect 30 0 28 0;
#X connect 31 0 29 1;
#X connect 32 0 30 1;
#X connect 33 0 31 0;
#X connect 33 1 32 0;
#X connect 39 0 4 0;
#X connect 40 0 7 0;
