#N canvas 293 73 929 423 10;
#X obj 254 110 until;
#X obj 254 168 pointer;
#X obj 215 197 pointer;
#X msg 254 136 next;
#X msg 215 175 next;
#X obj 235 27 inlet;
#X obj 194 27 inlet;
#X obj 235 55 t b f b;
#X obj 194 61 t b;
#X obj 301 95 f \$1;
#X obj 271 380 outlet;
#X msg 71 309 1 \$1;
#X msg 111 309 2 \$1;
#X msg 151 309 3 \$1;
#X msg 191 309 4 \$1;
#X msg 233 309 5 \$1;
#X msg 271 309 6 \$1;
#X msg 311 309 7 \$1;
#X msg 351 309 8 \$1;
#X msg 388 310 9 \$1;
#X msg 428 310 10 \$1;
#X msg 468 310 11 \$1;
#X msg 508 310 12 \$1;
#X msg 550 310 13 \$1;
#X msg 588 310 14 \$1;
#X msg 628 310 15 \$1;
#X msg 668 310 16 \$1;
#X msg 301 132 traverse pd-grid32_track\$1_window;
#X obj 254 83 * 32;
#X obj 215 219 get grid32_track a b c d e f g h i j k l m n o p;
#X connect 0 0 3 0;
#X connect 1 0 2 1;
#X connect 2 0 29 0;
#X connect 3 0 1 0;
#X connect 4 0 2 0;
#X connect 5 0 7 0;
#X connect 6 0 8 0;
#X connect 7 0 1 0;
#X connect 7 1 28 0;
#X connect 7 2 9 0;
#X connect 8 0 4 0;
#X connect 9 0 27 0;
#X connect 11 0 10 0;
#X connect 12 0 10 0;
#X connect 13 0 10 0;
#X connect 14 0 10 0;
#X connect 15 0 10 0;
#X connect 16 0 10 0;
#X connect 17 0 10 0;
#X connect 18 0 10 0;
#X connect 19 0 10 0;
#X connect 20 0 10 0;
#X connect 21 0 10 0;
#X connect 22 0 10 0;
#X connect 23 0 10 0;
#X connect 24 0 10 0;
#X connect 25 0 10 0;
#X connect 26 0 10 0;
#X connect 27 0 1 0;
#X connect 28 0 0 0;
#X connect 29 0 11 0;
#X connect 29 1 12 0;
#X connect 29 2 13 0;
#X connect 29 3 14 0;
#X connect 29 4 15 0;
#X connect 29 5 16 0;
#X connect 29 6 17 0;
#X connect 29 7 18 0;
#X connect 29 8 19 0;
#X connect 29 9 20 0;
#X connect 29 10 21 0;
#X connect 29 11 22 0;
#X connect 29 12 23 0;
#X connect 29 13 24 0;
#X connect 29 14 25 0;
#X connect 29 15 26 0;
