#N canvas 184 107 1007 547 12;
#X msg 52 238 252;
#X msg 13 237 250;
#X obj 13 271 f;
#X msg 129 238 248;
#N canvas 8 41 508 358 make.clock 0;
#X obj 262 43 inlet;
#X obj 51 24 inlet;
#X obj 174 306 outlet;
#X msg 135 179 stop;
#X obj 137 130 sel start stop;
#X obj 180 274 spigot;
#X msg 258 230 1;
#X msg 286 229 0;
#X obj 182 237 b;
#X obj 50 257 outlet;
#X obj 181 214 metro 25;
#X msg 77 177 bang;
#X obj 309 127 * 24;
#X obj 269 98 trigger b f;
#X obj 272 161 / 1;
#X obj 269 130 60000;
#X floatatom 269 74 5 0 0 0 - - -;
#X floatatom 274 188 5 0 0 0 - - -;
#X connect 0 0 16 0;
#X connect 1 0 4 0;
#X connect 1 0 9 0;
#X connect 3 0 10 0;
#X connect 4 0 11 0;
#X connect 4 0 6 0;
#X connect 4 1 3 0;
#X connect 4 1 7 0;
#X connect 5 0 2 0;
#X connect 6 0 5 1;
#X connect 7 0 5 1;
#X connect 8 0 5 0;
#X connect 10 0 8 0;
#X connect 11 0 10 0;
#X connect 12 0 14 1;
#X connect 13 0 15 0;
#X connect 13 1 12 0;
#X connect 14 0 17 0;
#X connect 15 0 14 0;
#X connect 16 0 13 0;
#X connect 17 0 10 1;
#X restore 13 171 pd make.clock;
#X obj 13 208 sel start stop;
#X obj 13 138 symbol;
#X msg 13 101 start;
#X msg 63 101 stop;
#X obj 13 306 midiout;
#X text 418 28 midi-out example;
#X text 417 46 e.skogen/audionerd.com;
#X obj 13 29 inlet;
#X obj 13 59 sel 0 1;
#X obj 165 15 inlet;
#X obj 292 200 f;
#X obj 318 200 + 1;
#X obj 292 234 % 3;
#X obj 235 305 f;
#X obj 261 305 + 1;
#X obj 292 266 sel 0;
#X msg 292 170 0;
#X obj 89 20 tgl 15 0 empty empty empty 0 -6 0 8 -262144 -1 -1 0 1
;
#X obj 336 303 bng 15 250 50 0 empty empty empty 0 -6 0 8 -262144 -1
-1;
#X obj 71 59 s start-stop;
#X msg 358 273 1;
#X obj 336 332 s 32ndbangs;
#X obj 101 311 s midiclock_sync;
#X obj 235 332 s 32ndnumbers;
#X obj 209 93 s start_stop_bangs;
#X floatatom 165 63 5 0 0 0 - - -;
#X text 417 71 This path was grabbed off the interwebs and modified
somewhat. Thanks for the example;
#X text 38 325 comment;
#X obj 491 200 f;
#X obj 517 200 + 1;
#X obj 434 305 f;
#X obj 460 305 + 1;
#X obj 491 266 sel 0;
#X msg 491 170 0;
#X obj 535 303 bng 15 250 50 0 empty empty empty 0 -6 0 8 -262144 -1
-1;
#X msg 557 273 1;
#X obj 491 234 % 6;
#X obj 434 332 s 16thnumbers;
#X obj 535 332 s 16thbangs;
#X obj 704 236 f;
#X obj 730 236 + 1;
#X obj 647 304 f;
#X obj 673 304 + 1;
#X msg 704 206 0;
#X obj 748 302 bng 15 250 50 0 empty empty empty 0 -6 0 8 -262144 -1
-1;
#X msg 770 272 1;
#X obj 704 265 sel 96;
#X obj 647 331 s barnumbers;
#X obj 748 331 s barbangs;
#X obj 152 149 s bpm;
#X msg 220 35 140;
#X obj 226 10 loadbang;
#X connect 0 0 2 0;
#X connect 1 0 2 0;
#X connect 2 0 9 0;
#X connect 3 0 2 0;
#X connect 4 0 5 0;
#X connect 4 1 3 0;
#X connect 4 1 15 0;
#X connect 4 1 27 0;
#X connect 4 1 33 0;
#X connect 4 1 44 0;
#X connect 5 0 1 0;
#X connect 5 1 0 0;
#X connect 6 0 4 0;
#X connect 7 0 6 0;
#X connect 8 0 6 0;
#X connect 12 0 13 0;
#X connect 13 0 8 0;
#X connect 13 0 29 0;
#X connect 13 1 7 0;
#X connect 13 1 21 0;
#X connect 13 1 29 0;
#X connect 13 1 38 0;
#X connect 13 1 48 0;
#X connect 14 0 30 0;
#X connect 15 0 16 0;
#X connect 15 0 17 0;
#X connect 16 0 15 1;
#X connect 17 0 20 0;
#X connect 18 0 19 0;
#X connect 18 0 28 0;
#X connect 19 0 18 1;
#X connect 19 0 28 0;
#X connect 20 0 18 0;
#X connect 20 0 23 0;
#X connect 20 0 25 0;
#X connect 21 0 15 0;
#X connect 21 0 18 0;
#X connect 22 0 13 0;
#X connect 22 0 24 0;
#X connect 23 0 26 0;
#X connect 25 0 15 1;
#X connect 30 0 4 1;
#X connect 30 0 54 0;
#X connect 33 0 34 0;
#X connect 33 0 41 0;
#X connect 34 0 33 1;
#X connect 35 0 36 0;
#X connect 35 0 42 0;
#X connect 36 0 35 1;
#X connect 36 0 42 0;
#X connect 37 0 35 0;
#X connect 37 0 39 0;
#X connect 37 0 40 0;
#X connect 38 0 33 0;
#X connect 38 0 35 0;
#X connect 39 0 43 0;
#X connect 40 0 33 1;
#X connect 41 0 37 0;
#X connect 44 0 45 0;
#X connect 44 0 51 0;
#X connect 45 0 44 1;
#X connect 46 0 47 0;
#X connect 46 0 52 0;
#X connect 47 0 46 1;
#X connect 47 0 52 0;
#X connect 48 0 44 0;
#X connect 48 0 46 0;
#X connect 49 0 53 0;
#X connect 50 0 44 1;
#X connect 51 0 46 0;
#X connect 51 0 49 0;
#X connect 51 0 50 0;
#X connect 55 0 30 0;
#X connect 56 0 55 0;
