#N canvas 534 176 560 429 10;
#X floatatom 199 145 5 0 0 0 - - -;
#X floatatom 254 145 5 1 8 0 - - -;
#X obj 273 222 until;
#X obj 254 195 t b f b;
#X obj 273 277 pointer;
#X obj 254 306 pointer;
#X msg 273 250 next;
#X floatatom 298 134 5 1 8 0 - - -;
#X obj 254 118 t f b;
#X obj 298 97 inlet;
#X obj 199 39 inlet;
#X obj 254 170 + 1;
#X obj 297 156 * 16;
#X obj 322 216 f \$1;
#X obj 312 307 print track\$1_pointererror;
#X obj 199 64 unpack 0 0 0;
#X obj 199 115 * 1;
#X obj 199 89 t f f;
#X obj 199 173 t f b f;
#X obj 117 395 outlet;
#X obj 45 281 i;
#X msg 117 228 1 \, 2 \, 3 \, 4 \, 5 \, 6 \, 7 \, 8;
#X obj 145 294 i;
#X obj 117 268 t f b b;
#X msg 174 294 0;
#X obj 117 322 pack 0 0 0;
#X obj 26 248 t f b b;
#X obj 26 310 pack 0 0 0;
#X obj 80 281 i;
#X msg 322 240 traverse pd-mono_track\$1_window;
#X obj 238 334 set mono_track a;
#X connect 0 0 18 0;
#X connect 1 0 11 0;
#X connect 2 0 6 0;
#X connect 3 0 5 0;
#X connect 3 1 2 0;
#X connect 3 2 13 0;
#X connect 4 0 5 1;
#X connect 4 1 14 0;
#X connect 5 0 30 1;
#X connect 6 0 4 0;
#X connect 7 0 12 0;
#X connect 8 0 1 0;
#X connect 8 1 7 0;
#X connect 9 0 7 0;
#X connect 10 0 15 0;
#X connect 11 0 3 0;
#X connect 12 0 11 1;
#X connect 13 0 29 0;
#X connect 15 0 17 0;
#X connect 15 1 8 0;
#X connect 15 1 20 1;
#X connect 15 1 22 1;
#X connect 15 2 16 1;
#X connect 15 2 28 1;
#X connect 16 0 0 0;
#X connect 17 0 16 0;
#X connect 18 0 26 0;
#X connect 18 1 21 0;
#X connect 18 2 30 0;
#X connect 20 0 27 1;
#X connect 21 0 23 0;
#X connect 22 0 25 1;
#X connect 23 0 25 0;
#X connect 23 1 22 0;
#X connect 23 2 24 0;
#X connect 24 0 25 2;
#X connect 25 0 19 0;
#X connect 26 0 27 0;
#X connect 26 1 20 0;
#X connect 26 2 28 0;
#X connect 27 0 19 0;
#X connect 28 0 27 2;
#X connect 29 0 4 0;
