#N struct mono_track float a;
#N canvas 69 54 910 523 10;
#X obj 28 401 loadbang;
#X obj 361 158 unpack;
#N canvas 1 50 627 380 seq_mover 0;
#X obj 67 57 bng 15 250 50 0 empty empty empty 17 7 0 10 -262144 -1
-1;
#X obj 58 128 spigot;
#X obj 161 46 tgl 15 0 empty empty empty 17 7 0 10 -262144 -1 -1 0
1;
#X obj 58 164 bng 15 250 50 0 empty empty empty 17 7 0 10 -262144 -1
-1;
#X obj 181 70 sel 1;
#X obj 58 189 i;
#X obj 93 188 + 1;
#X msg 90 160 0;
#X obj 58 223 % 16;
#X obj 124 213 sel 15;
#X obj 199 229 sel 0;
#X obj 199 259 i;
#X obj 222 259 + 1;
#X obj 195 100 t b b;
#X msg 260 236 0;
#X obj 67 15 inlet;
#X obj 161 14 inlet;
#X obj 58 283 outlet;
#X obj 199 321 outlet;
#X obj 336 22 inlet;
#X floatatom 336 134 5 0 0 0 - - -;
#X obj 265 205 sel 1;
#X obj 199 290 t 0 0;
#X obj 308 298 >=;
#X obj 58 252 t 0 0;
#X connect 0 0 1 0;
#X connect 1 0 3 0;
#X connect 2 0 1 1;
#X connect 2 0 4 0;
#X connect 3 0 5 0;
#X connect 4 0 13 0;
#X connect 5 0 8 0;
#X connect 5 0 9 0;
#X connect 5 0 6 0;
#X connect 6 0 5 1;
#X connect 7 0 5 1;
#X connect 8 0 24 0;
#X connect 9 0 7 0;
#X connect 10 0 11 0;
#X connect 11 0 12 0;
#X connect 11 0 22 0;
#X connect 12 0 11 1;
#X connect 13 0 7 0;
#X connect 13 1 14 0;
#X connect 13 1 20 0;
#X connect 14 0 11 1;
#X connect 15 0 0 0;
#X connect 16 0 2 0;
#X connect 19 0 20 0;
#X connect 20 0 23 1;
#X connect 21 0 14 0;
#X connect 22 0 18 0;
#X connect 22 1 23 0;
#X connect 23 0 21 0;
#X connect 24 0 17 0;
#X connect 24 1 10 0;
#X restore 28 169 pd seq_mover;
#X obj 28 135 bng 15 250 50 0 empty empty empty 17 7 0 10 -262144 -1
-1;
#X obj 28 425 f \$1;
#X obj 372 95 loadbang;
#X obj 28 73 r beat;
#N canvas 286 129 821 529 midi-notes 0;
#X obj 301 91 route 1 2 3 4 5 6 7 8;
#X obj 6 206 i;
#X obj 82 94 route 1 2 3 4 5 6 7 8;
#X obj 82 69 inlet;
#X obj 50 206 i;
#X obj 94 206 i;
#X obj 138 206 i;
#X obj 182 206 i;
#X obj 226 206 i;
#X obj 270 206 i;
#X obj 314 206 i;
#X obj 360 207 i;
#X obj 395 207 i;
#X obj 430 207 i;
#X obj 465 207 i;
#X obj 500 207 i;
#X obj 535 207 i;
#X obj 570 207 i;
#X obj 605 207 i;
#X msg 360 235 1 \$1;
#X obj 301 16 inlet;
#X obj 519 14 inlet;
#X obj 519 89 bng 15 250 50 0 empty empty empty 17 7 0 10 -262144 -1
-1;
#X obj 519 113 t b b b b b b b b;
#X msg 395 235 2 \$1;
#X msg 430 235 3 \$1;
#X msg 465 235 4 \$1;
#X msg 500 235 5 \$1;
#X msg 535 235 6 \$1;
#X msg 570 235 7 \$1;
#X msg 605 235 8 \$1;
#X obj 589 321 i;
#X obj 653 321 i;
#X obj 589 288 bng 15 250 50 0 empty empty empty 17 7 0 10 -262144
-1 -1;
#X obj 653 288 bng 15 250 50 0 empty empty empty 17 7 0 10 -262144
-1 -1;
#X obj 589 378 prepend velocity;
#X obj 653 346 prepend length;
#X obj 589 405 prepend midi_params;
#X obj 476 292 prepend notes;
#X obj 462 454 outlet;
#X obj 149 349 outlet;
#X obj 149 322 makenote 100 500;
#X obj 697 251 loadbang;
#X msg 691 282 100;
#X msg 723 282 500;
#X obj 301 44 route notes midi_params;
#X obj 371 68 route velocity length;
#X obj 519 39 route notes midi_params;
#X obj 589 70 route velocity length;
#X connect 0 0 1 1;
#X connect 0 0 11 1;
#X connect 0 1 4 1;
#X connect 0 1 12 1;
#X connect 0 2 5 1;
#X connect 0 2 13 1;
#X connect 0 3 6 1;
#X connect 0 3 14 1;
#X connect 0 4 7 1;
#X connect 0 4 15 1;
#X connect 0 5 8 1;
#X connect 0 5 16 1;
#X connect 0 6 9 1;
#X connect 0 6 17 1;
#X connect 0 7 10 1;
#X connect 0 7 18 1;
#X connect 1 0 41 0;
#X connect 2 0 1 0;
#X connect 2 1 4 0;
#X connect 2 2 5 0;
#X connect 2 3 6 0;
#X connect 2 4 7 0;
#X connect 2 5 8 0;
#X connect 2 6 9 0;
#X connect 2 7 10 0;
#X connect 3 0 2 0;
#X connect 4 0 41 0;
#X connect 5 0 41 0;
#X connect 6 0 41 0;
#X connect 7 0 41 0;
#X connect 8 0 41 0;
#X connect 9 0 41 0;
#X connect 10 0 41 0;
#X connect 11 0 19 0;
#X connect 12 0 24 0;
#X connect 13 0 25 0;
#X connect 14 0 26 0;
#X connect 15 0 27 0;
#X connect 16 0 28 0;
#X connect 17 0 29 0;
#X connect 18 0 30 0;
#X connect 19 0 38 0;
#X connect 20 0 45 0;
#X connect 21 0 47 0;
#X connect 22 0 23 0;
#X connect 23 0 11 0;
#X connect 23 1 12 0;
#X connect 23 2 13 0;
#X connect 23 3 14 0;
#X connect 23 4 15 0;
#X connect 23 5 16 0;
#X connect 23 6 17 0;
#X connect 23 7 18 0;
#X connect 24 0 38 0;
#X connect 25 0 38 0;
#X connect 26 0 38 0;
#X connect 27 0 38 0;
#X connect 28 0 38 0;
#X connect 29 0 38 0;
#X connect 30 0 38 0;
#X connect 31 0 35 0;
#X connect 32 0 36 0;
#X connect 33 0 31 0;
#X connect 34 0 32 0;
#X connect 35 0 37 0;
#X connect 36 0 37 0;
#X connect 37 0 39 0;
#X connect 38 0 39 0;
#X connect 41 0 40 0;
#X connect 42 0 43 0;
#X connect 42 0 44 0;
#X connect 43 0 31 1;
#X connect 44 0 32 1;
#X connect 45 0 0 0;
#X connect 45 1 46 0;
#X connect 46 0 31 1;
#X connect 46 0 41 1;
#X connect 46 1 32 1;
#X connect 46 1 41 2;
#X connect 47 0 22 0;
#X connect 47 1 48 0;
#X connect 48 0 33 0;
#X connect 48 1 34 0;
#X restore 28 243 pd midi-notes;
#X obj 28 268 outlet;
#X obj 361 186 tabwrite track\$1_pattern;
#X obj 253 316 i;
#X obj 253 293 bng 15 250 50 0 empty empty empty 17 7 0 10 -262144
-1 -1;
#N canvas 0 0 450 300 (subpatch) 0;
#X array track\$1_pattern 7 float 2;
#X coords 0 0 7 7 40 40 1;
#X restore 524 161 graph;
#X msg 372 120 0 0 \, 0 1 \, 0 2 \, 0 3 \, 0 4 \, 0 5 \, 0 6 \, 0 7
;
#X obj 394 301 i;
#X obj 394 279 bng 15 250 50 0 empty empty empty 17 7 0 10 -262144
-1 -1;
#X msg 734 293 0 \, 1 \, 2 \, 3 \, 4 \, 5 \, 6 \, 7;
#X obj 734 316 tabread track\$1_pattern;
#X obj 170 182 tabread track\$1_pattern;
#X obj 253 339 prepend pattern_number;
#X obj 394 351 outlet;
#X obj 394 324 prepend pattern_seq_length;
#X obj 734 337 prepend pattern_seq;
#X obj 590 318 prepend pattern_grid;
#X obj 308 -27 inlet;
#X obj 308 -1 route track\$1;
#X obj 62 121 route play;
#X obj 97 145 route pattern_seq_length;
#X obj 616 67 route pattern_grid;
#X obj 745 81 route pattern_number;
#X obj 361 70 route pattern_seq;
#X obj 253 270 route pattern_number;
#X obj 394 257 route pattern_seq_length;
#X obj 734 271 route pattern_seq;
#X obj 164 74 loadbang;
#X obj 590 273 i;
#X obj 590 250 route pattern_active_grid pattern_grid;
#X obj 616 131 prepend pattern_grid;
#X obj 91 403 bng 15 250 50 0 empty empty empty 17 7 0 10 -262144 -1
-1;
#X obj 28 218 mono_pattern_read \$1;
#X msg 164 102 pattern_seq_length 0;
#X obj 590 296 mono_pattern_load \$1;
#X obj 62 99 route control;
#X obj 361 36 route edit;
#N canvas 0 0 450 300 mono_track\$1_window 0;
#X scalar mono_track 0 \;;
#X scalar mono_track 0 \;;
#X scalar mono_track 0 \;;
#X scalar mono_track 0 \;;
#X scalar mono_track 0 \;;
#X scalar mono_track 0 \;;
#X scalar mono_track 0 \;;
#X scalar mono_track 0 \;;
#X scalar mono_track 0 \;;
#X scalar mono_track 0 \;;
#X scalar mono_track 0 \;;
#X scalar mono_track 0 \;;
#X scalar mono_track 0 \;;
#X scalar mono_track 0 \;;
#X scalar mono_track 0 \;;
#X scalar mono_track 0 \;;
#X scalar mono_track 0 \;;
#X scalar mono_track 0 \;;
#X scalar mono_track 0 \;;
#X scalar mono_track 0 \;;
#X scalar mono_track 0 \;;
#X scalar mono_track 0 \;;
#X scalar mono_track 0 \;;
#X scalar mono_track 0 \;;
#X scalar mono_track 0 \;;
#X scalar mono_track 0 \;;
#X scalar mono_track 0 \;;
#X scalar mono_track 0 \;;
#X scalar mono_track 0 \;;
#X scalar mono_track 0 \;;
#X scalar mono_track 0 \;;
#X scalar mono_track 0 \;;
#X scalar mono_track 0 \;;
#X scalar mono_track 0 \;;
#X scalar mono_track 0 \;;
#X scalar mono_track 0 \;;
#X scalar mono_track 0 \;;
#X scalar mono_track 0 \;;
#X scalar mono_track 0 \;;
#X scalar mono_track 0 \;;
#X scalar mono_track 0 \;;
#X scalar mono_track 0 \;;
#X scalar mono_track 0 \;;
#X scalar mono_track 0 \;;
#X scalar mono_track 0 \;;
#X scalar mono_track 0 \;;
#X scalar mono_track 0 \;;
#X scalar mono_track 0 \;;
#X scalar mono_track 0 \;;
#X scalar mono_track 0 \;;
#X scalar mono_track 0 \;;
#X scalar mono_track 0 \;;
#X scalar mono_track 0 \;;
#X scalar mono_track 0 \;;
#X scalar mono_track 0 \;;
#X scalar mono_track 0 \;;
#X scalar mono_track 0 \;;
#X scalar mono_track 0 \;;
#X scalar mono_track 0 \;;
#X scalar mono_track 0 \;;
#X scalar mono_track 0 \;;
#X scalar mono_track 0 \;;
#X scalar mono_track 0 \;;
#X scalar mono_track 0 \;;
#X scalar mono_track 0 \;;
#X scalar mono_track 0 \;;
#X scalar mono_track 0 \;;
#X scalar mono_track 0 \;;
#X scalar mono_track 0 \;;
#X scalar mono_track 0 \;;
#X scalar mono_track 0 \;;
#X scalar mono_track 0 \;;
#X scalar mono_track 0 \;;
#X scalar mono_track 0 \;;
#X scalar mono_track 0 \;;
#X scalar mono_track 0 \;;
#X scalar mono_track 0 \;;
#X scalar mono_track 0 \;;
#X scalar mono_track 0 \;;
#X scalar mono_track 0 \;;
#X scalar mono_track 0 \;;
#X scalar mono_track 0 \;;
#X scalar mono_track 0 \;;
#X scalar mono_track 0 \;;
#X scalar mono_track 0 \;;
#X scalar mono_track 0 \;;
#X scalar mono_track 0 \;;
#X scalar mono_track 0 \;;
#X scalar mono_track 0 \;;
#X scalar mono_track 0 \;;
#X scalar mono_track 0 \;;
#X scalar mono_track 0 \;;
#X scalar mono_track 0 \;;
#X scalar mono_track 0 \;;
#X scalar mono_track 0 \;;
#X scalar mono_track 0 \;;
#X scalar mono_track 0 \;;
#X scalar mono_track 0 \;;
#X scalar mono_track 0 \;;
#X scalar mono_track 0 \;;
#X scalar mono_track 0 \;;
#X scalar mono_track 0 \;;
#X scalar mono_track 0 \;;
#X scalar mono_track 0 \;;
#X scalar mono_track 0 \;;
#X scalar mono_track 0 \;;
#X scalar mono_track 0 \;;
#X scalar mono_track 0 \;;
#X scalar mono_track 0 \;;
#X scalar mono_track 0 \;;
#X scalar mono_track 0 \;;
#X scalar mono_track 0 \;;
#X scalar mono_track 0 \;;
#X scalar mono_track 0 \;;
#X scalar mono_track 0 \;;
#X scalar mono_track 0 \;;
#X scalar mono_track 0 \;;
#X scalar mono_track 0 \;;
#X scalar mono_track 0 \;;
#X scalar mono_track 0 \;;
#X scalar mono_track 0 \;;
#X scalar mono_track 0 \;;
#X scalar mono_track 0 \;;
#X scalar mono_track 0 \;;
#X scalar mono_track 0 \;;
#X scalar mono_track 0 \;;
#X scalar mono_track 0 \;;
#X scalar mono_track 0 \;;
#X restore 27 365 pd mono_track\$1_window;
#X msg 28 453 \; pd-mono_track\$1_window read blankmonotrack.txt;
#X msg 335 454 \; pd-mono_track\$1_window write monotracktrack.txt
;
#X obj 335 397 loadbang;
#X obj 335 421 f \$1;
#X obj 398 399 bng 15 250 50 0 empty empty empty 17 7 0 10 -262144
-1 -1;
#X obj 616 106 mono_row_workings \$1;
#X obj 308 210 route get;
#X obj 586 377 print;
#X connect 0 0 4 0;
#X connect 1 0 9 0;
#X connect 1 1 9 1;
#X connect 2 0 39 0;
#X connect 2 1 18 0;
#X connect 3 0 2 0;
#X connect 4 0 45 0;
#X connect 5 0 13 0;
#X connect 6 0 3 0;
#X connect 7 0 8 0;
#X connect 7 1 20 0;
#X connect 10 0 19 0;
#X connect 11 0 10 0;
#X connect 13 0 1 0;
#X connect 14 0 21 0;
#X connect 15 0 14 0;
#X connect 16 0 17 0;
#X connect 17 0 22 0;
#X connect 18 0 10 0;
#X connect 18 0 35 1;
#X connect 18 0 39 1;
#X connect 19 0 20 0;
#X connect 21 0 20 0;
#X connect 22 0 20 0;
#X connect 23 0 20 0;
#X connect 23 0 52 0;
#X connect 24 0 25 0;
#X connect 25 0 42 0;
#X connect 25 0 43 0;
#X connect 25 0 51 0;
#X connect 26 0 2 1;
#X connect 27 0 2 2;
#X connect 27 0 14 1;
#X connect 28 0 50 0;
#X connect 29 0 50 1;
#X connect 30 0 1 0;
#X connect 31 0 11 0;
#X connect 32 0 15 0;
#X connect 33 0 16 0;
#X connect 34 0 40 0;
#X connect 35 0 41 0;
#X connect 36 0 35 0;
#X connect 36 1 41 0;
#X connect 37 0 20 0;
#X connect 38 0 4 0;
#X connect 39 0 7 0;
#X connect 40 0 27 0;
#X connect 41 0 23 0;
#X connect 42 0 26 0;
#X connect 43 0 28 0;
#X connect 43 0 29 0;
#X connect 43 0 30 0;
#X connect 43 0 7 1;
#X connect 43 0 27 0;
#X connect 47 0 48 0;
#X connect 48 0 46 0;
#X connect 49 0 48 0;
#X connect 50 0 37 0;
#X connect 51 0 7 2;
#X connect 51 0 31 0;
#X connect 51 0 32 0;
#X connect 51 0 36 0;
#X connect 51 0 33 0;
