#N canvas 205 74 792 511 10;
#X floatatom 71 196 5 0 0 0 - - -;
#X floatatom 117 195 5 1 8 0 - - -;
#X obj 136 272 until;
#X obj 117 245 t b f b;
#X obj 136 327 pointer;
#X obj 117 356 pointer;
#X msg 136 300 next;
#X floatatom 161 184 5 1 8 0 - - -;
#X obj 117 168 t f b;
#X obj 430 16 inlet;
#X obj 171 13 inlet;
#X obj 117 220 + 1;
#X obj 160 206 * 16;
#X obj 185 266 f \$1;
#X obj 175 357 print track\$1_pointererror;
#X obj 171 38 unpack 0 0 0;
#X obj 71 166 * 1;
#X msg 185 290 traverse pd-mono_track\$1_window;
#X obj 71 383 set mono_track a;
#X obj 444 284 pointer;
#X obj 444 306 get mono_track a;
#X floatatom 478 130 5 1 8 0 - - -;
#X obj 497 207 until;
#X obj 478 180 t b f b;
#X obj 497 262 pointer;
#X msg 497 235 next;
#X floatatom 522 119 5 1 8 0 - - -;
#X obj 478 155 + 1;
#X obj 521 141 * 16;
#X obj 546 201 f \$1;
#X msg 546 225 traverse pd-mono_track\$1_window;
#X obj 444 104 t b f f b;
#X obj 444 414 pack 0 0;
#X msg 444 435 \$1 \$2 0;
#X obj 444 476 outlet;
#X obj 266 138 sel 1 0;
#X msg 266 167 0;
#X msg 293 167 1;
#X obj 253 201 pack 0 0 0;
#X obj 253 235 outlet;
#X obj 444 81 i;
#X obj 444 331 t f f;
#X obj 444 391 i;
#X obj 471 355 sel 0;
#X floatatom 544 358 5 0 0 0 - - -;
#X floatatom 385 193 5 0 0 0 - - -;
#X obj 266 109 i;
#X obj 214 72 t b f;
#X connect 0 0 18 0;
#X connect 1 0 11 0;
#X connect 2 0 6 0;
#X connect 3 0 5 0;
#X connect 3 1 2 0;
#X connect 3 2 13 0;
#X connect 4 0 5 1;
#X connect 4 1 14 0;
#X connect 5 0 18 1;
#X connect 6 0 4 0;
#X connect 7 0 12 0;
#X connect 8 0 1 0;
#X connect 8 1 7 0;
#X connect 9 0 7 0;
#X connect 9 0 26 0;
#X connect 10 0 15 0;
#X connect 11 0 3 0;
#X connect 12 0 11 1;
#X connect 13 0 17 0;
#X connect 15 0 16 0;
#X connect 15 0 38 0;
#X connect 15 1 47 0;
#X connect 15 2 46 1;
#X connect 16 0 0 0;
#X connect 17 0 4 0;
#X connect 19 0 20 0;
#X connect 20 0 41 0;
#X connect 20 0 44 0;
#X connect 21 0 27 0;
#X connect 22 0 25 0;
#X connect 23 1 22 0;
#X connect 23 2 29 0;
#X connect 24 0 19 1;
#X connect 25 0 24 0;
#X connect 26 0 28 0;
#X connect 27 0 23 0;
#X connect 28 0 27 1;
#X connect 29 0 30 0;
#X connect 30 0 24 0;
#X connect 31 0 19 0;
#X connect 31 1 32 1;
#X connect 31 1 45 0;
#X connect 31 2 21 0;
#X connect 31 3 26 0;
#X connect 32 0 33 0;
#X connect 33 0 34 0;
#X connect 35 0 36 0;
#X connect 35 1 37 0;
#X connect 35 1 40 0;
#X connect 36 0 16 1;
#X connect 36 0 38 2;
#X connect 37 0 16 1;
#X connect 37 0 38 2;
#X connect 38 0 39 0;
#X connect 40 0 31 0;
#X connect 41 0 42 1;
#X connect 41 1 43 0;
#X connect 42 0 32 0;
#X connect 43 1 42 0;
#X connect 46 0 35 0;
#X connect 47 0 46 0;
#X connect 47 1 38 1;
#X connect 47 1 8 0;
#X connect 47 1 40 1;
