#N canvas 351 54 929 423 10;
#X obj 172 124 until;
#X obj 172 182 pointer;
#X obj 133 211 pointer;
#X msg 172 150 next;
#X obj 172 97 * 16;
#X msg 133 189 next;
#X obj 153 41 inlet;
#X obj 94 43 inlet;
#X obj 153 69 t b f b;
#X obj 94 77 t b;
#X obj 219 109 f \$1;
#X obj 133 314 outlet;
#X obj 133 233 get mono_track a;
#X obj 133 275 \$1;
#X msg 219 146 traverse pd-mono_track\$1_window;
#X connect 0 0 3 0;
#X connect 1 0 2 1;
#X connect 2 0 12 0;
#X connect 3 0 1 0;
#X connect 4 0 0 0;
#X connect 5 0 2 0;
#X connect 6 0 8 0;
#X connect 7 0 9 0;
#X connect 8 0 1 0;
#X connect 8 1 4 0;
#X connect 8 2 10 0;
#X connect 9 0 5 0;
#X connect 10 0 14 0;
#X connect 12 0 13 0;
#X connect 13 0 11 0;
#X connect 14 0 1 0;
