#N canvas 534 176 560 429 10;
#X floatatom 199 145 5 0 0 0 - - -;
#X floatatom 245 116 5 1 8 0 - - -;
#X obj 264 193 until;
#X obj 245 166 t b f b;
#X obj 264 248 pointer;
#X obj 245 277 pointer;
#X msg 264 221 next;
#X floatatom 289 105 5 1 8 0 - - -;
#X obj 245 89 t f b;
#X obj 289 68 inlet;
#X obj 199 39 inlet;
#X obj 245 141 + 1;
#X obj 288 127 * 16;
#X obj 313 187 f \$1;
#X obj 303 278 print track\$1_pointererror;
#X obj 199 64 unpack 0 0 0;
#X obj 199 115 * 1;
#X obj 199 89 t f f;
#X msg 313 211 traverse pd-mono_track\$1_window;
#X obj 199 304 set mono_track a;
#X connect 0 0 19 0;
#X connect 1 0 11 0;
#X connect 2 0 6 0;
#X connect 3 0 5 0;
#X connect 3 1 2 0;
#X connect 3 2 13 0;
#X connect 4 0 5 1;
#X connect 4 1 14 0;
#X connect 5 0 19 1;
#X connect 6 0 4 0;
#X connect 7 0 12 0;
#X connect 8 0 1 0;
#X connect 8 1 7 0;
#X connect 9 0 7 0;
#X connect 10 0 15 0;
#X connect 11 0 3 0;
#X connect 12 0 11 1;
#X connect 13 0 18 0;
#X connect 15 0 17 0;
#X connect 15 1 8 0;
#X connect 15 2 16 1;
#X connect 16 0 0 0;
#X connect 17 0 16 0;
#X connect 18 0 4 0;
