#N struct mono_track float a;
#N canvas 84 16 1134 696 10;
#X obj 26 -532 loadbang;
#X obj 795 -280 unpack;
#N canvas 490 179 627 375 seq_mover 0;
#X obj 67 57 bng 15 250 50 0 empty empty empty 17 7 0 10 -262144 -1
-1;
#X obj 58 128 spigot;
#X obj 161 46 tgl 15 0 empty empty empty 17 7 0 10 -262144 -1 -1 0
1;
#X obj 58 164 bng 15 250 50 0 empty empty empty 17 7 0 10 -262144 -1
-1;
#X obj 175 90 sel 1;
#X obj 58 189 i;
#X obj 93 188 + 1;
#X msg 90 160 0;
#X obj 58 223 % 16;
#X obj 124 213 sel 15;
#X obj 199 229 sel 0;
#X obj 199 259 i;
#X obj 222 259 + 1;
#X obj 175 112 t b b;
#X msg 260 236 0;
#X obj 67 15 inlet;
#X obj 161 14 inlet;
#X obj 58 283 outlet;
#X obj 199 321 outlet;
#X obj 336 22 inlet;
#X floatatom 336 134 5 0 0 0 - - -;
#X obj 265 205 sel 1;
#X obj 199 290 t 0 0;
#X obj 58 252 t 0 0;
#X obj 308 298 >;
#X obj 382 59 loadbang;
#X msg 382 91 1;
#X obj 161 67 syncplay;
#X connect 0 0 1 0;
#X connect 1 0 3 0;
#X connect 2 0 27 0;
#X connect 3 0 5 0;
#X connect 4 0 13 0;
#X connect 5 0 8 0;
#X connect 5 0 9 0;
#X connect 5 0 6 0;
#X connect 6 0 5 1;
#X connect 7 0 5 1;
#X connect 8 0 23 0;
#X connect 9 0 7 0;
#X connect 10 0 11 0;
#X connect 11 0 12 0;
#X connect 11 0 22 0;
#X connect 12 0 11 1;
#X connect 13 0 7 0;
#X connect 13 1 14 0;
#X connect 13 1 20 0;
#X connect 14 0 11 1;
#X connect 15 0 0 0;
#X connect 16 0 2 0;
#X connect 19 0 20 0;
#X connect 20 0 24 1;
#X connect 21 0 14 0;
#X connect 22 0 18 0;
#X connect 22 1 24 0;
#X connect 23 0 17 0;
#X connect 23 1 10 0;
#X connect 24 0 21 0;
#X connect 25 0 26 0;
#X connect 26 0 20 0;
#X connect 27 0 1 1;
#X connect 27 0 4 0;
#X restore 29 -356 pd seq_mover;
#X obj 29 -396 bng 15 250 50 0 empty empty empty 17 7 0 10 -262144
-1 -1;
#X obj 26 -508 f \$1;
#X obj 806 -323 loadbang;
#X obj 795 -213 tabwrite track\$1_pattern;
#X obj 100 -142 i;
#X obj 100 -165 bng 15 250 50 0 empty empty empty 17 7 0 10 -262144
-1 -1;
#N canvas 0 0 450 300 (subpatch) 0;
#X array track\$1_pattern 7 float 2;
#X coords 0 0 7 7 40 40 1;
#X restore 958 -262 graph;
#X obj 380 -109 bng 15 250 50 0 empty empty empty 17 7 0 10 -262144
-1 -1;
#X msg 567 -179 0 \, 1 \, 2 \, 3 \, 4 \, 5 \, 6 \, 7;
#X obj 594 -136 tabread track\$1_pattern;
#X obj 115 -333 tabread track\$1_pattern;
#X obj 253 -26 outlet;
#X obj 331 -523 inlet;
#X obj 331 -497 route track\$1;
#X obj 780 -158 i;
#X obj 780 -181 OSCroute /pattern_active_grid /pattern_grid;
#X obj 567 -201 OSCroute /pattern_seq;
#X obj 795 -344 OSCroute /pattern_seq;
#X obj 100 -188 OSCroute /pattern_number;
#X obj 380 -131 OSCroute /pattern_seq_length;
#X obj 736 -109 prepend /grid/pattern_grid/edit;
#X obj 567 -157 t f f;
#X obj 567 -114 pack;
#X obj 100 -119 prepend /grid/pattern_number;
#X obj 567 -92 prepend /grid/pattern_seq;
#X obj 795 -258 t b f;
#X obj 795 -236 i;
#X obj 380 -64 prepend /grid/pattern_seq/length;
#X msg 806 -302 0 0 \, 1 0 \, 2 0 \, 3 0 \, 4 0 \, 5 0 \, 6 0 \, 7
0;
#X obj 625 -356 OSCroute /pattern_grid;
#X obj 637 -331 OSCroute /pattern_number;
#X obj 780 -135 mono_pattern_load \$1;
#X obj 29 -307 mono_pattern_read \$1;
#X obj 388 -328 OSCroute /get;
#X obj 426 -433 OSCroute /edit;
#N canvas 152 76 821 529 midi-notes 0;
#X obj 263 87 route 1 2 3 4 5 6 7 8;
#X obj 26 222 i;
#X obj 26 132 route 1 2 3 4 5 6 7 8;
#X obj 26 102 inlet;
#X obj 51 222 i;
#X obj 76 222 i;
#X obj 101 222 i;
#X obj 126 222 i;
#X obj 151 222 i;
#X obj 176 222 i;
#X obj 201 222 i;
#X obj 360 207 i;
#X obj 395 207 i;
#X obj 430 207 i;
#X obj 465 207 i;
#X obj 500 207 i;
#X obj 535 207 i;
#X obj 570 207 i;
#X obj 605 207 i;
#X msg 360 235 1 \$1;
#X obj 263 12 inlet;
#X obj 495 15 inlet;
#X obj 495 90 bng 15 250 50 0 empty empty empty 17 7 0 10 -262144 -1
-1;
#X obj 495 114 t b b b b b b b b;
#X msg 395 235 2 \$1;
#X msg 430 235 3 \$1;
#X msg 465 235 4 \$1;
#X msg 500 235 5 \$1;
#X msg 535 235 6 \$1;
#X msg 570 235 7 \$1;
#X msg 605 235 8 \$1;
#X obj 584 310 bng 15 250 50 0 empty empty empty 17 7 0 10 -262144
-1 -1;
#X obj 660 310 bng 15 250 50 0 empty empty empty 17 7 0 10 -262144
-1 -1;
#X obj 453 486 outlet;
#X obj 263 40 OSCroute /notes /midi_params;
#X obj 495 40 OSCroute /notes /midi_params /all_midi_params;
#X obj 470 445 prepend /grid/midi_params;
#X obj 297 64 OSCroute /velocity /length /channel;
#X obj 616 66 t b b b b;
#X obj 584 153 OSCroute /velocity /length /channel;
#X obj 621 347 bng 15 250 50 0 empty empty empty 17 7 0 10 -262144
-1 -1;
#X obj 533 416 prepend /channel;
#X obj 660 371 prepend /length;
#X obj 496 379 prepend /velocity;
#X obj 584 343 i 100;
#X obj 621 375 i \$1;
#X obj 476 292 prepend /notes;
#X obj 30 40 loadbang;
#X msg 10 63 1 60 \, 2 61 \, 3 62 \, 4 63 \, 5 64 \, 6 65 \, 7 66 \,
8 67;
#X obj 149 432 noteout;
#X obj 206 370 i \$1;
#X obj 149 404 pack 0 0 0;
#X obj 149 352 t f b;
#X obj 325 275 r bpm;
#X obj 325 300 t b f;
#X msg 325 326 15000;
#X obj 325 353 / 1;
#X obj 301 381 * 1;
#X obj 660 343 i 4;
#X obj 149 322 makenote 100 500;
#X connect 0 0 1 1;
#X connect 0 0 11 1;
#X connect 0 1 4 1;
#X connect 0 1 12 1;
#X connect 0 2 5 1;
#X connect 0 2 13 1;
#X connect 0 3 6 1;
#X connect 0 3 14 1;
#X connect 0 4 7 1;
#X connect 0 4 15 1;
#X connect 0 5 8 1;
#X connect 0 5 16 1;
#X connect 0 6 9 1;
#X connect 0 6 17 1;
#X connect 0 7 10 1;
#X connect 0 7 18 1;
#X connect 1 0 59 0;
#X connect 2 0 1 0;
#X connect 2 1 4 0;
#X connect 2 2 5 0;
#X connect 2 3 6 0;
#X connect 2 4 7 0;
#X connect 2 5 8 0;
#X connect 2 6 9 0;
#X connect 2 7 10 0;
#X connect 3 0 2 0;
#X connect 4 0 59 0;
#X connect 5 0 59 0;
#X connect 6 0 59 0;
#X connect 7 0 59 0;
#X connect 8 0 59 0;
#X connect 9 0 59 0;
#X connect 10 0 59 0;
#X connect 11 0 19 0;
#X connect 12 0 24 0;
#X connect 13 0 25 0;
#X connect 14 0 26 0;
#X connect 15 0 27 0;
#X connect 16 0 28 0;
#X connect 17 0 29 0;
#X connect 18 0 30 0;
#X connect 19 0 46 0;
#X connect 20 0 34 0;
#X connect 21 0 35 0;
#X connect 22 0 23 0;
#X connect 23 0 11 0;
#X connect 23 1 12 0;
#X connect 23 2 13 0;
#X connect 23 3 14 0;
#X connect 23 4 15 0;
#X connect 23 5 16 0;
#X connect 23 6 17 0;
#X connect 23 7 18 0;
#X connect 24 0 46 0;
#X connect 25 0 46 0;
#X connect 26 0 46 0;
#X connect 27 0 46 0;
#X connect 28 0 46 0;
#X connect 29 0 46 0;
#X connect 30 0 46 0;
#X connect 31 0 44 0;
#X connect 32 0 58 0;
#X connect 34 0 0 0;
#X connect 34 1 37 0;
#X connect 35 0 22 0;
#X connect 35 1 39 0;
#X connect 35 2 38 0;
#X connect 36 0 33 0;
#X connect 37 0 44 1;
#X connect 37 0 59 1;
#X connect 37 1 57 0;
#X connect 37 1 58 1;
#X connect 37 2 50 1;
#X connect 37 2 45 1;
#X connect 38 0 22 0;
#X connect 38 1 31 0;
#X connect 38 2 32 0;
#X connect 38 3 40 0;
#X connect 39 0 31 0;
#X connect 39 1 32 0;
#X connect 39 2 40 0;
#X connect 40 0 45 0;
#X connect 41 0 36 0;
#X connect 42 0 36 0;
#X connect 43 0 36 0;
#X connect 44 0 43 0;
#X connect 45 0 41 0;
#X connect 46 0 36 0;
#X connect 47 0 48 0;
#X connect 48 0 0 0;
#X connect 50 0 51 2;
#X connect 51 0 49 0;
#X connect 52 0 51 0;
#X connect 52 1 50 0;
#X connect 53 0 54 0;
#X connect 54 0 55 0;
#X connect 54 1 56 1;
#X connect 55 0 56 0;
#X connect 56 0 57 1;
#X connect 57 0 59 2;
#X connect 58 0 42 0;
#X connect 59 0 52 0;
#X connect 59 1 51 1;
#X restore 29 -259 pd midi-notes \$1;
#N canvas 0 0 788 370 mono_track\$1_window 0;
#X scalar mono_track 0 \;;
#X scalar mono_track 0 \;;
#X scalar mono_track 0 \;;
#X scalar mono_track 0 \;;
#X scalar mono_track 0 \;;
#X scalar mono_track 0 \;;
#X scalar mono_track 0 \;;
#X scalar mono_track 0 \;;
#X scalar mono_track 0 \;;
#X scalar mono_track 0 \;;
#X scalar mono_track 0 \;;
#X scalar mono_track 0 \;;
#X scalar mono_track 0 \;;
#X scalar mono_track 0 \;;
#X scalar mono_track 0 \;;
#X scalar mono_track 0 \;;
#X scalar mono_track 0 \;;
#X scalar mono_track 0 \;;
#X scalar mono_track 0 \;;
#X scalar mono_track 0 \;;
#X scalar mono_track 0 \;;
#X scalar mono_track 0 \;;
#X scalar mono_track 0 \;;
#X scalar mono_track 0 \;;
#X scalar mono_track 0 \;;
#X scalar mono_track 0 \;;
#X scalar mono_track 0 \;;
#X scalar mono_track 0 \;;
#X scalar mono_track 0 \;;
#X scalar mono_track 0 \;;
#X scalar mono_track 0 \;;
#X scalar mono_track 0 \;;
#X scalar mono_track 0 \;;
#X scalar mono_track 0 \;;
#X scalar mono_track 0 \;;
#X scalar mono_track 0 \;;
#X scalar mono_track 0 \;;
#X scalar mono_track 0 \;;
#X scalar mono_track 0 \;;
#X scalar mono_track 0 \;;
#X scalar mono_track 0 \;;
#X scalar mono_track 0 \;;
#X scalar mono_track 0 \;;
#X scalar mono_track 0 \;;
#X scalar mono_track 0 \;;
#X scalar mono_track 0 \;;
#X scalar mono_track 0 \;;
#X scalar mono_track 0 \;;
#X scalar mono_track 0 \;;
#X scalar mono_track 0 \;;
#X scalar mono_track 0 \;;
#X scalar mono_track 0 \;;
#X scalar mono_track 0 \;;
#X scalar mono_track 0 \;;
#X scalar mono_track 0 \;;
#X scalar mono_track 0 \;;
#X scalar mono_track 0 \;;
#X scalar mono_track 0 \;;
#X scalar mono_track 0 \;;
#X scalar mono_track 0 \;;
#X scalar mono_track 0 \;;
#X scalar mono_track 0 \;;
#X scalar mono_track 0 \;;
#X scalar mono_track 0 \;;
#X scalar mono_track 0 \;;
#X scalar mono_track 0 \;;
#X scalar mono_track 0 \;;
#X scalar mono_track 0 \;;
#X scalar mono_track 0 \;;
#X scalar mono_track 0 \;;
#X scalar mono_track 0 \;;
#X scalar mono_track 0 \;;
#X scalar mono_track 0 \;;
#X scalar mono_track 0 \;;
#X scalar mono_track 0 \;;
#X scalar mono_track 0 \;;
#X scalar mono_track 0 \;;
#X scalar mono_track 0 \;;
#X scalar mono_track 0 \;;
#X scalar mono_track 0 \;;
#X scalar mono_track 0 \;;
#X scalar mono_track 0 \;;
#X scalar mono_track 0 \;;
#X scalar mono_track 0 \;;
#X scalar mono_track 0 \;;
#X scalar mono_track 0 \;;
#X scalar mono_track 0 \;;
#X scalar mono_track 0 \;;
#X scalar mono_track 0 \;;
#X scalar mono_track 0 \;;
#X scalar mono_track 0 \;;
#X scalar mono_track 0 \;;
#X scalar mono_track 0 \;;
#X scalar mono_track 0 \;;
#X scalar mono_track 0 \;;
#X scalar mono_track 0 \;;
#X scalar mono_track 0 \;;
#X scalar mono_track 0 \;;
#X scalar mono_track 0 \;;
#X scalar mono_track 0 \;;
#X scalar mono_track 0 \;;
#X scalar mono_track 0 \;;
#X scalar mono_track 0 \;;
#X scalar mono_track 0 \;;
#X scalar mono_track 0 \;;
#X scalar mono_track 0 \;;
#X scalar mono_track 0 \;;
#X scalar mono_track 0 \;;
#X scalar mono_track 0 \;;
#X scalar mono_track 0 \;;
#X scalar mono_track 0 \;;
#X scalar mono_track 0 \;;
#X scalar mono_track 0 \;;
#X scalar mono_track 0 \;;
#X scalar mono_track 0 \;;
#X scalar mono_track 0 \;;
#X scalar mono_track 0 \;;
#X scalar mono_track 0 \;;
#X scalar mono_track 0 \;;
#X scalar mono_track 0 \;;
#X scalar mono_track 0 \;;
#X scalar mono_track 0 \;;
#X scalar mono_track 0 \;;
#X scalar mono_track 0 \;;
#X scalar mono_track 0 \;;
#X scalar mono_track 0 \;;
#X scalar mono_track 0 \;;
#X scalar mono_track 0 \;;
#X restore 26 -555 pd mono_track\$1_window;
#X msg 26 -486 \; pd-mono_track\$1_window read blankmonotrack.txt;
#X msg 430 -473 \; pd-mono_track\$1_window write testmonotrack.txt
;
#X obj 430 -503 i \$1;
#X obj 428 -530 bng 15 250 50 0 empty empty empty 17 7 0 10 -262144
-1 -1;
#X obj 625 -308 mono_row_workings \$1;
#X obj 29 -434 r 16thbangs;
#X obj 198 -381 OSCroute /pattern_seq_length;
#X obj 63 -386 OSCroute /play;
#X obj 63 -410 OSCroute /control;
#X obj 16 -203 print;
#X obj 380 -87 i 1;
#X obj 758 -475 i \$1;
#X obj 758 -427 prepend /main/track_info;
#X msg 758 -452 \$1 16step-grid;
#X obj 758 -504 inlet;
#X connect 0 0 4 0;
#X connect 1 0 28 0;
#X connect 1 1 29 1;
#X connect 2 0 35 0;
#X connect 2 1 13 0;
#X connect 3 0 2 0;
#X connect 4 0 40 0;
#X connect 5 0 31 0;
#X connect 7 0 26 0;
#X connect 8 0 7 0;
#X connect 10 0 50 0;
#X connect 11 0 24 0;
#X connect 12 0 25 1;
#X connect 13 0 17 1;
#X connect 13 0 7 1;
#X connect 13 0 35 1;
#X connect 15 0 16 0;
#X connect 16 0 36 0;
#X connect 16 0 37 0;
#X connect 16 0 48 0;
#X connect 17 0 34 0;
#X connect 18 0 17 0;
#X connect 18 1 34 0;
#X connect 19 0 11 0;
#X connect 20 0 1 0;
#X connect 21 0 8 0;
#X connect 22 0 10 0;
#X connect 23 0 14 0;
#X connect 24 0 25 0;
#X connect 24 1 12 0;
#X connect 25 0 27 0;
#X connect 26 0 14 0;
#X connect 27 0 14 0;
#X connect 28 0 29 0;
#X connect 28 1 6 1;
#X connect 29 0 6 0;
#X connect 30 0 14 0;
#X connect 31 0 1 0;
#X connect 32 0 44 0;
#X connect 33 0 44 1;
#X connect 34 0 23 0;
#X connect 35 0 38 0;
#X connect 36 0 21 0;
#X connect 36 0 22 0;
#X connect 36 0 18 0;
#X connect 36 0 19 0;
#X connect 36 0 38 2;
#X connect 37 0 32 0;
#X connect 37 0 33 0;
#X connect 37 0 20 0;
#X connect 37 0 38 1;
#X connect 37 0 46 0;
#X connect 38 0 14 0;
#X connect 42 0 41 0;
#X connect 43 0 42 0;
#X connect 44 0 23 0;
#X connect 44 1 23 0;
#X connect 45 0 3 0;
#X connect 46 0 2 2;
#X connect 46 0 50 1;
#X connect 47 0 2 1;
#X connect 48 0 47 0;
#X connect 50 0 30 0;
#X connect 51 0 53 0;
#X connect 52 0 14 0;
#X connect 53 0 52 0;
#X connect 54 0 51 0;
