#N struct mv_track float a float b float c float d float e float f
float g float h;
#N canvas 22 101 1043 614 10;
#X obj 19 36 loadbang;
#X obj 672 284 unpack;
#X obj 33 176 bng 15 250 50 0 empty empty empty 17 7 0 10 -262144 -1
-1;
#X obj 365 198 route 1 2 3 4 5 6 7 8;
#X obj 19 60 f \$1;
#X obj 683 241 loadbang;
#N canvas 0 0 788 370 track\$1_window 0;
#X scalar mv_track 0 0 0 0 0 0 0 0 \;;
#X scalar mv_track 0 0 0 0 0 0 0 0 \;;
#X scalar mv_track 0 0 0 0 0 0 0 0 \;;
#X scalar mv_track 0 0 0 0 0 0 0 0 \;;
#X scalar mv_track 0 0 0 0 0 0 0 0 \;;
#X scalar mv_track 0 0 0 0 0 0 0 0 \;;
#X scalar mv_track 0 0 0 0 0 0 0 0 \;;
#X scalar mv_track 0 0 0 0 0 0 0 0 \;;
#X scalar mv_track 0 0 0 0 0 0 0 0 \;;
#X scalar mv_track 0 0 0 0 0 0 0 0 \;;
#X scalar mv_track 0 0 0 0 0 0 0 0 \;;
#X scalar mv_track 0 0 0 0 0 0 0 0 \;;
#X scalar mv_track 0 0 0 0 0 0 0 0 \;;
#X scalar mv_track 0 0 0 0 0 0 0 0 \;;
#X scalar mv_track 0 0 0 0 0 0 0 0 \;;
#X scalar mv_track 0 0 0 0 0 0 0 0 \;;
#X scalar mv_track 0 0 0 0 0 0 0 0 \;;
#X scalar mv_track 0 0 0 0 0 0 0 0 \;;
#X scalar mv_track 0 0 0 0 0 0 0 0 \;;
#X scalar mv_track 0 0 0 0 0 0 0 0 \;;
#X scalar mv_track 0 0 0 0 0 0 0 0 \;;
#X scalar mv_track 0 0 0 0 0 0 0 0 \;;
#X scalar mv_track 0 0 0 0 0 0 0 0 \;;
#X scalar mv_track 0 0 0 0 0 0 0 0 \;;
#X scalar mv_track 0 0 0 0 0 0 0 0 \;;
#X scalar mv_track 0 0 0 0 0 0 0 0 \;;
#X scalar mv_track 0 0 0 0 0 0 0 0 \;;
#X scalar mv_track 0 0 0 0 0 0 0 0 \;;
#X scalar mv_track 0 0 0 0 0 0 0 0 \;;
#X scalar mv_track 0 0 0 0 0 0 0 0 \;;
#X scalar mv_track 0 0 0 0 0 0 0 0 \;;
#X scalar mv_track 0 0 0 0 0 0 0 0 \;;
#X scalar mv_track 0 0 0 0 0 0 0 0 \;;
#X scalar mv_track 0 0 0 0 0 0 0 0 \;;
#X scalar mv_track 0 0 0 0 0 0 0 0 \;;
#X scalar mv_track 0 0 0 0 0 0 0 0 \;;
#X scalar mv_track 0 0 0 0 0 0 0 0 \;;
#X scalar mv_track 0 0 0 0 0 0 0 0 \;;
#X scalar mv_track 0 0 0 0 0 0 0 0 \;;
#X scalar mv_track 0 0 0 0 0 0 0 0 \;;
#X scalar mv_track 0 0 0 0 0 0 0 0 \;;
#X scalar mv_track 0 0 0 0 0 0 0 0 \;;
#X scalar mv_track 0 0 0 0 0 0 0 0 \;;
#X scalar mv_track 0 0 0 0 0 0 0 0 \;;
#X scalar mv_track 0 0 0 0 0 0 0 0 \;;
#X scalar mv_track 0 0 0 0 0 0 0 0 \;;
#X scalar mv_track 0 0 0 0 0 0 0 0 \;;
#X scalar mv_track 0 0 0 0 0 0 0 0 \;;
#X scalar mv_track 0 0 0 0 0 0 0 0 \;;
#X scalar mv_track 0 0 0 0 0 0 0 0 \;;
#X scalar mv_track 0 0 0 0 0 0 0 0 \;;
#X scalar mv_track 0 0 0 0 0 0 0 0 \;;
#X scalar mv_track 0 0 0 0 0 0 0 0 \;;
#X scalar mv_track 0 0 0 0 0 0 0 0 \;;
#X scalar mv_track 0 0 0 0 0 0 0 0 \;;
#X scalar mv_track 0 0 0 0 0 0 0 0 \;;
#X scalar mv_track 0 0 0 0 0 0 0 0 \;;
#X scalar mv_track 0 0 0 0 0 0 0 0 \;;
#X scalar mv_track 0 0 0 0 0 0 0 0 \;;
#X scalar mv_track 0 0 0 0 0 0 0 0 \;;
#X scalar mv_track 0 0 0 0 0 0 0 0 \;;
#X scalar mv_track 0 0 0 0 0 0 0 0 \;;
#X scalar mv_track 0 0 0 0 0 0 0 0 \;;
#X scalar mv_track 0 0 0 0 0 0 0 0 \;;
#X scalar mv_track 0 0 0 0 0 0 0 0 \;;
#X scalar mv_track 0 0 0 0 0 0 0 0 \;;
#X scalar mv_track 0 0 0 0 0 0 0 0 \;;
#X scalar mv_track 0 0 0 0 0 0 0 0 \;;
#X scalar mv_track 0 0 0 0 0 0 0 0 \;;
#X scalar mv_track 0 0 0 0 0 0 0 0 \;;
#X scalar mv_track 0 0 0 0 0 0 0 0 \;;
#X scalar mv_track 0 0 0 0 0 0 0 0 \;;
#X scalar mv_track 0 0 0 0 0 0 0 0 \;;
#X scalar mv_track 0 0 0 0 0 0 0 0 \;;
#X scalar mv_track 0 0 0 0 0 0 0 0 \;;
#X scalar mv_track 0 0 0 0 0 0 0 0 \;;
#X scalar mv_track 0 0 0 0 0 0 0 0 \;;
#X scalar mv_track 0 0 0 0 0 0 0 0 \;;
#X scalar mv_track 0 0 0 0 0 0 0 0 \;;
#X scalar mv_track 0 0 0 0 0 0 0 0 \;;
#X scalar mv_track 0 0 0 0 0 0 0 0 \;;
#X scalar mv_track 0 0 0 0 0 0 0 0 \;;
#X scalar mv_track 0 0 0 0 0 0 0 0 \;;
#X scalar mv_track 0 0 0 0 0 0 0 0 \;;
#X scalar mv_track 0 0 0 0 0 0 0 0 \;;
#X scalar mv_track 0 0 0 0 0 0 0 0 \;;
#X scalar mv_track 0 0 0 0 0 0 0 0 \;;
#X scalar mv_track 0 0 0 0 0 0 0 0 \;;
#X scalar mv_track 0 0 0 0 0 0 0 0 \;;
#X scalar mv_track 0 0 0 0 0 0 0 0 \;;
#X scalar mv_track 0 0 0 0 0 0 0 0 \;;
#X scalar mv_track 0 0 0 0 0 0 0 0 \;;
#X scalar mv_track 0 0 0 0 0 0 0 0 \;;
#X scalar mv_track 0 0 0 0 0 0 0 0 \;;
#X scalar mv_track 0 0 0 0 0 0 0 0 \;;
#X scalar mv_track 0 0 0 0 0 0 0 0 \;;
#X scalar mv_track 0 0 0 0 0 0 0 0 \;;
#X scalar mv_track 0 0 0 0 0 0 0 0 \;;
#X scalar mv_track 0 0 0 0 0 0 0 0 \;;
#X scalar mv_track 0 0 0 0 0 0 0 0 \;;
#X scalar mv_track 0 0 0 0 0 0 0 0 \;;
#X scalar mv_track 0 0 0 0 0 0 0 0 \;;
#X scalar mv_track 0 0 0 0 0 0 0 0 \;;
#X scalar mv_track 0 0 0 0 0 0 0 0 \;;
#X scalar mv_track 0 0 0 0 0 0 0 0 \;;
#X scalar mv_track 0 0 0 0 0 0 0 0 \;;
#X scalar mv_track 0 0 0 0 0 0 0 0 \;;
#X scalar mv_track 0 0 0 0 0 0 0 0 \;;
#X scalar mv_track 0 0 0 0 0 0 0 0 \;;
#X scalar mv_track 0 0 0 0 0 0 0 0 \;;
#X scalar mv_track 0 0 0 0 0 0 0 0 \;;
#X scalar mv_track 0 0 0 0 0 0 0 0 \;;
#X scalar mv_track 0 0 0 0 0 0 0 0 \;;
#X scalar mv_track 0 0 0 0 0 0 0 0 \;;
#X scalar mv_track 0 0 0 0 0 0 0 0 \;;
#X scalar mv_track 0 0 0 0 0 0 0 0 \;;
#X scalar mv_track 0 0 0 0 0 0 0 0 \;;
#X scalar mv_track 0 0 0 0 0 0 0 0 \;;
#X scalar mv_track 0 0 0 0 0 0 0 0 \;;
#X scalar mv_track 0 0 0 0 0 0 0 0 \;;
#X scalar mv_track 0 0 0 0 0 0 0 0 \;;
#X scalar mv_track 0 0 0 0 0 0 0 0 \;;
#X scalar mv_track 0 0 0 0 0 0 0 0 \;;
#X scalar mv_track 0 0 0 0 0 0 0 0 \;;
#X scalar mv_track 0 0 0 0 0 0 0 0 \;;
#X scalar mv_track 0 0 0 0 0 0 0 0 \;;
#X scalar mv_track 0 0 0 0 0 0 0 0 \;;
#X scalar mv_track 0 0 0 0 0 0 0 0 \;;
#X restore 19 13 pd track\$1_window;
#X msg 19 82 \; pd-track\$1_window read blanktrack.txt;
#X obj 672 351 tabwrite track\$1_pattern;
#X obj 32 551 i;
#X obj 32 528 bng 15 250 50 0 empty empty empty 17 7 0 10 -262144 -1
-1;
#N canvas 0 0 450 300 (subpatch) 0;
#X array track\$1_pattern 7 float 2;
#X coords 0 0 7 7 40 40 1;
#X restore 835 302 graph;
#X obj 241 434 bng 15 250 50 0 empty empty empty 17 7 0 10 -262144
-1 -1;
#X msg 33 388 0 \, 1 \, 2 \, 3 \, 4 \, 5 \, 6 \, 7;
#X obj 60 431 tabread track\$1_pattern;
#X obj 120 234 tabread track\$1_pattern;
#X obj 374 557 outlet;
#X obj 323 89 inlet;
#X obj 323 115 route track\$1;
#X obj 572 435 i;
#X msg 83 44 \; pd-track1_window write testtrack.txt;
#X obj 33 259 pattern_read \$1;
#X obj 365 173 OSCroute /pattern_grid;
#X obj 630 185 OSCroute /pattern_number;
#X obj 572 412 OSCroute /pattern_active_grid /pattern_grid;
#X obj 33 366 OSCroute /pattern_seq;
#X obj 672 220 OSCroute /pattern_seq;
#X obj 32 505 OSCroute /pattern_number;
#X obj 241 412 OSCroute /pattern_seq_length;
#X obj 535 491 prepend /grid/pattern_grid/edit;
#X obj 33 410 t f f;
#X obj 33 453 pack;
#X obj 32 574 prepend /grid/pattern_number;
#X obj 33 475 prepend /grid/pattern_seq;
#X obj 672 306 t b f;
#X obj 672 328 i;
#X obj 241 479 prepend /grid/pattern_seq/length;
#X msg 683 262 0 0 \, 1 0 \, 2 0 \, 3 0 \, 4 0 \, 5 0 \, 6 0 \, 7 0
;
#X obj 244 356 OSCroute /get;
#X obj 365 148 OSCroute /edit;
#N canvas 152 76 821 529 midi-notes 0;
#X obj 263 87 route 1 2 3 4 5 6 7 8;
#X obj 6 206 i;
#X obj 41 101 route 1 2 3 4 5 6 7 8;
#X obj 21 67 inlet;
#X obj 6 178 sel 1;
#X obj 50 206 i;
#X obj 50 178 sel 1;
#X obj 94 206 i;
#X obj 94 178 sel 1;
#X obj 138 206 i;
#X obj 138 178 sel 1;
#X obj 182 206 i;
#X obj 182 178 sel 1;
#X obj 226 206 i;
#X obj 226 178 sel 1;
#X obj 270 206 i;
#X obj 270 178 sel 1;
#X obj 314 206 i;
#X obj 314 178 sel 1;
#X obj 360 207 i;
#X obj 395 207 i;
#X obj 430 207 i;
#X obj 465 207 i;
#X obj 500 207 i;
#X obj 535 207 i;
#X obj 570 207 i;
#X obj 605 207 i;
#X msg 360 235 1 \$1;
#X obj 263 12 inlet;
#X obj 495 15 inlet;
#X obj 495 90 bng 15 250 50 0 empty empty empty 17 7 0 10 -262144 -1
-1;
#X obj 495 114 t b b b b b b b b;
#X msg 395 235 2 \$1;
#X msg 430 235 3 \$1;
#X msg 465 235 4 \$1;
#X msg 500 235 5 \$1;
#X msg 535 235 6 \$1;
#X msg 570 235 7 \$1;
#X msg 605 235 8 \$1;
#X obj 584 310 bng 15 250 50 0 empty empty empty 17 7 0 10 -262144
-1 -1;
#X obj 660 310 bng 15 250 50 0 empty empty empty 17 7 0 10 -262144
-1 -1;
#X obj 453 486 outlet;
#X obj 149 322 makenote 100 500;
#X obj 263 33 OSCroute /notes /midi_params;
#X obj 495 40 OSCroute /notes /midi_params /all_midi_params;
#X obj 470 445 prepend /grid/midi_params;
#X obj 129 448 noteout;
#X obj 290 62 OSCroute /velocity /length /channel;
#X obj 616 66 t b b b b;
#X obj 584 153 OSCroute /velocity /length /channel;
#X obj 621 347 bng 15 250 50 0 empty empty empty 17 7 0 10 -262144
-1 -1;
#X obj 584 343 i 100;
#X obj 660 343 i 500;
#X obj 621 375 i \$1;
#X obj 206 368 i \$1;
#X obj 108 20 loadbang;
#X msg 88 43 1 60 \, 2 61 \, 3 62 \, 4 63 \, 5 64 \, 6 65 \, 7 66 \,
8 67;
#X obj 496 379 prepend velocity;
#X obj 533 416 prepend channel;
#X obj 660 371 prepend length;
#X obj 476 292 prepend notes;
#X obj 149 407 pack 0 0 0;
#X obj 149 350 t f b;
#X connect 0 0 1 1;
#X connect 0 0 19 1;
#X connect 0 1 5 1;
#X connect 0 1 20 1;
#X connect 0 2 7 1;
#X connect 0 2 21 1;
#X connect 0 3 9 1;
#X connect 0 3 22 1;
#X connect 0 4 11 1;
#X connect 0 4 23 1;
#X connect 0 5 13 1;
#X connect 0 5 24 1;
#X connect 0 6 15 1;
#X connect 0 6 25 1;
#X connect 0 7 17 1;
#X connect 0 7 26 1;
#X connect 1 0 42 0;
#X connect 2 0 4 0;
#X connect 2 1 6 0;
#X connect 2 2 8 0;
#X connect 2 3 10 0;
#X connect 2 4 12 0;
#X connect 2 5 14 0;
#X connect 2 6 16 0;
#X connect 2 7 18 0;
#X connect 3 0 2 0;
#X connect 4 0 1 0;
#X connect 5 0 42 0;
#X connect 6 0 5 0;
#X connect 7 0 42 0;
#X connect 8 0 7 0;
#X connect 9 0 42 0;
#X connect 10 0 9 0;
#X connect 11 0 42 0;
#X connect 12 0 11 0;
#X connect 13 0 42 0;
#X connect 14 0 13 0;
#X connect 15 0 42 0;
#X connect 16 0 15 0;
#X connect 17 0 42 0;
#X connect 18 0 17 0;
#X connect 19 0 27 0;
#X connect 20 0 32 0;
#X connect 21 0 33 0;
#X connect 22 0 34 0;
#X connect 23 0 35 0;
#X connect 24 0 36 0;
#X connect 25 0 37 0;
#X connect 26 0 38 0;
#X connect 27 0 60 0;
#X connect 28 0 43 0;
#X connect 29 0 44 0;
#X connect 30 0 31 0;
#X connect 31 0 19 0;
#X connect 31 1 20 0;
#X connect 31 2 21 0;
#X connect 31 3 22 0;
#X connect 31 4 23 0;
#X connect 31 5 24 0;
#X connect 31 6 25 0;
#X connect 31 7 26 0;
#X connect 32 0 60 0;
#X connect 33 0 60 0;
#X connect 34 0 60 0;
#X connect 35 0 60 0;
#X connect 36 0 60 0;
#X connect 37 0 60 0;
#X connect 38 0 60 0;
#X connect 39 0 51 0;
#X connect 40 0 52 0;
#X connect 42 0 62 0;
#X connect 42 1 61 1;
#X connect 43 0 0 0;
#X connect 43 1 47 0;
#X connect 44 0 30 0;
#X connect 44 1 49 0;
#X connect 44 2 48 0;
#X connect 45 0 41 0;
#X connect 47 0 42 1;
#X connect 47 0 51 1;
#X connect 47 1 42 2;
#X connect 47 1 52 1;
#X connect 47 2 54 1;
#X connect 47 2 53 1;
#X connect 48 0 30 0;
#X connect 48 1 39 0;
#X connect 48 2 40 0;
#X connect 48 3 50 0;
#X connect 49 0 39 0;
#X connect 49 1 40 0;
#X connect 49 2 50 0;
#X connect 50 0 53 0;
#X connect 51 0 57 0;
#X connect 52 0 59 0;
#X connect 53 0 58 0;
#X connect 54 0 61 2;
#X connect 55 0 56 0;
#X connect 56 0 0 0;
#X connect 57 0 45 0;
#X connect 58 0 45 0;
#X connect 59 0 45 0;
#X connect 60 0 45 0;
#X connect 61 0 46 0;
#X connect 62 0 61 0;
#X connect 62 1 54 0;
#X restore 106 324 pd midi-notes \$1;
#X obj 490 227 row_workings \$1 a 1;
#X obj 572 458 pattern_load \$1;
#X obj 33 210 seq_mover;
#X obj 490 249 row_workings \$1 b 2;
#X obj 490 270 row_workings \$1 c 3;
#X obj 490 290 row_workings \$1 d 4;
#X obj 490 311 row_workings \$1 e 5;
#X obj 490 332 row_workings \$1 f 6;
#X obj 490 353 row_workings \$1 g 7;
#X obj 490 375 row_workings \$1 h 8;
#X obj 33 138 r 16thbangs;
#X obj 120 160 OSCroute /play;
#X obj 120 137 OSCroute /control;
#X obj 157 184 OSCroute /pattern_seq_length;
#X obj 241 456 i 1;
#X connect 0 0 4 0;
#X connect 1 0 34 0;
#X connect 1 1 35 1;
#X connect 2 0 43 0;
#X connect 3 0 41 0;
#X connect 3 1 44 0;
#X connect 3 2 45 0;
#X connect 3 3 46 0;
#X connect 3 4 47 0;
#X connect 3 5 48 0;
#X connect 3 6 49 0;
#X connect 3 7 50 0;
#X connect 4 0 7 0;
#X connect 5 0 37 0;
#X connect 9 0 32 0;
#X connect 10 0 9 0;
#X connect 12 0 55 0;
#X connect 13 0 30 0;
#X connect 14 0 31 1;
#X connect 15 0 19 1;
#X connect 15 0 21 1;
#X connect 15 0 9 1;
#X connect 17 0 18 0;
#X connect 18 0 38 0;
#X connect 18 0 39 0;
#X connect 18 0 53 0;
#X connect 19 0 42 0;
#X connect 21 0 40 0;
#X connect 22 0 3 0;
#X connect 23 0 41 1;
#X connect 23 0 44 1;
#X connect 23 0 45 1;
#X connect 23 0 46 1;
#X connect 23 0 47 1;
#X connect 23 0 48 1;
#X connect 23 0 49 1;
#X connect 23 0 50 1;
#X connect 24 0 19 0;
#X connect 24 1 42 0;
#X connect 25 0 13 0;
#X connect 26 0 1 0;
#X connect 27 0 10 0;
#X connect 28 0 12 0;
#X connect 29 0 16 0;
#X connect 30 0 31 0;
#X connect 30 1 14 0;
#X connect 31 0 33 0;
#X connect 32 0 16 0;
#X connect 33 0 16 0;
#X connect 34 0 35 0;
#X connect 34 1 8 1;
#X connect 35 0 8 0;
#X connect 36 0 16 0;
#X connect 37 0 1 0;
#X connect 38 0 27 0;
#X connect 38 0 25 0;
#X connect 38 0 28 0;
#X connect 38 0 24 0;
#X connect 38 0 40 2;
#X connect 39 0 22 0;
#X connect 39 0 23 0;
#X connect 39 0 26 0;
#X connect 39 0 40 1;
#X connect 39 0 54 0;
#X connect 40 0 16 0;
#X connect 41 0 29 0;
#X connect 42 0 29 0;
#X connect 43 0 21 0;
#X connect 43 1 15 0;
#X connect 44 0 29 0;
#X connect 45 0 29 0;
#X connect 46 0 29 0;
#X connect 47 0 29 0;
#X connect 48 0 29 0;
#X connect 49 0 29 0;
#X connect 50 0 29 0;
#X connect 51 0 2 0;
#X connect 52 0 43 1;
#X connect 53 0 52 0;
#X connect 54 0 43 2;
#X connect 54 0 55 1;
#X connect 55 0 36 0;
#X coords 0 0 1 1 40 40 0;
