#N struct mv_track float a float b float c float d float e float f
float g float h;
#N canvas 22 101 1043 614 10;
#X obj 19 36 loadbang;
#X obj 672 284 unpack;
#X obj 33 176 bng 15 250 50 0 empty empty empty 17 7 0 10 -262144 -1
-1;
#X obj 365 198 route 1 2 3 4 5 6 7 8;
#X obj 19 60 f \$1;
#X obj 683 241 loadbang;
#N canvas 0 0 788 370 track\$1_window 0;
#X scalar mv_track 0 0 0 0 0 0 0 0 \;;
#X scalar mv_track 0 0 0 0 0 0 0 0 \;;
#X scalar mv_track 0 0 0 0 0 0 0 0 \;;
#X scalar mv_track 0 0 0 0 0 0 0 0 \;;
#X scalar mv_track 0 0 0 0 0 0 0 0 \;;
#X scalar mv_track 0 0 0 0 0 0 0 0 \;;
#X scalar mv_track 0 0 0 0 0 0 0 0 \;;
#X scalar mv_track 0 0 0 0 0 0 0 0 \;;
#X scalar mv_track 0 0 0 0 0 0 0 0 \;;
#X scalar mv_track 0 0 0 0 0 0 0 0 \;;
#X scalar mv_track 0 0 0 0 0 0 0 0 \;;
#X scalar mv_track 0 0 0 0 0 0 0 0 \;;
#X scalar mv_track 0 0 0 0 0 0 0 0 \;;
#X scalar mv_track 0 0 0 0 0 0 0 0 \;;
#X scalar mv_track 0 0 0 0 0 0 0 0 \;;
#X scalar mv_track 0 0 0 0 0 0 0 0 \;;
#X scalar mv_track 0 0 0 0 0 0 0 0 \;;
#X scalar mv_track 0 0 0 0 0 0 0 0 \;;
#X scalar mv_track 0 0 0 0 0 0 0 0 \;;
#X scalar mv_track 0 0 0 0 0 0 0 0 \;;
#X scalar mv_track 0 0 0 0 0 0 0 0 \;;
#X scalar mv_track 0 0 0 0 0 0 0 0 \;;
#X scalar mv_track 0 0 0 0 0 0 0 0 \;;
#X scalar mv_track 0 0 0 0 0 0 0 0 \;;
#X scalar mv_track 0 0 0 0 0 0 0 0 \;;
#X scalar mv_track 0 0 0 0 0 0 0 0 \;;
#X scalar mv_track 0 0 0 0 0 0 0 0 \;;
#X scalar mv_track 0 0 0 0 0 0 0 0 \;;
#X scalar mv_track 0 0 0 0 0 0 0 0 \;;
#X scalar mv_track 0 0 0 0 0 0 0 0 \;;
#X scalar mv_track 0 0 0 0 0 0 0 0 \;;
#X scalar mv_track 0 0 0 0 0 0 0 0 \;;
#X scalar mv_track 0 0 0 0 0 0 0 0 \;;
#X scalar mv_track 0 0 0 0 0 0 0 0 \;;
#X scalar mv_track 0 0 0 0 0 0 0 0 \;;
#X scalar mv_track 0 0 0 0 0 0 0 0 \;;
#X scalar mv_track 0 0 0 0 0 0 0 0 \;;
#X scalar mv_track 0 0 0 0 0 0 0 0 \;;
#X scalar mv_track 0 0 0 0 0 0 0 0 \;;
#X scalar mv_track 0 0 0 0 0 0 0 0 \;;
#X scalar mv_track 0 0 0 0 0 0 0 0 \;;
#X scalar mv_track 0 0 0 0 0 0 0 0 \;;
#X scalar mv_track 0 0 0 0 0 0 0 0 \;;
#X scalar mv_track 0 0 0 0 0 0 0 0 \;;
#X scalar mv_track 0 0 0 0 0 0 0 0 \;;
#X scalar mv_track 0 0 0 0 0 0 0 0 \;;
#X scalar mv_track 0 0 0 0 0 0 0 0 \;;
#X scalar mv_track 0 0 0 0 0 0 0 0 \;;
#X scalar mv_track 0 0 0 0 0 0 0 0 \;;
#X scalar mv_track 0 0 0 0 0 0 0 0 \;;
#X scalar mv_track 0 0 0 0 0 0 0 0 \;;
#X scalar mv_track 0 0 0 0 0 0 0 0 \;;
#X scalar mv_track 0 0 0 0 0 0 0 0 \;;
#X scalar mv_track 0 0 0 0 0 0 0 0 \;;
#X scalar mv_track 0 0 0 0 0 0 0 0 \;;
#X scalar mv_track 0 0 0 0 0 0 0 0 \;;
#X scalar mv_track 0 0 0 0 0 0 0 0 \;;
#X scalar mv_track 0 0 0 0 0 0 0 0 \;;
#X scalar mv_track 0 0 0 0 0 0 0 0 \;;
#X scalar mv_track 0 0 0 0 0 0 0 0 \;;
#X scalar mv_track 0 0 0 0 0 0 0 0 \;;
#X scalar mv_track 0 0 0 0 0 0 0 0 \;;
#X scalar mv_track 0 0 0 0 0 0 0 0 \;;
#X scalar mv_track 0 0 0 0 0 0 0 0 \;;
#X scalar mv_track 0 0 0 0 0 0 0 0 \;;
#X scalar mv_track 0 0 0 0 0 0 0 0 \;;
#X scalar mv_track 0 0 0 0 0 0 0 0 \;;
#X scalar mv_track 0 0 0 0 0 0 0 0 \;;
#X scalar mv_track 0 0 0 0 0 0 0 0 \;;
#X scalar mv_track 0 0 0 0 0 0 0 0 \;;
#X scalar mv_track 0 0 0 0 0 0 0 0 \;;
#X scalar mv_track 0 0 0 0 0 0 0 0 \;;
#X scalar mv_track 0 0 0 0 0 0 0 0 \;;
#X scalar mv_track 0 0 0 0 0 0 0 0 \;;
#X scalar mv_track 0 0 0 0 0 0 0 0 \;;
#X scalar mv_track 0 0 0 0 0 0 0 0 \;;
#X scalar mv_track 0 0 0 0 0 0 0 0 \;;
#X scalar mv_track 0 0 0 0 0 0 0 0 \;;
#X scalar mv_track 0 0 0 0 0 0 0 0 \;;
#X scalar mv_track 0 0 0 0 0 0 0 0 \;;
#X scalar mv_track 0 0 0 0 0 0 0 0 \;;
#X scalar mv_track 0 0 0 0 0 0 0 0 \;;
#X scalar mv_track 0 0 0 0 0 0 0 0 \;;
#X scalar mv_track 0 0 0 0 0 0 0 0 \;;
#X scalar mv_track 0 0 0 0 0 0 0 0 \;;
#X scalar mv_track 0 0 0 0 0 0 0 0 \;;
#X scalar mv_track 0 0 0 0 0 0 0 0 \;;
#X scalar mv_track 0 0 0 0 0 0 0 0 \;;
#X scalar mv_track 0 0 0 0 0 0 0 0 \;;
#X scalar mv_track 0 0 0 0 0 0 0 0 \;;
#X scalar mv_track 0 0 0 0 0 0 0 0 \;;
#X scalar mv_track 0 0 0 0 0 0 0 0 \;;
#X scalar mv_track 0 0 0 0 0 0 0 0 \;;
#X scalar mv_track 0 0 0 0 0 0 0 0 \;;
#X scalar mv_track 0 0 0 0 0 0 0 0 \;;
#X scalar mv_track 0 0 0 0 0 0 0 0 \;;
#X scalar mv_track 0 0 0 0 0 0 0 0 \;;
#X scalar mv_track 0 0 0 0 0 0 0 0 \;;
#X scalar mv_track 0 0 0 0 0 0 0 0 \;;
#X scalar mv_track 0 0 0 0 0 0 0 0 \;;
#X scalar mv_track 0 0 0 0 0 0 0 0 \;;
#X scalar mv_track 0 0 0 0 0 0 0 0 \;;
#X scalar mv_track 0 0 0 0 0 0 0 0 \;;
#X scalar mv_track 0 0 0 0 0 0 0 0 \;;
#X scalar mv_track 0 0 0 0 0 0 0 0 \;;
#X scalar mv_track 0 0 0 0 0 0 0 0 \;;
#X scalar mv_track 0 0 0 0 0 0 0 0 \;;
#X scalar mv_track 0 0 0 0 0 0 0 0 \;;
#X scalar mv_track 0 0 0 0 0 0 0 0 \;;
#X scalar mv_track 0 0 0 0 0 0 0 0 \;;
#X scalar mv_track 0 0 0 0 0 0 0 0 \;;
#X scalar mv_track 0 0 0 0 0 0 0 0 \;;
#X scalar mv_track 0 0 0 0 0 0 0 0 \;;
#X scalar mv_track 0 0 0 0 0 0 0 0 \;;
#X scalar mv_track 0 0 0 0 0 0 0 0 \;;
#X scalar mv_track 0 0 0 0 0 0 0 0 \;;
#X scalar mv_track 0 0 0 0 0 0 0 0 \;;
#X scalar mv_track 0 0 0 0 0 0 0 0 \;;
#X scalar mv_track 0 0 0 0 0 0 0 0 \;;
#X scalar mv_track 0 0 0 0 0 0 0 0 \;;
#X scalar mv_track 0 0 0 0 0 0 0 0 \;;
#X scalar mv_track 0 0 0 0 0 0 0 0 \;;
#X scalar mv_track 0 0 0 0 0 0 0 0 \;;
#X scalar mv_track 0 0 0 0 0 0 0 0 \;;
#X scalar mv_track 0 0 0 0 0 0 0 0 \;;
#X scalar mv_track 0 0 0 0 0 0 0 0 \;;
#X scalar mv_track 0 0 0 0 0 0 0 0 \;;
#X scalar mv_track 0 0 0 0 0 0 0 0 \;;
#X restore 19 13 pd track\$1_window;
#X obj 672 351 tabwrite track\$1_pattern;
#X obj 32 551 i;
#X obj 32 528 bng 15 250 50 0 empty empty empty 17 7 0 10 -262144 -1
-1;
#N canvas 0 0 450 300 (subpatch) 0;
#X array track\$1_pattern 7 float 2;
#X coords 0 0 7 7 40 40 1;
#X restore 835 302 graph;
#X obj 241 434 bng 15 250 50 0 empty empty empty 17 7 0 10 -262144
-1 -1;
#X msg 33 388 0 \, 1 \, 2 \, 3 \, 4 \, 5 \, 6 \, 7;
#X obj 60 431 tabread track\$1_pattern;
#X obj 120 234 tabread track\$1_pattern;
#X obj 374 557 outlet;
#X obj 323 89 inlet;
#X obj 323 115 route track\$1;
#X obj 572 435 i;
#X obj 365 173 OSCroute /pattern_grid;
#X obj 630 185 OSCroute /pattern_number;
#X obj 572 412 OSCroute /pattern_active_grid /pattern_grid;
#X obj 33 366 OSCroute /pattern_seq;
#X obj 672 220 OSCroute /pattern_seq;
#X obj 32 505 OSCroute /pattern_number;
#X obj 241 412 OSCroute /pattern_seq_length;
#X obj 535 491 prepend /grid/pattern_grid/edit;
#X obj 33 410 t f f;
#X obj 33 453 pack;
#X obj 32 574 prepend /grid/pattern_number;
#X obj 33 475 prepend /grid/pattern_seq;
#X obj 672 306 t b f;
#X obj 672 328 i;
#X obj 241 479 prepend /grid/pattern_seq/length;
#X msg 683 262 0 0 \, 1 0 \, 2 0 \, 3 0 \, 4 0 \, 5 0 \, 6 0 \, 7 0
;
#X obj 244 356 OSCroute /get;
#X obj 365 148 OSCroute /edit;
#N canvas 226 137 947 538 midi-notes 0;
#X obj 319 88 route 1 2 3 4 5 6 7 8;
#X obj 24 210 i;
#X obj 97 126 route 1 2 3 4 5 6 7 8;
#X obj 97 104 inlet;
#X obj 70 210 i;
#X obj 117 210 i;
#X obj 164 210 i;
#X obj 211 210 i;
#X obj 258 210 i;
#X obj 305 210 i;
#X obj 352 210 i;
#X obj 416 208 i;
#X obj 451 208 i;
#X obj 486 208 i;
#X obj 521 208 i;
#X obj 556 208 i;
#X obj 591 208 i;
#X obj 626 208 i;
#X obj 661 208 i;
#X msg 416 236 1 \$1;
#X obj 319 13 inlet;
#X obj 551 16 inlet;
#X obj 551 91 bng 15 250 50 0 empty empty empty 17 7 0 10 -262144 -1
-1;
#X obj 551 115 t b b b b b b b b;
#X msg 451 236 2 \$1;
#X msg 486 236 3 \$1;
#X msg 521 236 4 \$1;
#X msg 556 236 5 \$1;
#X msg 591 236 6 \$1;
#X msg 626 236 7 \$1;
#X msg 661 236 8 \$1;
#X obj 640 311 bng 15 250 50 0 empty empty empty 17 7 0 10 -262144
-1 -1;
#X obj 716 311 bng 15 250 50 0 empty empty empty 17 7 0 10 -262144
-1 -1;
#X obj 509 487 outlet;
#X obj 319 34 OSCroute /notes /midi_params;
#X obj 551 41 OSCroute /notes /midi_params /all_midi_params;
#X obj 526 446 prepend /grid/midi_params;
#X obj 190 507 noteout;
#X obj 346 63 OSCroute /velocity /length /channel;
#X obj 672 67 t b b b b;
#X obj 640 154 OSCroute /velocity /length /channel;
#X obj 677 348 bng 15 250 50 0 empty empty empty 17 7 0 10 -262144
-1 -1;
#X obj 640 344 i 100;
#X obj 677 376 i \$1;
#X obj 262 433 i \$1;
#X obj 159 23 loadbang;
#X obj 552 380 prepend velocity;
#X obj 589 417 prepend channel;
#X obj 716 372 prepend length;
#X obj 532 293 prepend notes;
#X obj 205 467 pack 0 0 0;
#X obj 205 415 t f b;
#X obj 400 271 r bpm;
#X obj 400 292 t b f;
#X msg 400 314 15000;
#X obj 400 336 / 1;
#X obj 716 344 i 4;
#X obj 385 359 * 1;
#X msg 159 45 1 67 \, 2 66 \, 3 65 \, 4 64 \, 5 63 \, 6 62 \, 7 61
\, 8 60;
#X obj 11 185 t f b;
#X obj 58 185 t f b;
#X obj 105 185 t f b;
#X obj 152 185 t f b;
#X obj 199 185 t f b;
#X obj 246 185 t f b;
#X obj 293 185 t f b;
#X obj 340 185 t f b;
#X obj 11 237 pack;
#X obj 58 237 pack;
#X obj 105 237 pack;
#X obj 152 237 pack;
#X obj 199 237 pack;
#X obj 246 237 pack;
#X obj 293 237 pack;
#X obj 340 237 pack;
#X obj 176 297 unpack;
#X obj 194 345 i;
#X obj 176 319 t b f;
#X obj 233 366 sel 1 2;
#X obj 233 390 i;
#X msg 257 390 0;
#X obj 371 500 pack 0 0 0;
#X msg 399 464 0;
#X obj 399 435 loadbang;
#X obj 321 344 until;
#X msg 321 317 128;
#X obj 321 382 f;
#X obj 347 382 + 1;
#X msg 353 432 0;
#X obj 353 407 sel 127;
#X connect 0 0 1 1;
#X connect 0 0 11 1;
#X connect 0 1 4 1;
#X connect 0 1 12 1;
#X connect 0 2 13 1;
#X connect 0 2 5 1;
#X connect 0 3 6 1;
#X connect 0 3 14 1;
#X connect 0 4 7 1;
#X connect 0 4 15 1;
#X connect 0 5 8 1;
#X connect 0 5 16 1;
#X connect 0 6 9 1;
#X connect 0 6 17 1;
#X connect 0 7 10 1;
#X connect 0 7 18 1;
#X connect 1 0 67 1;
#X connect 2 0 59 0;
#X connect 2 1 60 0;
#X connect 2 2 61 0;
#X connect 2 3 62 0;
#X connect 2 4 63 0;
#X connect 2 5 64 0;
#X connect 2 6 65 0;
#X connect 2 7 66 0;
#X connect 3 0 2 0;
#X connect 4 0 68 1;
#X connect 5 0 69 1;
#X connect 6 0 70 1;
#X connect 7 0 71 1;
#X connect 8 0 72 1;
#X connect 9 0 73 1;
#X connect 10 0 74 1;
#X connect 11 0 19 0;
#X connect 12 0 24 0;
#X connect 13 0 25 0;
#X connect 14 0 26 0;
#X connect 15 0 27 0;
#X connect 16 0 28 0;
#X connect 17 0 29 0;
#X connect 18 0 30 0;
#X connect 19 0 49 0;
#X connect 20 0 34 0;
#X connect 21 0 35 0;
#X connect 22 0 23 0;
#X connect 23 0 11 0;
#X connect 23 1 12 0;
#X connect 23 2 13 0;
#X connect 23 3 14 0;
#X connect 23 4 15 0;
#X connect 23 5 16 0;
#X connect 23 6 17 0;
#X connect 23 7 18 0;
#X connect 24 0 49 0;
#X connect 25 0 49 0;
#X connect 26 0 49 0;
#X connect 27 0 49 0;
#X connect 28 0 49 0;
#X connect 29 0 49 0;
#X connect 30 0 49 0;
#X connect 31 0 42 0;
#X connect 32 0 56 0;
#X connect 34 0 0 0;
#X connect 34 1 38 0;
#X connect 35 0 22 0;
#X connect 35 1 40 0;
#X connect 35 2 39 0;
#X connect 36 0 33 0;
#X connect 38 0 42 1;
#X connect 38 0 79 1;
#X connect 38 1 56 1;
#X connect 38 1 57 0;
#X connect 38 2 44 1;
#X connect 38 2 43 1;
#X connect 39 0 22 0;
#X connect 39 1 31 0;
#X connect 39 2 32 0;
#X connect 39 3 41 0;
#X connect 40 0 31 0;
#X connect 40 1 32 0;
#X connect 40 2 41 0;
#X connect 41 0 43 0;
#X connect 42 0 46 0;
#X connect 43 0 47 0;
#X connect 44 0 50 2;
#X connect 44 0 81 2;
#X connect 45 0 58 0;
#X connect 46 0 36 0;
#X connect 47 0 36 0;
#X connect 48 0 36 0;
#X connect 49 0 36 0;
#X connect 50 0 37 0;
#X connect 51 0 50 0;
#X connect 51 1 44 0;
#X connect 52 0 53 0;
#X connect 53 0 54 0;
#X connect 53 1 55 1;
#X connect 54 0 55 0;
#X connect 55 0 57 1;
#X connect 56 0 48 0;
#X connect 58 0 0 0;
#X connect 59 0 67 0;
#X connect 59 1 1 0;
#X connect 60 0 68 0;
#X connect 60 1 4 0;
#X connect 61 0 69 0;
#X connect 61 1 5 0;
#X connect 62 0 70 0;
#X connect 62 1 6 0;
#X connect 63 0 71 0;
#X connect 63 1 7 0;
#X connect 64 0 72 0;
#X connect 64 1 8 0;
#X connect 65 0 73 0;
#X connect 65 1 9 0;
#X connect 66 0 74 0;
#X connect 66 1 10 0;
#X connect 67 0 75 0;
#X connect 68 0 75 0;
#X connect 69 0 75 0;
#X connect 70 0 75 0;
#X connect 71 0 75 0;
#X connect 72 0 75 0;
#X connect 73 0 75 0;
#X connect 74 0 75 0;
#X connect 75 0 77 0;
#X connect 75 1 76 1;
#X connect 76 0 51 0;
#X connect 77 0 76 0;
#X connect 77 1 78 0;
#X connect 78 0 79 0;
#X connect 78 1 80 0;
#X connect 79 0 50 1;
#X connect 80 0 50 1;
#X connect 82 0 81 1;
#X connect 83 0 82 0;
#X connect 84 0 86 0;
#X connect 85 0 84 0;
#X connect 86 0 87 0;
#X connect 86 0 89 0;
#X connect 86 0 81 0;
#X connect 87 0 86 1;
#X connect 88 0 86 1;
#X connect 89 0 88 0;
#X restore 106 324 pd midi-notes \$1;
#X obj 33 210 seq_mover;
#X obj 33 138 r 16thbangs;
#X obj 120 160 OSCroute /play;
#X obj 120 137 OSCroute /control;
#X obj 157 184 OSCroute /pattern_seq_length;
#X obj 241 456 i 1;
#X obj 554 98 i \$1;
#X obj 554 146 prepend /main/track_info;
#X obj 554 72 inlet;
#X obj 327 276 r barbangs;
#X obj 304 241 OSCroute /follow_mode;
#X obj 401 274 tgl 15 0 empty empty empty 17 7 0 10 -262144 -1 -1 0
1;
#X obj 368 301 spigot;
#X obj 415 301 sel 1;
#X obj 572 460 mv_pattern_load \$1;
#X msg 19 81 \; pd-track\$1_window read blankmvtrack.txt;
#X obj 490 227 mv_onoff_row_workings \$1 a 1;
#X obj 490 249 mv_onoff_row_workings \$1 b 2;
#X obj 490 270 mv_onoff_row_workings \$1 c 3;
#X obj 490 290 mv_onoff_row_workings \$1 d 4;
#X obj 490 311 mv_onoff_row_workings \$1 e 5;
#X obj 490 332 mv_onoff_row_workings \$1 f 6;
#X obj 490 353 mv_onoff_row_workings \$1 g 7;
#X obj 490 375 mv_onoff_row_workings \$1 h 8;
#X obj 33 259 mv_pattern_read \$1;
#X msg 554 121 \$1 grid;
#X connect 0 0 4 0;
#X connect 1 0 31 0;
#X connect 1 1 32 1;
#X connect 2 0 38 0;
#X connect 3 0 54 0;
#X connect 3 1 55 0;
#X connect 3 2 56 0;
#X connect 3 3 57 0;
#X connect 3 4 58 0;
#X connect 3 5 59 0;
#X connect 3 6 60 0;
#X connect 3 7 61 0;
#X connect 4 0 53 0;
#X connect 5 0 34 0;
#X connect 8 0 29 0;
#X connect 9 0 8 0;
#X connect 11 0 43 0;
#X connect 12 0 27 0;
#X connect 13 0 28 1;
#X connect 14 0 18 1;
#X connect 14 0 8 1;
#X connect 14 0 62 1;
#X connect 16 0 17 0;
#X connect 17 0 35 0;
#X connect 17 0 36 0;
#X connect 17 0 41 0;
#X connect 18 0 52 0;
#X connect 19 0 3 0;
#X connect 20 0 54 1;
#X connect 20 0 55 1;
#X connect 20 0 56 1;
#X connect 20 0 57 1;
#X connect 20 0 58 1;
#X connect 20 0 59 1;
#X connect 20 0 60 1;
#X connect 20 0 61 1;
#X connect 21 0 18 0;
#X connect 21 1 52 0;
#X connect 22 0 12 0;
#X connect 23 0 1 0;
#X connect 24 0 9 0;
#X connect 25 0 11 0;
#X connect 26 0 15 0;
#X connect 27 0 28 0;
#X connect 27 1 13 0;
#X connect 28 0 30 0;
#X connect 29 0 15 0;
#X connect 30 0 15 0;
#X connect 31 0 32 0;
#X connect 31 1 7 1;
#X connect 32 0 7 0;
#X connect 33 0 15 0;
#X connect 34 0 1 0;
#X connect 35 0 24 0;
#X connect 35 0 22 0;
#X connect 35 0 25 0;
#X connect 35 0 21 0;
#X connect 35 0 37 2;
#X connect 36 0 19 0;
#X connect 36 0 20 0;
#X connect 36 0 23 0;
#X connect 36 0 37 1;
#X connect 36 0 42 0;
#X connect 36 0 48 0;
#X connect 37 0 15 0;
#X connect 38 0 62 0;
#X connect 38 1 14 0;
#X connect 39 0 2 0;
#X connect 40 0 38 1;
#X connect 41 0 40 0;
#X connect 42 0 38 2;
#X connect 42 0 43 1;
#X connect 43 0 33 0;
#X connect 44 0 63 0;
#X connect 45 0 15 0;
#X connect 46 0 44 0;
#X connect 47 0 50 0;
#X connect 48 0 49 0;
#X connect 49 0 50 1;
#X connect 49 0 51 0;
#X connect 50 0 18 0;
#X connect 51 0 18 0;
#X connect 52 0 26 0;
#X connect 54 0 26 0;
#X connect 55 0 26 0;
#X connect 56 0 26 0;
#X connect 57 0 26 0;
#X connect 58 0 26 0;
#X connect 59 0 26 0;
#X connect 60 0 26 0;
#X connect 61 0 26 0;
#X connect 62 0 37 0;
#X connect 63 0 45 0;
#X coords 0 0 1 1 40 40 0;
