#N struct mv_track float a float b float c float d float e float f
float g float h;
#N canvas 320 95 911 541 10;
#X obj 18 368 loadbang;
#X obj 640 229 unpack;
#N canvas 86 290 627 375 seq_mover 0;
#X obj 67 57 bng 15 250 50 0 empty empty empty 17 7 0 10 -262144 -1
-1;
#X obj 58 128 spigot;
#X obj 161 46 tgl 15 0 empty empty empty 17 7 0 10 -262144 -1 -1 0
1;
#X obj 58 164 bng 15 250 50 0 empty empty empty 17 7 0 10 -262144 -1
-1;
#X obj 181 70 sel 1;
#X obj 58 189 i;
#X obj 93 188 + 1;
#X msg 90 160 0;
#X obj 58 223 % 16;
#X obj 124 213 sel 15;
#X obj 199 229 sel 0;
#X obj 199 259 i;
#X obj 222 259 + 1;
#X obj 195 100 t b b;
#X msg 260 236 0;
#X obj 67 15 inlet;
#X obj 161 14 inlet;
#X obj 58 283 outlet;
#X obj 199 321 outlet;
#X obj 336 22 inlet;
#X floatatom 336 134 5 0 0 0 - - -;
#X obj 265 205 sel 1;
#X obj 199 290 t 0 0;
#X obj 308 298 >=;
#X obj 58 252 t 0 0;
#X obj 296 92 i 0;
#X connect 0 0 1 0;
#X connect 1 0 3 0;
#X connect 2 0 1 1;
#X connect 2 0 4 0;
#X connect 3 0 5 0;
#X connect 4 0 13 0;
#X connect 5 0 8 0;
#X connect 5 0 9 0;
#X connect 5 0 6 0;
#X connect 6 0 5 1;
#X connect 7 0 5 1;
#X connect 8 0 24 0;
#X connect 9 0 7 0;
#X connect 10 0 11 0;
#X connect 11 0 12 0;
#X connect 11 0 22 0;
#X connect 12 0 11 1;
#X connect 13 0 7 0;
#X connect 13 1 14 0;
#X connect 13 1 20 0;
#X connect 14 0 11 1;
#X connect 15 0 0 0;
#X connect 16 0 2 0;
#X connect 19 0 20 0;
#X connect 20 0 23 1;
#X connect 21 0 14 0;
#X connect 22 0 18 0;
#X connect 22 1 23 0;
#X connect 23 0 21 0;
#X connect 24 0 17 0;
#X connect 24 1 10 0;
#X restore 18 159 pd seq_mover;
#X obj 18 125 bng 15 250 50 0 empty empty empty 17 7 0 10 -262144 -1
-1;
#X obj 369 106 route 1 2 3 4 5 6 7 8;
#X obj 18 392 f \$1;
#X obj 651 166 loadbang;
#X obj 18 87 r beat;
#N canvas 152 76 821 529 midi-notes 1;
#X obj 263 87 route 1 2 3 4 5 6 7 8;
#X obj 6 206 i;
#X obj 41 101 route 1 2 3 4 5 6 7 8;
#X obj 41 76 inlet;
#X obj 6 178 sel 1;
#X obj 50 206 i;
#X obj 50 178 sel 1;
#X obj 94 206 i;
#X obj 94 178 sel 1;
#X obj 138 206 i;
#X obj 138 178 sel 1;
#X obj 182 206 i;
#X obj 182 178 sel 1;
#X obj 226 206 i;
#X obj 226 178 sel 1;
#X obj 270 206 i;
#X obj 270 178 sel 1;
#X obj 314 206 i;
#X obj 314 178 sel 1;
#X obj 360 207 i;
#X obj 395 207 i;
#X obj 430 207 i;
#X obj 465 207 i;
#X obj 500 207 i;
#X obj 535 207 i;
#X obj 570 207 i;
#X obj 605 207 i;
#X msg 360 235 1 \$1;
#X obj 263 12 inlet;
#X obj 495 15 inlet;
#X obj 495 90 bng 15 250 50 0 empty empty empty 17 7 0 10 -262144 -1
-1;
#X obj 495 114 t b b b b b b b b;
#X msg 395 235 2 \$1;
#X msg 430 235 3 \$1;
#X msg 465 235 4 \$1;
#X msg 500 235 5 \$1;
#X msg 535 235 6 \$1;
#X msg 570 235 7 \$1;
#X msg 605 235 8 \$1;
#X obj 584 343 i;
#X obj 660 343 i;
#X obj 584 310 bng 15 250 50 0 empty empty empty 17 7 0 10 -262144
-1 -1;
#X obj 660 310 bng 15 250 50 0 empty empty empty 17 7 0 10 -262144
-1 -1;
#X obj 453 486 outlet;
#X obj 149 349 outlet;
#X obj 149 322 makenote 100 500;
#X obj 697 273 loadbang;
#X msg 698 304 100;
#X msg 730 304 500;
#X obj 263 40 OSCroute /notes /midi_params;
#X obj 345 64 OSCroute /velocity /length;
#X obj 584 158 OSCroute /velocity /length;
#X obj 495 40 OSCroute /notes /midi_params /all_midi_params;
#X obj 616 66 t b b b;
#X obj 476 292 prepend notes;
#X obj 549 394 prepend velocity;
#X obj 660 371 prepend length;
#X obj 470 445 prepend /grid/midi_params;
#X connect 0 0 1 1;
#X connect 0 0 19 1;
#X connect 0 1 5 1;
#X connect 0 1 20 1;
#X connect 0 2 7 1;
#X connect 0 2 21 1;
#X connect 0 3 9 1;
#X connect 0 3 22 1;
#X connect 0 4 11 1;
#X connect 0 4 23 1;
#X connect 0 5 13 1;
#X connect 0 5 24 1;
#X connect 0 6 15 1;
#X connect 0 6 25 1;
#X connect 0 7 17 1;
#X connect 0 7 26 1;
#X connect 1 0 45 0;
#X connect 2 0 4 0;
#X connect 2 1 6 0;
#X connect 2 2 8 0;
#X connect 2 3 10 0;
#X connect 2 4 12 0;
#X connect 2 5 14 0;
#X connect 2 6 16 0;
#X connect 2 7 18 0;
#X connect 3 0 2 0;
#X connect 4 0 1 0;
#X connect 5 0 45 0;
#X connect 6 0 5 0;
#X connect 7 0 45 0;
#X connect 8 0 7 0;
#X connect 9 0 45 0;
#X connect 10 0 9 0;
#X connect 11 0 45 0;
#X connect 12 0 11 0;
#X connect 13 0 45 0;
#X connect 14 0 13 0;
#X connect 15 0 45 0;
#X connect 16 0 15 0;
#X connect 17 0 45 0;
#X connect 18 0 17 0;
#X connect 19 0 27 0;
#X connect 20 0 32 0;
#X connect 21 0 33 0;
#X connect 22 0 34 0;
#X connect 23 0 35 0;
#X connect 24 0 36 0;
#X connect 25 0 37 0;
#X connect 26 0 38 0;
#X connect 27 0 54 0;
#X connect 28 0 49 0;
#X connect 29 0 52 0;
#X connect 30 0 31 0;
#X connect 31 0 19 0;
#X connect 31 1 20 0;
#X connect 31 2 21 0;
#X connect 31 3 22 0;
#X connect 31 4 23 0;
#X connect 31 5 24 0;
#X connect 31 6 25 0;
#X connect 31 7 26 0;
#X connect 32 0 54 0;
#X connect 33 0 54 0;
#X connect 34 0 54 0;
#X connect 35 0 54 0;
#X connect 36 0 54 0;
#X connect 37 0 54 0;
#X connect 38 0 54 0;
#X connect 39 0 55 0;
#X connect 40 0 56 0;
#X connect 41 0 39 0;
#X connect 42 0 40 0;
#X connect 45 0 44 0;
#X connect 46 0 47 0;
#X connect 46 0 48 0;
#X connect 47 0 39 1;
#X connect 48 0 40 1;
#X connect 49 0 0 0;
#X connect 49 1 50 0;
#X connect 50 0 39 1;
#X connect 50 0 45 1;
#X connect 50 1 40 1;
#X connect 50 1 45 2;
#X connect 51 0 41 0;
#X connect 51 1 42 0;
#X connect 52 0 30 0;
#X connect 52 1 51 0;
#X connect 52 2 53 0;
#X connect 53 0 30 0;
#X connect 53 1 41 0;
#X connect 53 2 42 0;
#X connect 54 0 57 0;
#X connect 55 0 57 0;
#X connect 56 0 57 0;
#X connect 57 0 43 0;
#X restore 18 233 pd midi-notes;
#X obj 18 258 outlet;
#N canvas 0 0 788 370 track\$1_window 0;
#X scalar mv_track 0 0 0 0 0 0 0 0 \;;
#X scalar mv_track 0 0 0 0 0 0 0 0 \;;
#X scalar mv_track 0 0 0 0 0 0 0 0 \;;
#X scalar mv_track 0 0 0 0 0 0 0 0 \;;
#X scalar mv_track 0 0 0 0 0 0 0 0 \;;
#X scalar mv_track 0 0 0 0 0 0 0 0 \;;
#X scalar mv_track 0 0 0 0 0 0 0 0 \;;
#X scalar mv_track 0 0 0 0 0 0 0 0 \;;
#X scalar mv_track 0 0 0 0 0 0 0 0 \;;
#X scalar mv_track 0 0 0 0 0 0 0 0 \;;
#X scalar mv_track 0 0 0 0 0 0 0 0 \;;
#X scalar mv_track 0 0 0 0 0 0 0 0 \;;
#X scalar mv_track 0 0 0 0 0 0 0 0 \;;
#X scalar mv_track 0 0 0 0 0 0 0 0 \;;
#X scalar mv_track 0 0 0 0 0 0 0 0 \;;
#X scalar mv_track 0 0 0 0 0 0 0 0 \;;
#X scalar mv_track 0 0 0 0 0 0 0 0 \;;
#X scalar mv_track 0 0 0 0 0 0 0 0 \;;
#X scalar mv_track 0 0 0 0 0 0 0 0 \;;
#X scalar mv_track 0 0 0 0 0 0 0 0 \;;
#X scalar mv_track 0 0 0 0 0 0 0 0 \;;
#X scalar mv_track 0 0 0 0 0 0 0 0 \;;
#X scalar mv_track 0 0 0 0 0 0 0 0 \;;
#X scalar mv_track 0 0 0 0 0 0 0 0 \;;
#X scalar mv_track 0 0 0 0 0 0 0 0 \;;
#X scalar mv_track 0 0 0 0 0 0 0 0 \;;
#X scalar mv_track 0 0 0 0 0 0 0 0 \;;
#X scalar mv_track 0 0 0 0 0 0 0 0 \;;
#X scalar mv_track 0 0 0 0 0 0 0 0 \;;
#X scalar mv_track 0 0 0 0 0 0 0 0 \;;
#X scalar mv_track 0 0 0 0 0 0 0 0 \;;
#X scalar mv_track 0 0 0 0 0 0 0 0 \;;
#X scalar mv_track 0 0 0 0 0 0 0 0 \;;
#X scalar mv_track 0 0 0 0 0 0 0 0 \;;
#X scalar mv_track 0 0 0 0 0 0 0 0 \;;
#X scalar mv_track 0 0 0 0 0 0 0 0 \;;
#X scalar mv_track 0 0 0 0 0 0 0 0 \;;
#X scalar mv_track 0 0 0 0 0 0 0 0 \;;
#X scalar mv_track 0 0 0 0 0 0 0 0 \;;
#X scalar mv_track 0 0 0 0 0 0 0 0 \;;
#X scalar mv_track 0 0 0 0 0 0 0 0 \;;
#X scalar mv_track 0 0 0 0 0 0 0 0 \;;
#X scalar mv_track 0 0 0 0 0 0 0 0 \;;
#X scalar mv_track 0 0 0 0 0 0 0 0 \;;
#X scalar mv_track 0 0 0 0 0 0 0 0 \;;
#X scalar mv_track 0 0 0 0 0 0 0 0 \;;
#X scalar mv_track 0 0 0 0 0 0 0 0 \;;
#X scalar mv_track 0 0 0 0 0 0 0 0 \;;
#X scalar mv_track 0 0 0 0 0 0 0 0 \;;
#X scalar mv_track 0 0 0 0 0 0 0 0 \;;
#X scalar mv_track 0 0 0 0 0 0 0 0 \;;
#X scalar mv_track 0 0 0 0 0 0 0 0 \;;
#X scalar mv_track 0 0 0 0 0 0 0 0 \;;
#X scalar mv_track 0 0 0 0 0 0 0 0 \;;
#X scalar mv_track 0 0 0 0 0 0 0 0 \;;
#X scalar mv_track 0 0 0 0 0 0 0 0 \;;
#X scalar mv_track 0 0 0 0 0 0 0 0 \;;
#X scalar mv_track 0 0 0 0 0 0 0 0 \;;
#X scalar mv_track 0 0 0 0 0 0 0 0 \;;
#X scalar mv_track 0 0 0 0 0 0 0 0 \;;
#X scalar mv_track 0 0 0 0 0 0 0 0 \;;
#X scalar mv_track 0 0 0 0 0 0 0 0 \;;
#X scalar mv_track 0 0 0 0 0 0 0 0 \;;
#X scalar mv_track 0 0 0 0 0 0 0 0 \;;
#X scalar mv_track 0 0 0 0 0 0 0 0 \;;
#X scalar mv_track 0 0 0 0 0 0 0 0 \;;
#X scalar mv_track 0 0 0 0 0 0 0 0 \;;
#X scalar mv_track 0 0 0 0 0 0 0 0 \;;
#X scalar mv_track 0 0 0 0 0 0 0 0 \;;
#X scalar mv_track 0 0 0 0 0 0 0 0 \;;
#X scalar mv_track 0 0 0 0 0 0 0 0 \;;
#X scalar mv_track 0 0 0 0 0 0 0 0 \;;
#X scalar mv_track 0 0 0 0 0 0 0 0 \;;
#X scalar mv_track 0 0 0 0 0 0 0 0 \;;
#X scalar mv_track 0 0 0 0 0 0 0 0 \;;
#X scalar mv_track 0 0 0 0 0 0 0 0 \;;
#X scalar mv_track 0 0 0 0 0 0 0 0 \;;
#X scalar mv_track 0 0 0 0 0 0 0 0 \;;
#X scalar mv_track 0 0 0 0 0 0 0 0 \;;
#X scalar mv_track 0 0 0 0 0 0 0 0 \;;
#X scalar mv_track 0 0 0 0 0 0 0 0 \;;
#X scalar mv_track 0 0 0 0 0 0 0 0 \;;
#X scalar mv_track 0 0 0 0 0 0 0 0 \;;
#X scalar mv_track 0 0 0 0 0 0 0 0 \;;
#X scalar mv_track 0 0 0 0 0 0 0 0 \;;
#X scalar mv_track 0 0 0 0 0 0 0 0 \;;
#X scalar mv_track 0 0 0 0 0 0 0 0 \;;
#X scalar mv_track 0 0 0 0 0 0 0 0 \;;
#X scalar mv_track 0 0 0 0 0 0 0 0 \;;
#X scalar mv_track 0 0 0 0 0 0 0 0 \;;
#X scalar mv_track 0 0 0 0 0 0 0 0 \;;
#X scalar mv_track 0 0 0 0 0 0 0 0 \;;
#X scalar mv_track 0 0 0 0 0 0 0 0 \;;
#X scalar mv_track 0 0 0 0 0 0 0 0 \;;
#X scalar mv_track 0 0 0 0 0 0 0 0 \;;
#X scalar mv_track 0 0 0 0 0 0 0 0 \;;
#X scalar mv_track 0 0 0 0 0 0 0 0 \;;
#X scalar mv_track 0 0 0 0 0 0 0 0 \;;
#X scalar mv_track 0 0 0 0 0 0 0 0 \;;
#X scalar mv_track 0 0 0 0 0 0 0 0 \;;
#X scalar mv_track 0 0 0 0 0 0 0 0 \;;
#X scalar mv_track 0 0 0 0 0 0 0 0 \;;
#X scalar mv_track 0 0 0 0 0 0 0 0 \;;
#X scalar mv_track 0 0 0 0 0 0 0 0 \;;
#X scalar mv_track 0 0 0 0 0 0 0 0 \;;
#X scalar mv_track 0 0 0 0 0 0 0 0 \;;
#X scalar mv_track 0 0 0 0 0 0 0 0 \;;
#X scalar mv_track 0 0 0 0 0 0 0 0 \;;
#X scalar mv_track 0 0 0 0 0 0 0 0 \;;
#X scalar mv_track 0 0 0 0 0 0 0 0 \;;
#X scalar mv_track 0 0 0 0 0 0 0 0 \;;
#X scalar mv_track 0 0 0 0 0 0 0 0 \;;
#X scalar mv_track 0 0 0 0 0 0 0 0 \;;
#X scalar mv_track 0 0 0 0 0 0 0 0 \;;
#X scalar mv_track 0 0 0 0 0 0 0 0 \;;
#X scalar mv_track 0 0 0 0 0 0 0 0 \;;
#X scalar mv_track 0 0 0 0 0 0 0 0 \;;
#X scalar mv_track 0 0 0 0 0 0 0 0 \;;
#X scalar mv_track 0 0 0 0 0 0 0 0 \;;
#X scalar mv_track 0 0 0 0 0 0 0 0 \;;
#X scalar mv_track 0 0 0 0 0 0 0 0 \;;
#X scalar mv_track 0 0 0 0 0 0 0 0 \;;
#X scalar mv_track 0 0 0 0 0 0 0 0 \;;
#X scalar mv_track 0 0 0 0 0 0 0 0 \;;
#X scalar mv_track 0 0 0 0 0 0 0 0 \;;
#X scalar mv_track 0 0 0 0 0 0 0 0 \;;
#X scalar mv_track 0 0 0 0 0 0 0 0 \;;
#X scalar mv_track 0 0 0 0 0 0 0 0 \;;
#X restore 18 345 pd track\$1_window;
#X msg 18 414 \; pd-track\$1_window read blanktrack.txt;
#X obj 640 257 tabwrite track\$1_pattern;
#X obj 130 307 i;
#X obj 130 284 bng 15 250 50 0 empty empty empty 17 7 0 10 -262144
-1 -1;
#N canvas 0 0 450 300 (subpatch) 0;
#X array track\$1_pattern 7 float 2;
#X coords 0 0 7 7 40 40 1;
#X restore 803 232 graph;
#X msg 651 191 0 0 \, 0 1 \, 0 2 \, 0 3 \, 0 4 \, 0 5 \, 0 6 \, 0 7
;
#X obj 314 317 i;
#X obj 314 295 bng 15 250 50 0 empty empty empty 17 7 0 10 -262144
-1 -1;
#X msg 298 162 0 \, 1 \, 2 \, 3 \, 4 \, 5 \, 6 \, 7;
#X obj 325 205 tabread track\$1_pattern;
#X obj 105 183 tabread track\$1_pattern;
#X obj 314 395 outlet;
#X obj 259 -2 inlet;
#X obj 259 24 route track\$1;
#X obj 87 44 loadbang;
#X obj 491 331 i;
#X msg 257 417 \; pd-track1_window write testtrack.txt;
#X obj 18 208 pattern_read \$1;
#X obj 494 130 row_workings \$1 a;
#X obj 494 152 row_workings \$1 b;
#X obj 494 174 row_workings \$1 c;
#X obj 494 196 row_workings \$1 d;
#X obj 494 217 row_workings \$1 e;
#X obj 494 239 row_workings \$1 f;
#X obj 494 261 row_workings \$1 g;
#X obj 494 283 row_workings \$1 h;
#X obj 259 46 OSCroute /control /get /edit;
#X obj 491 354 pattern_load \$1;
#X obj 369 81 OSCroute /pattern_grid;
#X obj 599 93 OSCroute /pattern_number;
#X obj 491 308 OSCroute /pattern_active_grid /pattern_grid;
#X obj 298 140 OSCroute /pattern_seq;
#X obj 640 141 OSCroute /pattern_seq;
#X obj 52 111 OSCroute /play;
#X obj 130 261 OSCroute /pattern_number;
#X obj 314 273 OSCroute /pattern_seq_length;
#X obj 579 402 prepend /grid/pattern_grid/control;
#X obj 491 377 prepend /grid/pattern_grid/edit;
#X obj 87 135 OSCroute /pattern_seq_length;
#X msg 87 72 /pattern_seq_length 0;
#X obj 298 184 t f f;
#X obj 298 227 pack;
#X obj 130 330 prepend /grid/pattern_number;
#X obj 314 343 prepend length;
#X obj 314 368 prepend /grid/pattern_seq;
#X obj 298 249 prepend /grid/pattern_seq;
#X connect 0 0 5 0;
#X connect 1 0 12 0;
#X connect 1 1 12 1;
#X connect 2 0 28 0;
#X connect 2 1 21 0;
#X connect 3 0 2 0;
#X connect 4 0 29 0;
#X connect 4 1 30 0;
#X connect 4 2 31 0;
#X connect 4 3 32 0;
#X connect 4 4 33 0;
#X connect 4 5 34 0;
#X connect 4 6 35 0;
#X connect 4 7 36 0;
#X connect 5 0 11 0;
#X connect 6 0 16 0;
#X connect 7 0 3 0;
#X connect 8 0 9 0;
#X connect 8 1 22 0;
#X connect 13 0 53 0;
#X connect 14 0 13 0;
#X connect 16 0 1 0;
#X connect 17 0 54 0;
#X connect 18 0 17 0;
#X connect 19 0 51 0;
#X connect 20 0 52 1;
#X connect 21 0 13 0;
#X connect 21 0 26 1;
#X connect 21 0 28 1;
#X connect 23 0 24 0;
#X connect 24 0 37 0;
#X connect 25 0 50 0;
#X connect 26 0 38 0;
#X connect 28 0 8 0;
#X connect 37 0 44 0;
#X connect 37 1 41 0;
#X connect 37 1 8 2;
#X connect 37 1 45 0;
#X connect 37 1 46 0;
#X connect 37 1 42 0;
#X connect 37 2 39 0;
#X connect 37 2 40 0;
#X connect 37 2 43 0;
#X connect 37 2 8 1;
#X connect 37 2 49 0;
#X connect 38 0 48 0;
#X connect 38 1 47 0;
#X connect 39 0 4 0;
#X connect 40 0 29 1;
#X connect 40 0 30 1;
#X connect 40 0 31 1;
#X connect 40 0 32 1;
#X connect 40 0 33 1;
#X connect 40 0 34 1;
#X connect 40 0 35 1;
#X connect 40 0 36 1;
#X connect 41 0 26 0;
#X connect 41 1 38 0;
#X connect 42 0 19 0;
#X connect 43 0 1 0;
#X connect 44 0 2 1;
#X connect 45 0 14 0;
#X connect 46 0 18 0;
#X connect 47 0 22 0;
#X connect 48 0 22 0;
#X connect 49 0 2 2;
#X connect 49 0 17 1;
#X connect 50 0 49 0;
#X connect 51 0 52 0;
#X connect 51 1 20 0;
#X connect 52 0 56 0;
#X connect 53 0 22 0;
#X connect 54 0 55 0;
#X connect 55 0 22 0;
#X connect 56 0 22 0;
#X coords 0 0 1 1 40 40 0;
