#N canvas 0 0 924 565 10;
#X obj 329 98 route 1 2 3 4 5 6 7 8;
#X obj 34 220 i;
#X obj 107 136 route 1 2 3 4 5 6 7 8;
#X obj 107 114 inlet;
#X obj 80 220 i;
#X obj 127 220 i;
#X obj 174 220 i;
#X obj 221 220 i;
#X obj 268 220 i;
#X obj 315 220 i;
#X obj 362 220 i;
#X obj 426 218 i;
#X obj 461 218 i;
#X obj 496 218 i;
#X obj 531 218 i;
#X obj 566 218 i;
#X obj 601 218 i;
#X obj 636 218 i;
#X obj 671 218 i;
#X msg 426 246 1 \$1;
#X obj 329 23 inlet;
#X obj 561 26 inlet;
#X obj 561 101 bng 15 250 50 0 empty empty empty 17 7 0 10 -262144
-1 -1;
#X obj 561 125 t b b b b b b b b;
#X msg 461 246 2 \$1;
#X msg 496 246 3 \$1;
#X msg 531 246 4 \$1;
#X msg 566 246 5 \$1;
#X msg 601 246 6 \$1;
#X msg 636 246 7 \$1;
#X msg 671 246 8 \$1;
#X obj 650 321 bng 15 250 50 0 empty empty empty 17 7 0 10 -262144
-1 -1;
#X obj 726 321 bng 15 250 50 0 empty empty empty 17 7 0 10 -262144
-1 -1;
#X obj 519 497 outlet;
#X obj 329 44 OSCroute /notes /midi_params;
#X obj 561 51 OSCroute /notes /midi_params /all_midi_params;
#X obj 536 456 prepend /grid/midi_params;
#X obj 200 517 noteout;
#X obj 356 73 OSCroute /velocity /length /channel;
#X obj 682 77 t b b b b;
#X obj 650 164 OSCroute /velocity /length /channel;
#X obj 687 358 bng 15 250 50 0 empty empty empty 17 7 0 10 -262144
-1 -1;
#X obj 650 354 i 100;
#X obj 687 386 i \$1;
#X obj 272 443 i \$1;
#X obj 169 33 loadbang;
#X obj 562 390 prepend velocity;
#X obj 599 427 prepend channel;
#X obj 726 382 prepend length;
#X obj 542 303 prepend notes;
#X obj 215 477 pack 0 0 0;
#X obj 215 425 t f b;
#X obj 410 281 r bpm;
#X obj 410 302 t b f;
#X msg 410 324 15000;
#X obj 410 346 / 1;
#X obj 726 354 i 4;
#X obj 395 369 * 1;
#X msg 169 55 1 67 \, 2 66 \, 3 65 \, 4 64 \, 5 63 \, 6 62 \, 7 61
\, 8 60;
#X obj 21 195 t f b;
#X obj 68 195 t f b;
#X obj 115 195 t f b;
#X obj 162 195 t f b;
#X obj 209 195 t f b;
#X obj 256 195 t f b;
#X obj 303 195 t f b;
#X obj 350 195 t f b;
#X obj 21 247 pack;
#X obj 68 247 pack;
#X obj 115 247 pack;
#X obj 162 247 pack;
#X obj 209 247 pack;
#X obj 256 247 pack;
#X obj 303 247 pack;
#X obj 350 247 pack;
#X obj 186 307 unpack;
#X obj 204 355 i;
#X obj 186 329 t b f;
#X obj 243 376 sel 1 2;
#X obj 243 400 i;
#X msg 267 400 0;
#X obj 381 510 pack 0 0 0;
#X msg 409 474 0;
#X obj 409 445 loadbang;
#X obj 331 354 until;
#X msg 331 327 128;
#X obj 331 392 f;
#X obj 357 392 + 1;
#X msg 363 442 0;
#X obj 363 417 sel 127;
#X connect 0 0 1 1;
#X connect 0 0 11 1;
#X connect 0 1 4 1;
#X connect 0 1 12 1;
#X connect 0 2 13 1;
#X connect 0 2 5 1;
#X connect 0 3 6 1;
#X connect 0 3 14 1;
#X connect 0 4 7 1;
#X connect 0 4 15 1;
#X connect 0 5 8 1;
#X connect 0 5 16 1;
#X connect 0 6 9 1;
#X connect 0 6 17 1;
#X connect 0 7 10 1;
#X connect 0 7 18 1;
#X connect 1 0 67 1;
#X connect 2 0 59 0;
#X connect 2 1 60 0;
#X connect 2 2 61 0;
#X connect 2 3 62 0;
#X connect 2 4 63 0;
#X connect 2 5 64 0;
#X connect 2 6 65 0;
#X connect 2 7 66 0;
#X connect 3 0 2 0;
#X connect 4 0 68 1;
#X connect 5 0 69 1;
#X connect 6 0 70 1;
#X connect 7 0 71 1;
#X connect 8 0 72 1;
#X connect 9 0 73 1;
#X connect 10 0 74 1;
#X connect 11 0 19 0;
#X connect 12 0 24 0;
#X connect 13 0 25 0;
#X connect 14 0 26 0;
#X connect 15 0 27 0;
#X connect 16 0 28 0;
#X connect 17 0 29 0;
#X connect 18 0 30 0;
#X connect 19 0 49 0;
#X connect 20 0 34 0;
#X connect 21 0 35 0;
#X connect 22 0 23 0;
#X connect 23 0 11 0;
#X connect 23 1 12 0;
#X connect 23 2 13 0;
#X connect 23 3 14 0;
#X connect 23 4 15 0;
#X connect 23 5 16 0;
#X connect 23 6 17 0;
#X connect 23 7 18 0;
#X connect 24 0 49 0;
#X connect 25 0 49 0;
#X connect 26 0 49 0;
#X connect 27 0 49 0;
#X connect 28 0 49 0;
#X connect 29 0 49 0;
#X connect 30 0 49 0;
#X connect 31 0 42 0;
#X connect 32 0 56 0;
#X connect 34 0 0 0;
#X connect 34 1 38 0;
#X connect 35 0 22 0;
#X connect 35 1 40 0;
#X connect 35 2 39 0;
#X connect 36 0 33 0;
#X connect 38 0 42 1;
#X connect 38 0 79 1;
#X connect 38 1 56 1;
#X connect 38 1 57 0;
#X connect 38 2 44 1;
#X connect 38 2 43 1;
#X connect 39 0 22 0;
#X connect 39 1 31 0;
#X connect 39 2 32 0;
#X connect 39 3 41 0;
#X connect 40 0 31 0;
#X connect 40 1 32 0;
#X connect 40 2 41 0;
#X connect 41 0 43 0;
#X connect 42 0 46 0;
#X connect 43 0 47 0;
#X connect 44 0 50 2;
#X connect 44 0 81 2;
#X connect 45 0 58 0;
#X connect 46 0 36 0;
#X connect 47 0 36 0;
#X connect 48 0 36 0;
#X connect 49 0 36 0;
#X connect 50 0 37 0;
#X connect 51 0 50 0;
#X connect 51 1 44 0;
#X connect 52 0 53 0;
#X connect 53 0 54 0;
#X connect 53 1 55 1;
#X connect 54 0 55 0;
#X connect 55 0 57 1;
#X connect 56 0 48 0;
#X connect 58 0 0 0;
#X connect 59 0 67 0;
#X connect 59 1 1 0;
#X connect 60 0 68 0;
#X connect 60 1 4 0;
#X connect 61 0 69 0;
#X connect 61 1 5 0;
#X connect 62 0 70 0;
#X connect 62 1 6 0;
#X connect 63 0 71 0;
#X connect 63 1 7 0;
#X connect 64 0 72 0;
#X connect 64 1 8 0;
#X connect 65 0 73 0;
#X connect 65 1 9 0;
#X connect 66 0 74 0;
#X connect 66 1 10 0;
#X connect 67 0 75 0;
#X connect 68 0 75 0;
#X connect 69 0 75 0;
#X connect 70 0 75 0;
#X connect 71 0 75 0;
#X connect 72 0 75 0;
#X connect 73 0 75 0;
#X connect 74 0 75 0;
#X connect 75 0 77 0;
#X connect 75 1 76 1;
#X connect 76 0 51 0;
#X connect 77 0 76 0;
#X connect 77 1 78 0;
#X connect 78 0 79 0;
#X connect 78 1 80 0;
#X connect 79 0 50 1;
#X connect 80 0 50 1;
#X connect 82 0 81 1;
#X connect 83 0 82 0;
#X connect 84 0 86 0;
#X connect 85 0 84 0;
#X connect 86 0 87 0;
#X connect 86 0 89 0;
#X connect 86 0 81 0;
#X connect 87 0 86 1;
#X connect 88 0 86 1;
#X connect 89 0 88 0;
