#N canvas 637 167 560 429 10;
#X floatatom 189 158 5 0 0 0 - - -;
#X floatatom 246 158 5 1 8 0 - - -;
#X obj 274 235 until;
#X obj 255 208 t b f b;
#X obj 274 290 pointer;
#X obj 255 319 pointer;
#X msg 274 263 next;
#X floatatom 290 147 5 1 8 0 - - -;
#X obj 189 23 unpack 0 0;
#X obj 246 131 t f b;
#X obj 289 115 inlet;
#X obj 189 -1 inlet;
#X obj 255 183 + 1;
#X obj 289 169 * 16;
#X obj 323 229 f \$1;
#X msg 323 253 traverse pd-track\$1_window;
#X obj 313 320 print track\$1_pointererror;
#X obj 189 128 i;
#X obj 189 352 set mv_track \$2;
#X obj 189 46 t b b f;
#X obj 92 149 pack 0 0 0;
#X obj 92 112 i \$3;
#X obj 92 183 outlet;
#X msg 246 68 1;
#X obj 246 47 sel 0 1;
#X msg 273 68 0;
#X connect 0 0 18 0;
#X connect 1 0 12 0;
#X connect 2 0 6 0;
#X connect 3 0 5 0;
#X connect 3 1 2 0;
#X connect 3 2 14 0;
#X connect 4 0 5 1;
#X connect 4 1 16 0;
#X connect 5 0 18 1;
#X connect 6 0 4 0;
#X connect 7 0 13 0;
#X connect 8 0 19 0;
#X connect 8 1 24 0;
#X connect 9 0 1 0;
#X connect 9 1 7 0;
#X connect 10 0 7 0;
#X connect 11 0 8 0;
#X connect 12 0 3 0;
#X connect 13 0 12 1;
#X connect 14 0 15 0;
#X connect 15 0 4 0;
#X connect 17 0 0 0;
#X connect 19 0 17 0;
#X connect 19 1 21 0;
#X connect 19 2 9 0;
#X connect 19 2 20 1;
#X connect 20 0 22 0;
#X connect 21 0 20 0;
#X connect 23 0 17 1;
#X connect 23 0 20 2;
#X connect 24 0 23 0;
#X connect 24 1 25 0;
#X connect 25 0 17 1;
#X connect 25 0 20 2;
