#N canvas 33 94 589 418 10;
#X obj 246 160 until;
#X obj 246 218 pointer;
#X obj 211 247 pointer;
#X msg 246 186 next;
#X obj 246 109 * 16;
#X obj 131 141 until;
#X msg 211 225 next;
#X obj 212 27 inlet;
#X msg 131 119 16;
#X obj 131 185 i;
#X obj 131 163 t b b;
#X obj 154 190 + 1;
#X obj 2 315 pack 0 0;
#X obj 56 315 pack 0 0;
#X obj 110 315 pack 0 0;
#X obj 164 315 pack 0 0;
#X obj 218 315 pack 0 0;
#X obj 272 315 pack 0 0;
#X obj 326 315 pack 0 0;
#X obj 380 315 pack 0 0;
#X msg 175 163 1;
#X obj 301 138 f \$1;
#X obj 183 396 outlet;
#X msg 301 167 traverse pd-track\$1_window;
#X obj 285 249 print track\$1_pointererror;
#X obj 211 269 get mv_track a b c d e f g h;
#X msg 348 134 clear;
#X msg 2 342 1 \$1 \$2;
#X msg 56 342 2 \$1 \$2;
#X msg 110 342 3 \$1 \$2;
#X msg 164 342 4 \$1 \$2;
#X msg 218 342 5 \$1 \$2;
#X msg 272 342 6 \$1 \$2;
#X msg 326 342 7 \$1 \$2;
#X msg 380 342 8 \$1 \$2;
#X obj 212 69 t b b f b b f;
#X msg 396 135 pattern \$1;
#X obj 386 386 outlet;
#X connect 0 0 3 0;
#X connect 1 0 2 1;
#X connect 1 1 24 0;
#X connect 2 0 25 0;
#X connect 3 0 1 0;
#X connect 4 0 0 0;
#X connect 5 0 10 0;
#X connect 6 0 2 0;
#X connect 7 0 35 0;
#X connect 8 0 5 0;
#X connect 9 0 11 0;
#X connect 9 0 12 0;
#X connect 9 0 13 0;
#X connect 9 0 14 0;
#X connect 9 0 15 0;
#X connect 9 0 16 0;
#X connect 9 0 17 0;
#X connect 9 0 18 0;
#X connect 9 0 19 0;
#X connect 10 0 9 0;
#X connect 10 1 6 0;
#X connect 11 0 9 1;
#X connect 12 0 27 0;
#X connect 13 0 28 0;
#X connect 14 0 29 0;
#X connect 15 0 30 0;
#X connect 16 0 31 0;
#X connect 17 0 32 0;
#X connect 18 0 33 0;
#X connect 19 0 34 0;
#X connect 20 0 9 1;
#X connect 21 0 23 0;
#X connect 23 0 1 0;
#X connect 25 0 12 1;
#X connect 25 1 13 1;
#X connect 25 2 14 1;
#X connect 25 3 15 1;
#X connect 25 4 16 1;
#X connect 25 5 17 1;
#X connect 25 6 18 1;
#X connect 25 7 19 1;
#X connect 26 0 37 0;
#X connect 27 0 22 0;
#X connect 28 0 22 0;
#X connect 29 0 22 0;
#X connect 30 0 22 0;
#X connect 31 0 22 0;
#X connect 32 0 22 0;
#X connect 33 0 22 0;
#X connect 34 0 22 0;
#X connect 35 0 8 0;
#X connect 35 1 20 0;
#X connect 35 1 1 0;
#X connect 35 2 4 0;
#X connect 35 3 21 0;
#X connect 35 4 26 0;
#X connect 35 5 36 0;
#X connect 36 0 37 0;
