#N canvas 95 15 929 423 10;
#X obj 172 124 until;
#X obj 172 182 pointer;
#X obj 133 211 pointer;
#X msg 172 150 next;
#X obj 172 97 * 16;
#X msg 133 189 next;
#X obj 153 41 inlet;
#X obj 94 43 inlet;
#X obj 153 69 t b f b;
#X obj 94 77 t b;
#X obj 219 109 f \$1;
#X obj 122 271 1 \$1;
#X obj 150 271 2 \$1;
#X obj 178 271 3 \$1;
#X obj 206 271 4 \$1;
#X obj 234 271 5 \$1;
#X obj 262 271 6 \$1;
#X obj 290 271 7 \$1;
#X obj 318 271 8 \$1;
#X obj 224 331 outlet;
#X msg 219 146 traverse pd-track\$1_window;
#X obj 133 233 get mv_track a b c d e f g h;
#X connect 0 0 3 0;
#X connect 1 0 2 1;
#X connect 2 0 21 0;
#X connect 3 0 1 0;
#X connect 4 0 0 0;
#X connect 5 0 2 0;
#X connect 6 0 8 0;
#X connect 7 0 9 0;
#X connect 8 0 1 0;
#X connect 8 1 4 0;
#X connect 8 2 10 0;
#X connect 9 0 5 0;
#X connect 10 0 20 0;
#X connect 11 0 19 0;
#X connect 12 0 19 0;
#X connect 13 0 19 0;
#X connect 14 0 19 0;
#X connect 15 0 19 0;
#X connect 16 0 19 0;
#X connect 17 0 19 0;
#X connect 18 0 19 0;
#X connect 20 0 1 0;
#X connect 21 0 11 0;
#X connect 21 1 12 0;
#X connect 21 2 13 0;
#X connect 21 3 14 0;
#X connect 21 4 15 0;
#X connect 21 5 16 0;
#X connect 21 6 17 0;
#X connect 21 7 18 0;
