#N canvas 293 73 929 423 10;
#X obj 172 101 until;
#X obj 172 159 pointer;
#X obj 133 188 pointer;
#X msg 172 127 next;
#X obj 172 74 * 16;
#X msg 133 166 next;
#X obj 153 18 inlet;
#X obj 94 20 inlet;
#X obj 153 46 t b f b;
#X obj 94 54 t b;
#X obj 219 86 f \$1;
#X obj 199 378 outlet;
#X msg 219 123 traverse pd-track\$1_window;
#X obj 133 210 get mv_track a b c d e f g h;
#X msg 71 309 1 \$1;
#X msg 111 309 2 \$1;
#X msg 151 309 3 \$1;
#X msg 191 309 4 \$1;
#X msg 233 309 5 \$1;
#X msg 271 309 6 \$1;
#X msg 311 309 7 \$1;
#X msg 351 309 8 \$1;
#X connect 0 0 3 0;
#X connect 1 0 2 1;
#X connect 2 0 13 0;
#X connect 3 0 1 0;
#X connect 4 0 0 0;
#X connect 5 0 2 0;
#X connect 6 0 8 0;
#X connect 7 0 9 0;
#X connect 8 0 1 0;
#X connect 8 1 4 0;
#X connect 8 2 10 0;
#X connect 9 0 5 0;
#X connect 10 0 12 0;
#X connect 12 0 1 0;
#X connect 13 0 14 0;
#X connect 13 1 15 0;
#X connect 13 2 16 0;
#X connect 13 3 17 0;
#X connect 13 4 18 0;
#X connect 13 5 19 0;
#X connect 13 6 20 0;
#X connect 13 7 21 0;
#X connect 14 0 11 0;
#X connect 15 0 11 0;
#X connect 16 0 11 0;
#X connect 17 0 11 0;
#X connect 18 0 11 0;
#X connect 19 0 11 0;
#X connect 20 0 11 0;
#X connect 21 0 11 0;
