#N canvas 555 181 560 429 10;
#X floatatom 40 128 5 0 0 0 - - -;
#X floatatom 97 128 5 1 8 0 - - -;
#X obj 125 205 until;
#X obj 106 178 t b f b;
#X obj 125 260 pointer;
#X obj 106 289 pointer;
#X msg 125 233 next;
#X floatatom 141 117 5 1 8 0 - - -;
#X obj 40 52 unpack 0 0;
#X obj 97 101 t f b;
#X obj 141 80 inlet;
#X obj 40 24 inlet;
#X obj 106 153 + 1;
#X obj 140 139 * 16;
#X obj 174 199 f \$1;
#X msg 174 223 traverse pd-track\$1_window;
#X obj 164 290 print track\$1_pointererror;
#X obj 40 98 i;
#X obj 40 75 t b f;
#X obj 40 322 set mv_track \$2;
#X connect 0 0 19 0;
#X connect 1 0 12 0;
#X connect 2 0 6 0;
#X connect 3 0 5 0;
#X connect 3 1 2 0;
#X connect 3 2 14 0;
#X connect 4 0 5 1;
#X connect 4 1 16 0;
#X connect 5 0 19 1;
#X connect 6 0 4 0;
#X connect 7 0 13 0;
#X connect 8 0 18 0;
#X connect 8 1 17 1;
#X connect 9 0 1 0;
#X connect 9 1 7 0;
#X connect 10 0 7 0;
#X connect 11 0 8 0;
#X connect 12 0 3 0;
#X connect 13 0 12 1;
#X connect 14 0 15 0;
#X connect 15 0 4 0;
#X connect 17 0 0 0;
#X connect 18 0 17 0;
#X connect 18 1 9 0;
