#N canvas 0 10 639 522 10;
#X obj 69 172 bng 15 250 50 0 empty empty empty 17 7 0 10 -262144 -1
-1;
#X obj 69 243 spigot;
#X obj 239 49 tgl 15 0 empty empty empty 17 7 0 10 -262144 -1 -1 1
1;
#X obj 69 279 bng 15 250 50 0 empty empty empty 17 7 0 10 -262144 -1
-1;
#X obj 192 185 sel 1;
#X obj 69 304 i;
#X obj 104 303 + 1;
#X msg 101 275 0;
#X obj 69 338 % 16;
#X obj 135 328 sel 15;
#X obj 210 344 sel 0;
#X obj 210 374 i;
#X obj 233 374 + 1;
#X obj 206 215 t b b;
#X msg 271 351 0;
#X obj 68 25 inlet;
#X obj 239 17 inlet;
#X obj 69 398 outlet;
#X obj 210 436 outlet;
#X obj 445 108 inlet;
#X floatatom 395 276 5 0 0 0 - - -;
#X obj 276 320 sel 1;
#X obj 210 405 t 0 0;
#X obj 69 367 t 0 0;
#X obj 441 201 loadbang;
#X msg 441 233 1;
#X obj 180 110 syncplay;
#X floatatom 289 463 5 0 0 0 - - -;
#X floatatom 143 428 5 0 0 0 - - -;
#X floatatom 361 470 5 0 0 0 - - -;
#X obj 327 361 bng 15 250 50 0 empty empty empty 17 7 0 10 -262144
-1 -1;
#X obj 332 413 >=;
#X obj 384 320 - 1;
#X connect 0 0 1 0;
#X connect 1 0 3 0;
#X connect 2 0 26 0;
#X connect 3 0 5 0;
#X connect 4 0 13 0;
#X connect 5 0 8 0;
#X connect 5 0 9 0;
#X connect 5 0 6 0;
#X connect 6 0 5 1;
#X connect 7 0 5 1;
#X connect 8 0 23 0;
#X connect 9 0 7 0;
#X connect 10 0 11 0;
#X connect 11 0 12 0;
#X connect 11 0 22 0;
#X connect 12 0 11 1;
#X connect 13 0 7 0;
#X connect 13 1 14 0;
#X connect 13 1 20 0;
#X connect 14 0 11 1;
#X connect 15 0 0 0;
#X connect 16 0 2 0;
#X connect 19 0 20 0;
#X connect 20 0 32 0;
#X connect 21 0 14 0;
#X connect 21 0 30 0;
#X connect 22 0 18 0;
#X connect 22 0 27 0;
#X connect 22 1 31 0;
#X connect 23 0 17 0;
#X connect 23 0 28 0;
#X connect 23 1 10 0;
#X connect 24 0 25 0;
#X connect 25 0 20 0;
#X connect 26 0 4 0;
#X connect 26 0 1 1;
#X connect 31 0 21 0;
#X connect 31 0 29 0;
#X connect 32 0 31 1;
