#N canvas 719 187 480 400 10;
#X obj 200 71 inlet;
#X obj 139 329 outlet;
#X obj 82 71 inlet;
#X obj 200 178 t b f;
#X msg 200 201 4;
#X obj 200 224 / 1;
#X obj 139 303 change;
#X obj 139 255 * 4;
#X obj 139 279 i;
#X obj 82 170 bng 15 250 50 0 empty empty empty 17 7 0 10 -262144 -1
-1;
#X obj 82 199 i;
#X obj 104 198 + 1;
#X msg 145 168 0;
#X obj 145 37 inlet;
#X obj 145 145 sel 1;
#X obj 245 126 expr 1 - \$1;
#X obj 200 150 spigot 0;
#X obj 82 145 spigot 0;
#X obj 260 244 outlet;
#X obj 145 100 syncplay;
#X obj 145 78 tgl 15 0 empty empty empty 17 7 0 10 -262144 -1 -1 0
1;
#X obj 178 254 sel 256;
#X connect 0 0 16 0;
#X connect 2 0 17 0;
#X connect 3 0 4 0;
#X connect 3 1 5 1;
#X connect 3 1 18 0;
#X connect 4 0 5 0;
#X connect 5 0 7 1;
#X connect 6 0 1 0;
#X connect 7 0 8 0;
#X connect 7 0 21 0;
#X connect 8 0 6 0;
#X connect 9 0 10 0;
#X connect 10 0 11 0;
#X connect 10 0 7 0;
#X connect 11 0 10 1;
#X connect 12 0 10 1;
#X connect 13 0 20 0;
#X connect 14 0 12 0;
#X connect 15 0 16 1;
#X connect 16 0 3 0;
#X connect 17 0 9 0;
#X connect 19 0 15 0;
#X connect 19 0 14 0;
#X connect 19 0 17 1;
#X connect 20 0 19 0;
#X connect 21 0 12 0;
