#N canvas 552 95 599 627 10;
#X floatatom 74 146 5 0 0 0 - - -;
#X obj 131 169 % 2;
#X floatatom 131 197 5 0 0 0 - - -;
#X obj 74 170 % 4;
#X obj 74 193 sel 3;
#X msg 74 236 1;
#X msg 101 236 0;
#X floatatom 74 263 5 0 0 0 - - -;
#X obj 74 215 bng 15 250 50 0 empty empty empty 17 7 0 10 -262144 -1
-1;
#X obj 101 215 bng 15 250 50 0 empty empty empty 17 7 0 10 -262144
-1 -1;
#X floatatom 205 155 5 0 0 0 - - -;
#X obj 131 228 * 0;
#X obj 74 295 * 0;
#X floatatom 205 100 5 0 100 0 - - -;
#X obj 205 128 / 100;
#X obj 251 98 r bpm;
#X obj 251 123 t b f;
#X msg 251 149 15000;
#X obj 251 176 / 1;
#X obj 227 204 * 1;
#X obj 74 119 r 16thnumbers;
#X obj 130 259 spigot;
#X floatatom 74 373 5 0 0 0 - - -;
#X obj 163 237 expr 1-$f1;
#X obj 74 319 spigot;
#X obj 177 99 tgl 15 0 empty empty empty 17 7 0 10 -262144 -1 -1 0
1;
#X obj 177 15 inlet;
#X obj 177 65 OSCroute /swing_type /swing_amount;
#X connect 0 0 1 0;
#X connect 0 0 3 0;
#X connect 1 0 2 0;
#X connect 2 0 11 0;
#X connect 3 0 4 0;
#X connect 4 0 8 0;
#X connect 4 1 9 0;
#X connect 5 0 7 0;
#X connect 6 0 7 0;
#X connect 7 0 12 0;
#X connect 8 0 5 0;
#X connect 9 0 6 0;
#X connect 10 0 19 0;
#X connect 11 0 21 0;
#X connect 12 0 24 0;
#X connect 13 0 14 0;
#X connect 14 0 10 0;
#X connect 15 0 16 0;
#X connect 16 0 17 0;
#X connect 16 1 18 1;
#X connect 17 0 18 0;
#X connect 18 0 19 1;
#X connect 19 0 11 1;
#X connect 19 0 12 1;
#X connect 20 0 0 0;
#X connect 21 0 22 0;
#X connect 23 0 21 1;
#X connect 24 0 22 0;
#X connect 25 0 23 0;
#X connect 25 0 24 1;
#X connect 27 0 25 0;
#X connect 27 1 13 0;
