#N canvas 529 114 450 418 10;
#X obj 38 58 metro 400;
#X obj 38 25 tgl 15 0 empty empty empty 17 7 0 10 -262144 -1 -1 0 1
;
#X obj 38 108 i;
#X obj 67 109 + 1;
#X obj 38 82 bng 15 250 50 0 empty empty empty 17 7 0 10 -262144 -1
-1;
#X floatatom 38 168 5 0 0 0 - - -;
#X obj 54 141 sel 16;
#X msg 105 85 0;
#X obj 105 52 sel 0;
#X obj 27 204 % 2;
#X floatatom 18 269 5 0 0 0 - - -;
#X obj 62 193 % 4;
#X obj 62 216 sel 3;
#X msg 61 267 1;
#X msg 95 267 0;
#X floatatom 76 302 5 0 0 0 - - -;
#X obj 59 245 bng 15 250 50 0 empty empty empty 17 7 0 10 -262144 -1
-1;
#X obj 91 241 bng 15 250 50 0 empty empty empty 17 7 0 10 -262144 -1
-1;
#X connect 0 0 4 0;
#X connect 1 0 0 0;
#X connect 1 0 8 0;
#X connect 2 0 3 0;
#X connect 2 0 6 0;
#X connect 2 0 5 0;
#X connect 3 0 2 1;
#X connect 4 0 2 0;
#X connect 5 0 9 0;
#X connect 5 0 11 0;
#X connect 6 0 7 0;
#X connect 7 0 2 0;
#X connect 8 0 7 0;
#X connect 9 0 10 0;
#X connect 11 0 12 0;
#X connect 12 0 16 0;
#X connect 12 1 17 0;
#X connect 13 0 15 0;
#X connect 14 0 15 0;
#X connect 16 0 13 0;
#X connect 17 0 14 0;
