#N canvas 86 142 450 300 10;
#X obj 228 75 tgl 15 0 empty empty empty 17 7 0 10 -262144 -1 -1 0
1;
#X obj 228 43 inlet;
#X obj 135 49 r barbangs;
#X obj 161 141 spigot;
#X obj 168 173 i;
#X obj 201 97 bng 15 250 50 0 empty empty empty 17 7 0 10 -262144 -1
-1;
#X msg 173 119 1;
#X msg 113 129 0;
#X obj 168 211 outlet;
#X connect 0 0 4 1;
#X connect 0 0 5 0;
#X connect 1 0 0 0;
#X connect 2 0 3 0;
#X connect 3 0 4 0;
#X connect 3 0 7 0;
#X connect 4 0 8 0;
#X connect 5 0 6 0;
#X connect 6 0 3 1;
#X connect 7 0 3 1;
