#N canvas 46 54 910 523 10;
#X obj 148 162 loadbang;
#X obj 148 186 f \$1;
#X obj 211 164 bng 15 250 50 0 empty empty empty 17 7 0 10 -262144
-1 -1;
#N canvas 0 0 450 300 mono_track\$1_window 0;
#X restore 147 126 pd mono_track\$1_window;
#X msg 148 214 \; pd-mono_track\$1_window read blankmonotrack.txt;
#X msg 455 215 \; pd-mono_track\$1_window write monotracktrack.txt
;
#X obj 455 158 loadbang;
#X obj 455 182 f \$1;
#X obj 518 160 bng 15 250 50 0 empty empty empty 17 7 0 10 -262144
-1 -1;
#X connect 0 0 1 0;
#X connect 1 0 4 0;
#X connect 2 0 1 0;
#X connect 6 0 7 0;
#X connect 7 0 5 0;
#X connect 8 0 7 0;
