#N struct grid16_track float a float b float c float d float e float
f float g float h;
#N struct grid32_track float a float b float c float d float e float
f float g float h float i float j float k float l float m float n float
o float p;
#N canvas 119 108 951 600 10;
#X floatatom 230 139 5 0 300 0 - - -;
#X obj 155 139 tgl 15 0 empty empty empty 17 7 0 10 -262144 -1 -1 0
1;
#X obj 331 150 prepend;
#X msg 370 124 track\$1;
#X obj 444 426 sendOSC;
#X obj 444 382 loadbang;
#X msg 444 404 connect localhost 9001;
#X obj 356 395 prepend send;
#X obj 331 72 OSCroute /grid;
#X obj 331 99 OSCroute /track /track_select;
#X obj 442 69 print oscin;
#X obj 580 143 prepend;
#X msg 619 117 track\$1;
#X obj 580 92 OSCroute /track /track_select;
#X obj 580 65 OSCroute /curve;
#X obj 356 439 print oscout;
#X obj 378 20 dumpOSC 9004;
#X obj 28 85 loadbang;
#X msg 28 108 \; pd dsp 1;
#X obj 155 104 OSCroute /global_play /bpm;
#X obj 592 185 curve_read 8;
#X obj 648 141 OSCroute /track_info;
#X obj 571 290 r 16thnumbers;
#X obj 571 316 prepend /main/stepnumber;
#X obj 592 229 curve_read 10;
#X obj 592 207 curve_read 9;
#X obj 155 168 seq_midiclock;
#N canvas 390 378 701 300 grid16_track-template 0;
#X obj 109 64 struct grid16_track float a float b float c float d float
e float f float g float h;
#X restore 28 28 pd grid16_track-template;
#N canvas 390 378 701 300 grid32_track-template 0;
#X obj 109 64 struct grid32_track float a float b float c float d float
e float f float g float h float i float j float k float l float m float
n float o float p;
#X restore 28 49 pd grid32_track-template;
#X obj 381 201 grid16_track 2 2 manual;
#X obj 381 223 grid16_track 3 3 manual;
#X obj 381 247 grid16_track 4 4 manual;
#X obj 380 275 grid16_track 5 5 manual;
#X obj 380 300 grid16_track 6 6 manual;
#X obj 379 327 grid16_track 7 7 manual;
#X obj 381 178 grid32_track 1 1 manual;
#X connect 0 0 26 1;
#X connect 1 0 26 0;
#X connect 2 0 29 0;
#X connect 2 0 30 0;
#X connect 2 0 31 0;
#X connect 2 0 32 0;
#X connect 2 0 33 0;
#X connect 2 0 34 0;
#X connect 2 0 35 0;
#X connect 3 0 2 1;
#X connect 5 0 6 0;
#X connect 6 0 4 0;
#X connect 7 0 4 0;
#X connect 7 0 15 0;
#X connect 8 0 9 0;
#X connect 9 0 2 0;
#X connect 9 1 3 0;
#X connect 11 0 20 0;
#X connect 11 0 24 0;
#X connect 11 0 25 0;
#X connect 12 0 11 1;
#X connect 13 0 11 0;
#X connect 13 1 12 0;
#X connect 14 0 13 0;
#X connect 16 0 8 0;
#X connect 16 0 14 0;
#X connect 16 0 10 0;
#X connect 16 0 19 0;
#X connect 16 0 21 0;
#X connect 17 0 18 0;
#X connect 19 0 1 0;
#X connect 19 1 0 0;
#X connect 20 0 7 0;
#X connect 21 0 20 1;
#X connect 21 0 24 1;
#X connect 21 0 25 1;
#X connect 21 0 29 1;
#X connect 21 0 30 1;
#X connect 21 0 31 1;
#X connect 21 0 32 1;
#X connect 21 0 33 1;
#X connect 21 0 34 1;
#X connect 21 0 35 1;
#X connect 22 0 23 0;
#X connect 23 0 7 0;
#X connect 24 0 7 0;
#X connect 25 0 7 0;
#X connect 29 0 7 0;
#X connect 30 0 7 0;
#X connect 31 0 7 0;
#X connect 32 0 7 0;
#X connect 33 0 7 0;
#X connect 34 0 7 0;
#X connect 35 0 7 0;
