#N canvas 112 25 726 598 10;
#X obj 297 128 until;
#X obj 297 186 pointer;
#X obj 258 215 pointer;
#X msg 297 154 next;
#X obj 297 101 * 16;
#X obj 182 133 until;
#X msg 258 193 next;
#X obj 263 51 inlet;
#X msg 182 111 16;
#X obj 182 177 i;
#X obj 182 155 t b b;
#X obj 204 177 + 1;
#X msg 226 155 1;
#X obj 353 103 f \$1;
#X obj 286 429 outlet;
#X obj 336 217 print track\$1_pointererror;
#X msg 353 132 traverse pd-mono_track\$1_window;
#X obj 258 237 get mono_track a;
#X obj 235 350 i;
#X obj 216 379 pack 0 0 0;
#X msg 273 348 1;
#X obj 216 301 t b b b;
#X obj 208 344 i;
#X obj 178 232 t b f b;
#X obj 263 73 t b b f b b;
#X msg 368 180 clear;
#X connect 0 0 3 0;
#X connect 1 0 2 1;
#X connect 1 1 15 0;
#X connect 2 0 17 0;
#X connect 3 0 1 0;
#X connect 4 0 0 0;
#X connect 5 0 10 0;
#X connect 6 0 2 0;
#X connect 7 0 24 0;
#X connect 8 0 5 0;
#X connect 9 0 11 0;
#X connect 9 0 23 0;
#X connect 10 0 9 0;
#X connect 10 1 6 0;
#X connect 11 0 9 1;
#X connect 12 0 9 1;
#X connect 13 0 16 0;
#X connect 16 0 1 0;
#X connect 17 0 22 1;
#X connect 18 0 19 1;
#X connect 19 0 14 0;
#X connect 20 0 19 2;
#X connect 21 0 22 0;
#X connect 21 1 18 0;
#X connect 21 2 20 0;
#X connect 22 0 19 0;
#X connect 23 0 21 0;
#X connect 23 1 18 1;
#X connect 24 0 8 0;
#X connect 24 1 12 0;
#X connect 24 1 1 0;
#X connect 24 2 4 0;
#X connect 24 3 13 0;
#X connect 24 4 25 0;
#X connect 25 0 14 0;
