#N canvas 122 54 803 554 10;
#X msg 551 237 256;
#X obj 551 303 f;
#X obj 577 303 + 1;
#X obj 551 268 until;
#X obj 551 330 t f f;
#X msg 599 267 0;
#X obj 345 8 inlet;
#X obj 388 270 tabwrite pattern;
#X obj 388 112 unpack 0 0 0;
#X obj 442 226 i;
#X obj 551 357 tabread pattern;
#X obj 551 412 i;
#X obj 416 503 outlet;
#X obj 632 267 i \$1;
#X obj 632 297 pack 0 0;
#X obj 632 241 t b f;
#X msg 632 323 set pattern\$1-\$2;
#X obj 345 30 route cc_track\$1;
#X obj 388 205 i \$1;
#X obj 388 226 pack 0 0;
#X msg 388 248 set pattern\$1-\$2;
#X obj 388 159 change;
#X obj 388 135 t b f;
#X obj 388 183 t b f;
#X obj 551 205 t b b f;
#X obj 551 438 pack 0 0;
#X obj 551 385 t b f;
#X obj 551 462 prepend gui_curve;
#X obj 230 210 table pattern\$1-1 256;
#X obj 230 232 table pattern\$1-2 256;
#X obj 230 254 table pattern\$1-3 256;
#X obj 230 276 table pattern\$1-4 256;
#X obj 230 298 table pattern\$1-5 256;
#X obj 230 320 table pattern\$1-6 256;
#X obj 230 342 table pattern\$1-7 256;
#X obj 230 364 table pattern\$1-8 256;
#X obj 551 182 i;
#X obj 655 160 loadbang;
#X msg 618 159 1;
#X obj 571 155 t b b;
#X obj 510 191 i;
#X obj 398 396 prepend gui_curve_number;
#X obj 388 89 route curve;
#X obj 551 128 route curve active_curve;
#X obj 17 141 bng 15 250 50 0 empty empty empty 17 7 0 10 -262144 -1
-1;
#N canvas 213 148 821 529 midi-notes 0;
#X obj 301 91 route 1 2 3 4 5 6 7 8;
#X obj 6 206 i;
#X obj 41 101 route 1 2 3 4 5 6 7 8;
#X obj 41 76 inlet;
#X obj 6 178 sel 1;
#X obj 50 206 i;
#X obj 50 178 sel 1;
#X obj 94 206 i;
#X obj 94 178 sel 1;
#X obj 138 206 i;
#X obj 138 178 sel 1;
#X obj 182 206 i;
#X obj 182 178 sel 1;
#X obj 226 206 i;
#X obj 226 178 sel 1;
#X obj 270 206 i;
#X obj 270 178 sel 1;
#X obj 314 206 i;
#X obj 314 178 sel 1;
#X obj 360 207 i;
#X obj 395 207 i;
#X obj 430 207 i;
#X obj 465 207 i;
#X obj 500 207 i;
#X obj 535 207 i;
#X obj 570 207 i;
#X obj 605 207 i;
#X msg 360 235 1 \$1;
#X obj 301 16 inlet;
#X obj 519 14 inlet;
#X obj 519 89 bng 15 250 50 0 empty empty empty 17 7 0 10 -262144 -1
-1;
#X obj 519 113 t b b b b b b b b;
#X msg 395 235 2 \$1;
#X msg 430 235 3 \$1;
#X msg 465 235 4 \$1;
#X msg 500 235 5 \$1;
#X msg 535 235 6 \$1;
#X msg 570 235 7 \$1;
#X msg 605 235 8 \$1;
#X obj 589 321 i;
#X obj 650 321 i;
#X obj 589 288 bng 15 250 50 0 empty empty empty 17 7 0 10 -262144
-1 -1;
#X obj 650 288 bng 15 250 50 0 empty empty empty 17 7 0 10 -262144
-1 -1;
#X obj 589 378 prepend velocity;
#X obj 650 346 prepend length;
#X obj 589 405 prepend midi_params;
#X obj 476 292 prepend notes;
#X obj 462 454 outlet;
#X obj 149 349 outlet;
#X obj 149 322 makenote 100 500;
#X obj 694 251 loadbang;
#X msg 688 282 100;
#X msg 720 282 500;
#X obj 301 44 route notes midi_params;
#X obj 371 68 route velocity length;
#X obj 519 39 route notes midi_params;
#X obj 589 70 route velocity length;
#X connect 0 0 1 1;
#X connect 0 0 19 1;
#X connect 0 1 5 1;
#X connect 0 1 20 1;
#X connect 0 2 7 1;
#X connect 0 2 21 1;
#X connect 0 3 9 1;
#X connect 0 3 22 1;
#X connect 0 4 11 1;
#X connect 0 4 23 1;
#X connect 0 5 13 1;
#X connect 0 5 24 1;
#X connect 0 6 15 1;
#X connect 0 6 25 1;
#X connect 0 7 17 1;
#X connect 0 7 26 1;
#X connect 1 0 49 0;
#X connect 2 0 4 0;
#X connect 2 1 6 0;
#X connect 2 2 8 0;
#X connect 2 3 10 0;
#X connect 2 4 12 0;
#X connect 2 5 14 0;
#X connect 2 6 16 0;
#X connect 2 7 18 0;
#X connect 3 0 2 0;
#X connect 4 0 1 0;
#X connect 5 0 49 0;
#X connect 6 0 5 0;
#X connect 7 0 49 0;
#X connect 8 0 7 0;
#X connect 9 0 49 0;
#X connect 10 0 9 0;
#X connect 11 0 49 0;
#X connect 12 0 11 0;
#X connect 13 0 49 0;
#X connect 14 0 13 0;
#X connect 15 0 49 0;
#X connect 16 0 15 0;
#X connect 17 0 49 0;
#X connect 18 0 17 0;
#X connect 19 0 27 0;
#X connect 20 0 32 0;
#X connect 21 0 33 0;
#X connect 22 0 34 0;
#X connect 23 0 35 0;
#X connect 24 0 36 0;
#X connect 25 0 37 0;
#X connect 26 0 38 0;
#X connect 27 0 46 0;
#X connect 28 0 53 0;
#X connect 29 0 55 0;
#X connect 30 0 31 0;
#X connect 31 0 19 0;
#X connect 31 1 20 0;
#X connect 31 2 21 0;
#X connect 31 3 22 0;
#X connect 31 4 23 0;
#X connect 31 5 24 0;
#X connect 31 6 25 0;
#X connect 31 7 26 0;
#X connect 32 0 46 0;
#X connect 33 0 46 0;
#X connect 34 0 46 0;
#X connect 35 0 46 0;
#X connect 36 0 46 0;
#X connect 37 0 46 0;
#X connect 38 0 46 0;
#X connect 39 0 43 0;
#X connect 40 0 44 0;
#X connect 41 0 39 0;
#X connect 42 0 40 0;
#X connect 43 0 45 0;
#X connect 44 0 45 0;
#X connect 45 0 47 0;
#X connect 46 0 47 0;
#X connect 49 0 48 0;
#X connect 50 0 51 0;
#X connect 50 0 52 0;
#X connect 51 0 39 1;
#X connect 52 0 40 1;
#X connect 53 0 0 0;
#X connect 53 1 54 0;
#X connect 54 0 39 1;
#X connect 54 0 49 1;
#X connect 54 1 40 1;
#X connect 54 1 49 2;
#X connect 55 0 30 0;
#X connect 55 1 56 0;
#X connect 56 0 41 0;
#X connect 56 1 42 0;
#X restore 12 452 pd midi-notes;
#X obj 12 498 outlet;
#X obj 48 139 route play;
#X obj 17 115 r midi_clock;
#X obj 345 52 route control edit get;
#N canvas 296 113 697 511 curve_mover 0;
#X obj 43 84 bng 15 250 50 0 empty empty empty 17 7 0 10 -262144 -1
-1;
#X obj 91 69 tgl 15 0 empty empty empty 17 7 0 10 -262144 -1 -1 0 1
;
#X obj 43 42 inlet;
#X obj 91 37 inlet;
#X obj 152 39 inlet;
#X obj 309 48 inlet;
#X obj 152 100 spigot;
#X obj 152 130 route 1 2 3 4 5 6 7 8;
#X obj 309 126 route 1 2 3 4 5 6 7 8;
#X obj 290 183 bng 15 250 50 0 empty empty empty 17 7 0 10 -262144
-1 -1;
#X obj 313 183 bng 15 250 50 0 empty empty empty 17 7 0 10 -262144
-1 -1;
#X obj 336 183 bng 15 250 50 0 empty empty empty 17 7 0 10 -262144
-1 -1;
#X obj 359 183 bng 15 250 50 0 empty empty empty 17 7 0 10 -262144
-1 -1;
#X obj 382 183 bng 15 250 50 0 empty empty empty 17 7 0 10 -262144
-1 -1;
#X obj 405 183 bng 15 250 50 0 empty empty empty 17 7 0 10 -262144
-1 -1;
#X obj 428 183 bng 15 250 50 0 empty empty empty 17 7 0 10 -262144
-1 -1;
#X obj 451 183 bng 15 250 50 0 empty empty empty 17 7 0 10 -262144
-1 -1;
#X obj 345 269 funnel 9;
#X obj 345 306 outlet;
#X obj 43 241 outlet;
#X obj 43 190 steps;
#X obj 69 265 outlet;
#X obj 87 241 outlet;
#X obj 113 265 outlet;
#X obj 129 241 outlet;
#X obj 155 265 outlet;
#X obj 173 241 outlet;
#X obj 199 265 outlet;
#X obj 290 208 i 1;
#X obj 313 208 i 1;
#X obj 336 208 i 1;
#X obj 359 208 i 1;
#X obj 382 208 i 1;
#X obj 405 208 i 1;
#X obj 428 208 i 1;
#X obj 451 208 i 1;
#X obj 69 216 steps;
#X obj 87 190 steps;
#X obj 113 216 steps;
#X obj 129 190 steps;
#X obj 155 216 steps;
#X obj 173 190 steps;
#X obj 199 216 steps;
#X obj 43 151 spigot;
#X connect 0 0 43 0;
#X connect 1 0 6 1;
#X connect 1 0 43 1;
#X connect 1 0 20 1;
#X connect 1 0 36 1;
#X connect 1 0 37 1;
#X connect 1 0 38 1;
#X connect 1 0 39 1;
#X connect 1 0 40 1;
#X connect 1 0 41 1;
#X connect 1 0 42 1;
#X connect 2 0 0 0;
#X connect 3 0 1 0;
#X connect 4 0 6 0;
#X connect 5 0 8 0;
#X connect 6 0 7 0;
#X connect 7 0 28 1;
#X connect 7 0 20 2;
#X connect 7 1 29 1;
#X connect 7 1 36 2;
#X connect 7 2 30 1;
#X connect 7 2 37 2;
#X connect 7 3 31 1;
#X connect 7 3 38 2;
#X connect 7 4 32 1;
#X connect 7 4 39 2;
#X connect 7 5 33 1;
#X connect 7 5 40 2;
#X connect 7 6 34 1;
#X connect 7 6 41 2;
#X connect 7 7 35 1;
#X connect 7 7 42 2;
#X connect 8 0 9 0;
#X connect 8 1 10 0;
#X connect 8 2 11 0;
#X connect 8 3 12 0;
#X connect 8 4 13 0;
#X connect 8 5 14 0;
#X connect 8 6 15 0;
#X connect 8 7 16 0;
#X connect 9 0 28 0;
#X connect 10 0 29 0;
#X connect 11 0 30 0;
#X connect 12 0 31 0;
#X connect 13 0 32 0;
#X connect 14 0 33 0;
#X connect 15 0 34 0;
#X connect 16 0 35 0;
#X connect 17 0 18 0;
#X connect 20 0 19 0;
#X connect 28 0 17 1;
#X connect 29 0 17 2;
#X connect 30 0 17 3;
#X connect 31 0 17 4;
#X connect 32 0 17 5;
#X connect 33 0 17 6;
#X connect 34 0 17 7;
#X connect 35 0 17 8;
#X connect 36 0 21 0;
#X connect 37 0 22 0;
#X connect 38 0 23 0;
#X connect 39 0 24 0;
#X connect 40 0 25 0;
#X connect 41 0 26 0;
#X connect 42 0 27 0;
#X connect 43 0 20 0;
#X connect 43 0 36 0;
#X connect 43 0 37 0;
#X connect 43 0 38 0;
#X connect 43 0 39 0;
#X connect 43 0 40 0;
#X connect 43 0 41 0;
#X connect 43 0 42 0;
#X restore 17 207 pd curve_mover 3;
#X obj 17 230 tabread pattern\$1-1;
#X obj 28 252 tabread pattern\$1-1;
#X obj 40 274 tabread pattern\$1-1;
#X obj 51 297 tabread pattern\$1-1;
#X obj 63 319 tabread pattern\$1-1;
#X obj 75 341 tabread pattern\$1-1;
#X obj 86 364 tabread pattern\$1-1;
#X obj 98 386 tabread pattern\$1-1;
#X obj 12 408 funnel 9;
#X obj 79 160 route curve_length;
#X obj 110 183 route curve_length;
#X obj 110 411 prepend curve_length;
#X connect 0 0 3 0;
#X connect 1 0 2 0;
#X connect 1 0 4 0;
#X connect 2 0 1 1;
#X connect 3 0 1 0;
#X connect 4 0 10 0;
#X connect 4 1 11 1;
#X connect 5 0 1 1;
#X connect 6 0 17 0;
#X connect 8 0 22 0;
#X connect 8 1 7 1;
#X connect 8 2 9 1;
#X connect 9 0 7 0;
#X connect 10 0 26 0;
#X connect 11 0 25 0;
#X connect 13 0 14 0;
#X connect 14 0 16 0;
#X connect 15 0 13 0;
#X connect 15 1 14 1;
#X connect 16 0 10 0;
#X connect 17 0 49 0;
#X connect 18 0 19 0;
#X connect 19 0 20 0;
#X connect 20 0 7 0;
#X connect 21 0 23 0;
#X connect 22 0 9 0;
#X connect 22 1 21 0;
#X connect 23 0 18 0;
#X connect 23 1 19 1;
#X connect 24 0 0 0;
#X connect 24 1 5 0;
#X connect 24 2 15 0;
#X connect 25 0 27 0;
#X connect 26 0 11 0;
#X connect 26 1 25 1;
#X connect 27 0 12 0;
#X connect 36 0 24 0;
#X connect 37 0 38 0;
#X connect 38 0 36 1;
#X connect 39 0 36 0;
#X connect 39 1 40 0;
#X connect 40 0 41 0;
#X connect 41 0 12 0;
#X connect 42 0 8 0;
#X connect 43 0 36 0;
#X connect 43 0 40 1;
#X connect 43 1 39 0;
#X connect 44 0 50 0;
#X connect 45 0 46 0;
#X connect 47 0 50 1;
#X connect 48 0 44 0;
#X connect 49 0 47 0;
#X connect 49 1 42 0;
#X connect 49 1 60 0;
#X connect 49 2 43 0;
#X connect 49 2 61 0;
#X connect 50 0 51 0;
#X connect 50 1 52 0;
#X connect 50 2 53 0;
#X connect 50 3 54 0;
#X connect 50 4 55 0;
#X connect 50 5 56 0;
#X connect 50 6 57 0;
#X connect 50 7 58 0;
#X connect 50 8 62 0;
#X connect 51 0 59 1;
#X connect 52 0 59 2;
#X connect 53 0 59 3;
#X connect 54 0 59 4;
#X connect 55 0 59 5;
#X connect 56 0 59 6;
#X connect 57 0 59 7;
#X connect 58 0 59 8;
#X connect 59 0 45 0;
#X connect 60 0 50 2;
#X connect 61 0 50 3;
#X connect 62 0 12 0;
